<?xml version="1.0" standalone="no"?>
<!DOCTYPE svg PUBLIC "-//W3C//DTD SVG 1.1//EN" "http://www.w3.org/Graphics/SVG/1.1/DTD/svg11.dtd" >
<svg xmlns="http://www.w3.org/2000/svg" xmlns:xlink="http://www.w3.org/1999/xlink" version="1.1">
<metadata>
Created by FontForge 20201107 at Thu Feb  6 01:10:31 2025
 By 
(c) 2018 Juan Miguel Castillo
</metadata>
<defs>
<font id="GalacticoBasic" horiz-adv-x="1554" >
  <font-face 
    font-family="Galactico Basic"
    font-weight="400"
    font-stretch="normal"
    units-per-em="2048"
    panose-1="0 0 0 0 0 0 0 0 0 0"
    ascent="1638"
    descent="-410"
    x-height="1434"
    cap-height="1434"
    bbox="61 -417 2822 1455"
    underline-thickness="0"
    underline-position="0"
    unicode-range="U+000A-2212"
  />
<missing-glyph horiz-adv-x="1079" 
d="M102 1434h875v-1434h-875v1434zM160 1393l379 -633l381 633h-760zM514 717l-369 614v-1231zM541 674l-379 -631h758zM565 717l371 -621v1239z" />
    <glyph glyph-name=".notdef" horiz-adv-x="1079" 
d="M102 1434h875v-1434h-875v1434zM160 1393l379 -633l381 633h-760zM514 717l-369 614v-1231zM541 674l-379 -631h758zM565 717l371 -621v1239z" />
    <glyph glyph-name=".null" horiz-adv-x="0" 
 />
    <glyph glyph-name=".null" horiz-adv-x="0" 
 />
    <glyph glyph-name="nonmarkingreturn" horiz-adv-x="682" 
 />
    <glyph glyph-name="controlLF" unicode="&#xa;" horiz-adv-x="0" 
 />
    <glyph glyph-name="controlCR" unicode="&#xd;" horiz-adv-x="0" 
 />
    <glyph glyph-name="space" unicode=" " horiz-adv-x="755" 
 />
    <glyph glyph-name="exclam" unicode="!" horiz-adv-x="573" 
d="M348 287h163v-287h-450v1434h287v-1147z" />
    <glyph glyph-name="quotedbl" unicode="&#x22;" horiz-adv-x="1239" 
d="M61 1434h358l200 -287h-357zM819 1434h357l-200 -287h-357z" />
    <glyph glyph-name="numbersign" unicode="#" 
d="M348 1148h-287v286h287v-286zM348 0h-287v288h287v-288zM348 573h-287v287h287v-287zM920 1148h-286v286h286v-286zM920 0h-286v288h286v-288zM920 573h-286v287h286v-287zM1492 1148h-286v286h286v-286zM1492 0h-286v288h286v-288zM1492 573h-286v287h286v-287z" />
    <glyph glyph-name="dollar" unicode="$" horiz-adv-x="2080" 
d="M1518 717h501v-144h-401l100 -143h301v-143h-201l201 -287h-358l-200 287h-241l200 -287h-357l-200 287h-515v-287h-287v1434h358l501 -717h240l-500 717h357zM348 1024v-307h214zM348 430h414l-100 143h-314v-143zM1120 430h241l-101 143h-240z" />
    <glyph glyph-name="percent" unicode="%" horiz-adv-x="1482" 
d="M1062 1434h357l-1000 -1434h-358zM859 573h357l203 -286h-360zM622 860h-357l-204 287h361z" />
    <glyph glyph-name="ampersand" unicode="&#x26;" 
d="M985 726l507 -726h-1431v859h287v-572h586l-801 1147h358l315 -452l315 452h371v-287h-213z" />
    <glyph glyph-name="quotesingle" unicode="'" horiz-adv-x="681" 
d="M262 1434h357l-200 -287h-358z" />
    <glyph glyph-name="parenleft" unicode="(" horiz-adv-x="1081" 
d="M733 1434h286v-1434h-286v450l-314 -450h-358l601 859h71v575z" />
    <glyph glyph-name="parenright" unicode=")" horiz-adv-x="1081" 
d="M419 859l600 -859h-357l-314 450v-450h-287v1434h287v-575h71z" />
    <glyph glyph-name="asterisk" unicode="*" horiz-adv-x="880" 
d="M619 1148v-1l200 -286h-758l200 286v1l-200 286h758z" />
    <glyph glyph-name="plus" unicode="+" horiz-adv-x="409" 
d="M348 1148h-287v286h287v-286zM348 0h-287v861h287v-861z" />
    <glyph glyph-name="comma" unicode="," horiz-adv-x="681" 
d="M419 287l200 -287h-558v287h358z" />
    <glyph glyph-name="hyphen" unicode="-" horiz-adv-x="409" 
d="M348 574h-287v860h287v-860zM348 0h-287v287h287v-287z" />
    <glyph glyph-name="period" unicode="." horiz-adv-x="409" 
d="M347 0h-286v287h286v-287z" />
    <glyph glyph-name="slash" unicode="/" horiz-adv-x="1482" 
d="M1062 1434h357l-1000 -1434h-358z" />
    <glyph glyph-name="zero" unicode="0" horiz-adv-x="1482" 
d="M1420 1147h-1359v287h1359v-287zM1420 573h-1359v287h1359v-287zM1420 0h-1359v287h1359v-287z" />
    <glyph glyph-name="one" unicode="1" horiz-adv-x="802" 
d="M741 573h-680v287h680v-287z" />
    <glyph glyph-name="two" unicode="2" horiz-adv-x="802" 
d="M741 1147h-680v287h680v-287zM741 0h-680v287h680v-287z" />
    <glyph glyph-name="three" unicode="3" horiz-adv-x="1482" 
d="M741 1147h-680v287h680v-287zM741 0h-680v287h680v-287zM1420 573h-1359v287h1359v-287z" />
    <glyph glyph-name="four" unicode="4" horiz-adv-x="1482" 
d="M741 573h-680v287h680v-287zM1420 1147h-1359v287h1359v-287zM1420 0h-1359v287h1359v-287z" />
    <glyph glyph-name="five" unicode="5" horiz-adv-x="1482" 
d="M1420 1147h-1359v287h1359v-287zM1420 0h-1359v287h1359v-287z" />
    <glyph glyph-name="six" unicode="6" horiz-adv-x="1482" 
d="M1420 573h-679v287h679v-287zM1420 0h-1359v287h1359v-287zM1420 1147h-1359v287h1359v-287z" />
    <glyph glyph-name="seven" unicode="7" horiz-adv-x="1482" 
d="M1420 0h-679v287h679v-287zM1420 1147h-679v287h679v-287zM1420 573h-1359v287h1359v-287z" />
    <glyph glyph-name="eight" unicode="8" horiz-adv-x="1482" 
d="M741 1147h-680v287h680v-287zM1420 573h-1359v287h1359v-287zM1420 0h-1359v287h1359v-287z" />
    <glyph glyph-name="nine" unicode="9" horiz-adv-x="1482" 
d="M1420 0h-679v287h679v-287zM1420 573h-1359v287h1359v-287zM1420 1147h-1359v287h1359v-287z" />
    <glyph glyph-name="colon" unicode=":" horiz-adv-x="837" 
d="M347 0h-286v287h286v-287zM776 0h-286v287h286v-287z" />
    <glyph glyph-name="semicolon" unicode=";" horiz-adv-x="1120" 
d="M347 0h-286v287h286v-287zM858 287l200 -287h-557v287h357z" />
    <glyph glyph-name="less" unicode="&#x3c;" horiz-adv-x="1081" 
d="M662 1434h357v-1434h-286v1024l-314 -449h-358z" />
    <glyph glyph-name="equal" unicode="=" horiz-adv-x="409" 
d="M348 1148h-287v286h287v-286zM348 0h-287v288h287v-288zM348 573h-287v287h287v-287z" />
    <glyph glyph-name="greater" unicode="&#x3e;" horiz-adv-x="1081" 
d="M419 1434l600 -859h-357l-314 449v-1024h-287v1434h358z" />
    <glyph glyph-name="question" unicode="?" horiz-adv-x="1841" 
d="M777 1434l1001 -1434h-358l-801 1147h-558v287h716zM419 0h-358v287h358v-287z" />
    <glyph glyph-name="at" unicode="@" horiz-adv-x="1411" 
d="M1206 1434h143v-717h-143v438l-429 -300v-138h-143v217l572 400v100zM1206 143v431h143v-574h-1288v1434h430v-143h-287v-1148h1002z" />
    <glyph glyph-name="A" unicode="A" 
d="M1206 1434h286v-1434h-286v876l-858 -599v-277h-287v434l1145 800v200z" />
    <glyph glyph-name="B" unicode="B" 
d="M634 1434h858v-1434h-858v287h572v860h-572v287zM920 861v-286h-572v-575h-287v1434h287v-573h572z" />
    <glyph glyph-name="C" unicode="C" horiz-adv-x="1482" 
d="M419 1434l1001 -1434h-357l-715 1024v-1024h-287v1434h358z" />
    <glyph glyph-name="D" unicode="D" 
d="M634 1434h858v-1434h-858v287h572v860h-572v287zM348 0h-287v1434h287v-1434zM920 575h-286v286h286v-286z" />
    <glyph glyph-name="E" unicode="E" 
d="M348 1147h-287v287h287v-287zM1492 573h-673l-200 -286h873v-287h-1431l1002 1434h357l-400 -574h472v-287z" />
    <glyph glyph-name="F" unicode="F" 
d="M348 287h1144v-287h-1431v1434h287v-573h572v-286h-572v-288z" />
    <glyph glyph-name="G" unicode="G" 
d="M61 1434h1431v-287h-1144v-1147h-287v1434zM634 572v287h858v-859h-286v572h-572z" />
    <glyph glyph-name="H" unicode="H" horiz-adv-x="1841" 
d="M1778 1147h-1717v287h1717v-287zM1377 859l-400 -572h801v-287h-1717v287h558l400 572h358z" />
    <glyph glyph-name="I" unicode="I" horiz-adv-x="1482" 
d="M348 0h-287v287h287v-287zM419 1434l1001 -1434h-357l-1002 1434h358z" />
    <glyph glyph-name="J" unicode="J" horiz-adv-x="1839" 
d="M347 1147h-286v287h286v-287zM1420 1433h357v-1432h-286v1023l-715 -1024h-715v287h558z" />
    <glyph glyph-name="K" unicode="K" horiz-adv-x="1839" 
d="M1777 0h-286v287h286v-287zM1062 1434h715v-287h-557l-801 -1146h-358v1433h286v-1024z" />
    <glyph glyph-name="L" unicode="L" 
d="M348 1147h-287v287h287v-287zM348 0h-287v287h287v-287zM634 1434h858v-1434h-858v287h572v860h-572v287z" />
    <glyph glyph-name="M" unicode="M" 
d="M920 0h-286v573h286v-573zM1492 0h-286v1434h286v-1434zM61 0v1434h859v-574h-286v287h-286v-1147h-287z" />
    <glyph glyph-name="N" unicode="N" 
d="M1206 1434h286v-1434h-858v287h572v1147zM634 573v574h-286v-1147h-287v1434h859v-861h-286z" />
    <glyph glyph-name="O" unicode="O" horiz-adv-x="1841" 
d="M1578 287h200v-287h-1717v287h1159l-601 860h-558v287h716z" />
    <glyph glyph-name="P" unicode="P" 
d="M61 1434h1431v-859h-286v572h-587l400 -572h-357l-314 449v-1024h-287v1434z" />
    <glyph glyph-name="Q" unicode="Q" horiz-adv-x="1841" 
d="M1778 0h-1717v287h1717v-287zM1019 575l-400 572h-558v287h716l600 -859h-358z" />
    <glyph glyph-name="R" unicode="R" 
d="M1492 575h-286v572h-587l801 -1147h-357l-715 1024v-1024h-287v1434h1431v-859z" />
    <glyph glyph-name="S" unicode="S" 
d="M348 0h-287v287h287v-287zM1492 575h-286v572h-587l801 -1147h-357l-1002 1434h1431v-859z" />
    <glyph glyph-name="T" unicode="T" horiz-adv-x="1841" 
d="M1778 575h-286v859h286v-859zM348 575h-287v859h287v-859zM1063 1434v-1147h715v-287h-1717v287h716v1147h286z" />
    <glyph glyph-name="U" unicode="U" 
d="M1206 1434h286v-1434h-821l-610 426v1008h287v-850l425 -297h433v1147z" />
    <glyph glyph-name="V" unicode="V" horiz-adv-x="1839" 
d="M347 0h-286v287h286v-287zM1491 1434h286v-1433h-357l-801 1146h-558v287h715l715 -1024v1024z" />
    <glyph glyph-name="W" unicode="W" horiz-adv-x="1523" 
d="M1462 0h-286v1434h286v-1434zM347 287l400 572h358l-600 -859h-444v1434h286v-1147z" />
    <glyph glyph-name="X" unicode="X" horiz-adv-x="1925" 
d="M1504 859h358l-600 -859h-443v1147l-400 -572h-358l600 859h444v-1147z" />
    <glyph glyph-name="Y" unicode="Y" 
d="M920 575h-859v859h287v-573h572v-286zM1206 1434h286v-1434h-1431v287h1145v1147z" />
    <glyph glyph-name="Z" unicode="Z" 
d="M1492 1147h-286v287h286v-287zM491 1434l1001 -1434h-1431v859h287v-572h586l-801 1147h358z" />
    <glyph glyph-name="bracketleft" unicode="[" horiz-adv-x="681" 
d="M262 1434h357v-1434h-286v1147h-272z" />
    <glyph glyph-name="backslash" unicode="\" horiz-adv-x="1482" 
d="M419 1434l1000 -1434h-357l-1001 1434h358z" />
    <glyph glyph-name="bracketright" unicode="]" horiz-adv-x="681" 
d="M419 1434l200 -287h-271v-1147h-287v1434h358z" />
    <glyph glyph-name="asciicircum" unicode="^" horiz-adv-x="1687" 
d="M1022 1434l603 -864l-354 -6l-428 614l-428 -614l-354 6l603 864h358z" />
    <glyph glyph-name="underscore" unicode="_" horiz-adv-x="573" 
d="M511 -286h-450v286h450v-286z" />
    <glyph glyph-name="grave" unicode="`" horiz-adv-x="681" 
d="M419 1434l200 -287h-558v287h358z" />
    <glyph glyph-name="a" unicode="a" 
d="M1206 1434h286v-1434h-286v876l-858 -599v-277h-287v434l1145 800v200z" />
    <glyph glyph-name="b" unicode="b" 
d="M634 1434h858v-1434h-858v287h572v860h-572v287zM920 861v-286h-572v-575h-287v1434h287v-573h572z" />
    <glyph glyph-name="c" unicode="c" horiz-adv-x="1482" 
d="M419 1434l1001 -1434h-357l-715 1024v-1024h-287v1434h358z" />
    <glyph glyph-name="d" unicode="d" 
d="M634 1434h858v-1434h-858v287h572v860h-572v287zM348 0h-287v1434h287v-1434zM920 575h-286v286h286v-286z" />
    <glyph glyph-name="e" unicode="e" 
d="M348 1147h-287v287h287v-287zM1492 573h-673l-200 -286h873v-287h-1431l1002 1434h357l-400 -574h472v-287z" />
    <glyph glyph-name="f" unicode="f" 
d="M348 287h1144v-287h-1431v1434h287v-573h572v-286h-572v-288z" />
    <glyph glyph-name="g" unicode="g" 
d="M61 1434h1431v-287h-1144v-1147h-287v1434zM634 572v287h858v-859h-286v572h-572z" />
    <glyph glyph-name="h" unicode="h" horiz-adv-x="1841" 
d="M1778 1147h-1717v287h1717v-287zM1377 859l-400 -572h801v-287h-1717v287h558l400 572h358z" />
    <glyph glyph-name="i" unicode="i" horiz-adv-x="1482" 
d="M348 0h-287v287h287v-287zM419 1434l1001 -1434h-357l-1002 1434h358z" />
    <glyph glyph-name="j" unicode="j" horiz-adv-x="1839" 
d="M347 1147h-286v287h286v-287zM1420 1433h357v-1432h-286v1023l-715 -1024h-715v287h558z" />
    <glyph glyph-name="k" unicode="k" horiz-adv-x="1839" 
d="M1777 0h-286v287h286v-287zM1062 1434h715v-287h-557l-801 -1146h-358v1433h286v-1024z" />
    <glyph glyph-name="l" unicode="l" 
d="M348 1147h-287v287h287v-287zM348 0h-287v287h287v-287zM634 1434h858v-1434h-858v287h572v860h-572v287z" />
    <glyph glyph-name="m" unicode="m" 
d="M920 0h-286v573h286v-573zM1492 0h-286v1434h286v-1434zM61 0v1434h859v-574h-286v287h-286v-1147h-287z" />
    <glyph glyph-name="n" unicode="n" 
d="M1206 1434h286v-1434h-858v287h572v1147zM634 573v574h-286v-1147h-287v1434h859v-861h-286z" />
    <glyph glyph-name="o" unicode="o" horiz-adv-x="1841" 
d="M1578 287h200v-287h-1717v287h1159l-601 860h-558v287h716z" />
    <glyph glyph-name="p" unicode="p" 
d="M61 1434h1431v-859h-286v572h-587l400 -572h-357l-314 449v-1024h-287v1434z" />
    <glyph glyph-name="q" unicode="q" horiz-adv-x="1841" 
d="M1778 0h-1717v287h1717v-287zM1019 575l-400 572h-558v287h716l600 -859h-358z" />
    <glyph glyph-name="r" unicode="r" 
d="M1492 575h-286v572h-587l801 -1147h-357l-715 1024v-1024h-287v1434h1431v-859z" />
    <glyph glyph-name="s" unicode="s" 
d="M348 0h-287v287h287v-287zM1492 575h-286v572h-587l801 -1147h-357l-1002 1434h1431v-859z" />
    <glyph glyph-name="t" unicode="t" horiz-adv-x="1841" 
d="M1778 575h-286v859h286v-859zM348 575h-287v859h287v-859zM1063 1434v-1147h715v-287h-1717v287h716v1147h286z" />
    <glyph glyph-name="u" unicode="u" 
d="M1206 1434h286v-1434h-821l-610 426v1008h287v-850l425 -297h433v1147z" />
    <glyph glyph-name="v" unicode="v" horiz-adv-x="1839" 
d="M347 0h-286v287h286v-287zM1491 1434h286v-1433h-357l-801 1146h-558v287h715l715 -1024v1024z" />
    <glyph glyph-name="w" unicode="w" horiz-adv-x="1523" 
d="M1462 0h-286v1434h286v-1434zM347 287l400 572h358l-600 -859h-444v1434h286v-1147z" />
    <glyph glyph-name="x" unicode="x" horiz-adv-x="1925" 
d="M1504 859h358l-600 -859h-443v1147l-400 -572h-358l600 859h444v-1147z" />
    <glyph glyph-name="y" unicode="y" 
d="M920 575h-859v859h287v-573h572v-286zM1206 1434h286v-1434h-1431v287h1145v1147z" />
    <glyph glyph-name="z" unicode="z" 
d="M1492 1147h-286v287h286v-287zM491 1434l1001 -1434h-1431v859h287v-572h586l-801 1147h358z" />
    <glyph glyph-name="braceleft" unicode="{" horiz-adv-x="1081" 
d="M662 1434h357v-1434h-286v450l-314 -450h-358l601 859h71v288h-272z" />
    <glyph glyph-name="verticalbar" unicode="|" horiz-adv-x="409" 
d="M348 -416h-287v1850h287v-1850z" />
    <glyph glyph-name="braceright" unicode="}" horiz-adv-x="1081" 
d="M419 859l600 -859h-357l-314 450v-450h-287v1434h358l200 -287h-271v-288h71z" />
    <glyph glyph-name="asciitilde" unicode="~" horiz-adv-x="1832" 
d="M262 553l-201 286h558v-286h-357zM772 839h287v-286h-287v286zM1570 839l200 -286h-557v286h357z" />
    <glyph glyph-name="nonbreakingspace" unicode="&#xa0;" horiz-adv-x="860" 
 />
    <glyph glyph-name="exclamdown" unicode="&#xa1;" horiz-adv-x="573" 
d="M61 1434h450v-1434h-286v1147h-164v287z" />
    <glyph glyph-name="cent" unicode="&#xa2;" horiz-adv-x="1482" 
d="M920 717h500v-144h-400l100 -143h300v-143h-200l200 -287h-357l-200 287h-515v-287h-287v1434h358zM348 1024v-307h214zM348 430h414l-100 143h-314v-143z" />
    <glyph glyph-name="sterling" unicode="&#xa3;" horiz-adv-x="1482" 
d="M1419 1434l-400 -574h400v-287h-600l-100 -143h700v-143h-800l-200 -287h-358l200 287h-200v143h300l101 143h-401v287h601l400 574h357z" />
    <glyph glyph-name="currency" unicode="&#xa4;" horiz-adv-x="1525" 
d="M1363 502h100v-144h-901l-400 574h-101v143h901zM641 502h543l-301 430h-543z" />
    <glyph glyph-name="yen" unicode="&#xa5;" horiz-adv-x="1482" 
d="M1420 1434l-600 -860h600v-143h-700l-101 -144h801v-287h-1359v287h201l100 144h-301v143h401l601 860h357z" />
    <glyph glyph-name="section" unicode="&#xa7;" horiz-adv-x="1804" 
d="M1742 575h-286v572h-587l801 -1146h-357l-510 729h-184l801 -1147h-357l-465 666v-248h-287v286h260l-510 730h542l-292 417h1431v-859zM348 -417h-287v287h287v-287z" />
    <glyph glyph-name="dieresis" unicode="&#xa8;" horiz-adv-x="837" 
d="M347 1147h-286v287h286v-287zM776 1147h-286v287h286v-287z" />
    <glyph glyph-name="copyright" unicode="&#xa9;" horiz-adv-x="1411" 
d="M204 1251v-512h-143v716h179l501 -716h-179zM920 1434h429v-1434h-1288v574h143v-431h1002v1148h-286v143z" />
    <glyph glyph-name="guillemotleft" unicode="&#xab;" horiz-adv-x="880" 
d="M819 860h-357l-401 574h358zM61 0l401 573h357l-400 -573h-358z" />
    <glyph glyph-name="softhyphen" unicode="&#xad;" horiz-adv-x="0" 
 />
    <glyph glyph-name="registered" unicode="&#xae;" horiz-adv-x="1411" 
d="M204 1229v-512h-143v717h716v-430h-143v286h-294l401 -573h-179zM920 1434h429v-1434h-1288v574h143v-431h1002v1148h-286v143z" />
    <glyph glyph-name="degree" unicode="&#xb0;" horiz-adv-x="409" 
d="M347 861h-286v573h286v-573z" />
    <glyph glyph-name="plusminus" unicode="&#xb1;" horiz-adv-x="983" 
d="M348 1147h-287v287h287v-287zM348 0h-287v861h287v-861zM920 574h-286v860h286v-860zM920 0h-286v287h286v-287z" />
    <glyph glyph-name="acute" unicode="&#xb4;" horiz-adv-x="681" 
d="M262 1434h357v-287h-558z" />
    <glyph glyph-name="paragraph" unicode="&#xb6;" horiz-adv-x="1386" 
d="M61 1l601 859h357l-600 -859h-358zM262 1434h1063v-1433h-286v1146h-978z" />
    <glyph glyph-name="cedilla" unicode="&#xb8;" horiz-adv-x="681" 
d="M61 -129h558v-287h-357z" />
    <glyph glyph-name="guillemotright" unicode="&#xbb;" horiz-adv-x="880" 
d="M61 573h358l400 -573h-357zM819 1434l-400 -574h-358l401 574h357z" />
    <glyph glyph-name="questiondown" unicode="&#xbf;" horiz-adv-x="1841" 
d="M419 1434l801 -1147h558v-287h-715l-1002 1434h358zM1778 1147h-358v287h358v-287z" />
    <glyph glyph-name="Agrave" unicode="&#xc0;" 
d="M1206 1434h286v-1434h-286v876l-858 -599v-277h-287v434l1145 800v200zM619 1434v-287h-558l201 287h357z" />
    <glyph glyph-name="Aacute" unicode="&#xc1;" 
d="M1206 1434h286v-1434h-286v876l-858 -599v-277h-287v434l1145 800v200zM419 1434l200 -287h-558v287h358z" />
    <glyph glyph-name="Acircumflex" unicode="&#xc2;" 
d="M1206 1434h286v-1434h-286v876l-858 -599v-277h-287v434l1145 800v200zM576 1434l200 -287h-715l201 287h314z" />
    <glyph glyph-name="Atilde" unicode="&#xc3;" 
d="M1206 1434h286v-1434h-286v876l-858 -599v-277h-287v434l1145 800v200zM776 1147h-286v287h286v-287zM337 1147h-75l-201 287h276v-287z" />
    <glyph glyph-name="Adieresis" unicode="&#xc4;" 
d="M1206 1434h286v-1434h-286v876l-858 -599v-277h-287v434l1145 800v200zM347 1147h-286v287h286v-287zM776 1147h-286v287h286v-287z" />
    <glyph glyph-name="Aring" unicode="&#xc5;" 
d="M1206 1434h286v-1434h-286v876l-858 -599v-277h-287v434l1145 800v200zM347 861h-286v573h286v-573z" />
    <glyph glyph-name="AE" unicode="&#xc6;" horiz-adv-x="2699" 
d="M2636 573h-672l-200 -286h872v-287h-1430v876l-858 -599v-277h-287v434l1145 800v200h286v-1024l715 1024h358l-401 -574h472v-287z" />
    <glyph glyph-name="Ccedilla" unicode="&#xc7;" horiz-adv-x="1482" 
d="M419 1434l1001 -1434h-357l-715 1024v-1024h-287v1434h358zM662 -416l-200 287h558v-287h-358z" />
    <glyph glyph-name="Egrave" unicode="&#xc8;" 
d="M1492 573h-673l-200 -286h873v-287h-1431l1002 1434h357l-400 -574h472v-287zM619 1434v-287h-558l201 287h357z" />
    <glyph glyph-name="Eacute" unicode="&#xc9;" 
d="M1492 573h-673l-200 -286h873v-287h-1431l1002 1434h357l-400 -574h472v-287zM419 1434l200 -287h-558v287h358z" />
    <glyph glyph-name="Ecircumflex" unicode="&#xca;" 
d="M1492 573h-673l-200 -286h873v-287h-1431l1002 1434h357l-400 -574h472v-287zM576 1434l200 -287h-715l201 287h314z" />
    <glyph glyph-name="Edieresis" unicode="&#xcb;" 
d="M1492 573h-673l-200 -286h873v-287h-1431l1002 1434h357l-400 -574h472v-287zM347 1147h-286v287h286v-287zM776 1147h-286v287h286v-287z" />
    <glyph glyph-name="Igrave" unicode="&#xcc;" horiz-adv-x="1482" 
d="M348 0h-287v287h287v-287zM61 1434h358l1001 -1434h-357zM1063 1434h357v-287h-557z" />
    <glyph glyph-name="Iacute" unicode="&#xcd;" horiz-adv-x="1482" 
d="M348 0h-287v287h287v-287zM61 1434h358l1001 -1434h-357zM1220 1434l200 -287h-557v287h357z" />
    <glyph glyph-name="Icircumflex" unicode="&#xce;" horiz-adv-x="1482" 
d="M348 0h-287v287h287v-287zM61 1434h358l1001 -1434h-357zM1220 1434l200 -287h-714l200 287h314z" />
    <glyph glyph-name="Idieresis" unicode="&#xcf;" horiz-adv-x="1482" 
d="M348 0h-287v287h287v-287zM61 1434h358l1001 -1434h-357zM992 1147h-286v287h286v-287zM1420 1147h-285v287h285v-287z" />
    <glyph glyph-name="Eth" unicode="&#xd0;" 
d="M634 1434h858v-1434h-858v287h572v860h-572v287zM348 1434v-573h143v-287h-143v-574h-287v1434h287zM920 574h-286v287h286v-287z" />
    <glyph glyph-name="Ntilde" unicode="&#xd1;" 
d="M1206 287v574h286v-861h-858v287h572zM634 573v574h-286v-1147h-287v1434h660l199 -287v-574h-286zM1492 1147h-286v287h286v-287z" />
    <glyph glyph-name="Ograve" unicode="&#xd2;" horiz-adv-x="1841" 
d="M777 1434l801 -1147h200v-287h-1717v287h1159l-601 860h-558v287h716zM1421 1434h357v-287h-557z" />
    <glyph glyph-name="Oacute" unicode="&#xd3;" horiz-adv-x="1841" 
d="M777 1434l801 -1147h200v-287h-1717v287h1159l-601 860h-558v287h716zM1578 1434l200 -287h-557v287h357z" />
    <glyph glyph-name="Ocircumflex" unicode="&#xd4;" horiz-adv-x="1841" 
d="M777 1434l801 -1147h200v-287h-1717v287h1159l-601 860h-558v287h716zM1578 1434l200 -287h-715l200 287h315z" />
    <glyph glyph-name="Otilde" unicode="&#xd5;" horiz-adv-x="1841" 
d="M777 1434l801 -1147h200v-287h-1717v287h1159l-601 860h-558v287h716zM1778 1147h-286v287h286v-287zM1339 1147h-76l-200 287h276v-287z" />
    <glyph glyph-name="Odieresis" unicode="&#xd6;" horiz-adv-x="1841" 
d="M777 1434l801 -1147h200v-287h-1717v287h1159l-601 860h-558v287h716zM1349 1147h-286v287h286v-287zM1778 1147h-286v287h286v-287z" />
    <glyph glyph-name="multiply" unicode="&#xd7;" horiz-adv-x="1482" 
d="M865 1151h357l-606 -869l-354 6zM1216 573l203 -286h-360l-200 286h357zM622 860h-357l-204 287h361z" />
    <glyph glyph-name="Oslash" unicode="&#xd8;" horiz-adv-x="1841" 
d="M777 1434l801 -1147h200v-287h-1717v287h1159l-601 860h-558v287h716zM1778 1434l-275 -395h-357l275 395h357z" />
    <glyph glyph-name="Ugrave" unicode="&#xd9;" 
d="M1206 1434h286v-1434h-821l-610 426v1008h287v-850l425 -297h433v1147zM1055 1434v-287h-557l200 287h357z" />
    <glyph glyph-name="Uacute" unicode="&#xda;" 
d="M1206 1434h286v-1434h-821l-610 426v1008h287v-850l425 -297h433v1147zM855 1434l200 -287h-557v287h357z" />
    <glyph glyph-name="Ucircumflex" unicode="&#xdb;" 
d="M1206 1434h286v-1434h-821l-610 426v1008h287v-850l425 -297h433v1147zM934 1434l200 -287h-715l200 287h315z" />
    <glyph glyph-name="Udieresis" unicode="&#xdc;" 
d="M1206 1434h286v-1434h-821l-610 426v1008h287v-850l425 -297h433v1147zM705 1147h-286v287h286v-287zM1134 1147h-286v287h286v-287z" />
    <glyph glyph-name="Yacute" unicode="&#xdd;" 
d="M920 574h-572h-287v860h287v-573h572v-287zM1206 1434h286v-1434h-1431v287h1145v1147zM855 1434l200 -287h-557v287h357z" />
    <glyph glyph-name="Thorn" unicode="&#xde;" 
d="M348 1147h1144v-859h-286v572h-587l400 -572h-357l-314 449v-737h-287v1434h287v-287z" />
    <glyph glyph-name="germandbls" unicode="&#xdf;" horiz-adv-x="1841" 
d="M1492 861h286v-861h-858v287h572v288h-286v572h-572v287h858v-573zM348 1434v-573h572v-286h-572v-575h-287v1434h287z" />
    <glyph glyph-name="agrave" unicode="&#xe0;" 
d="M1206 1434h286v-1433h-286v876l-858 -600v-276h-287v434l1145 799v200zM619 1434v-286h-558l201 286h357z" />
    <glyph glyph-name="aacute" unicode="&#xe1;" 
d="M1206 1434h286v-1433h-286v876l-858 -600v-276h-287v434l1145 799v200zM419 1434l200 -286h-558v286h358z" />
    <glyph glyph-name="acircumflex" unicode="&#xe2;" 
d="M1206 1434h286v-1433h-286v876l-858 -600v-276h-287v434l1145 799v200zM576 1434l200 -286h-715l201 286h314z" />
    <glyph glyph-name="atilde" unicode="&#xe3;" 
d="M1206 1434h286v-1433h-286v876l-858 -600v-276h-287v434l1145 799v200zM776 1148h-286v286h286v-286zM337 1148h-75l-201 286h276v-286z" />
    <glyph glyph-name="adieresis" unicode="&#xe4;" 
d="M1206 1434h286v-1433h-286v876l-858 -600v-276h-287v434l1145 799v200zM347 1148h-286v286h286v-286zM776 1148h-286v286h286v-286z" />
    <glyph glyph-name="aring" unicode="&#xe5;" 
d="M1206 1434h286v-1433h-286v876l-858 -600v-276h-287v434l1145 799v200zM347 861h-286v573h286v-573z" />
    <glyph glyph-name="ae" unicode="&#xe6;" horiz-adv-x="2699" 
d="M2636 573h-672l-200 -286h872v-286h-1430v876l-858 -600v-276h-287v434l1145 799v200h286v-1024l715 1024h358l-401 -574h472v-287z" />
    <glyph glyph-name="ccedilla" unicode="&#xe7;" horiz-adv-x="1482" 
d="M419 1434l1001 -1433h-357l-715 1024v-1024h-287v1433h358zM662 -415l-200 286h558v-286h-358z" />
    <glyph glyph-name="egrave" unicode="&#xe8;" 
d="M1492 573h-673l-200 -286h873v-286h-1431l1002 1433h357l-400 -574h472v-287zM619 1434v-286h-558l201 286h357z" />
    <glyph glyph-name="eacute" unicode="&#xe9;" 
d="M1492 573h-673l-200 -286h873v-286h-1431l1002 1433h357l-400 -574h472v-287zM419 1434l200 -286h-558v286h358z" />
    <glyph glyph-name="ecircumflex" unicode="&#xea;" 
d="M1492 573h-673l-200 -286h873v-286h-1431l1002 1433h357l-400 -574h472v-287zM576 1434l200 -286h-715l201 286h314z" />
    <glyph glyph-name="edieresis" unicode="&#xeb;" 
d="M1492 573h-673l-200 -286h873v-286h-1431l1002 1433h357l-400 -574h472v-287zM347 1148h-286v286h286v-286zM776 1148h-286v286h286v-286z" />
    <glyph glyph-name="igrave" unicode="&#xec;" horiz-adv-x="1482" 
d="M348 1h-287v286h287v-286zM61 1434h358l1001 -1433h-357zM1063 1434h357v-286h-557z" />
    <glyph glyph-name="iacute" unicode="&#xed;" horiz-adv-x="1482" 
d="M348 1h-287v286h287v-286zM61 1434h358l1001 -1433h-357zM1220 1434l200 -286h-557v286h357z" />
    <glyph glyph-name="icircumflex" unicode="&#xee;" horiz-adv-x="1482" 
d="M348 1h-287v286h287v-286zM61 1434h358l1001 -1433h-357zM1220 1434l200 -286h-714l200 286h314z" />
    <glyph glyph-name="idieresis" unicode="&#xef;" horiz-adv-x="1482" 
d="M348 1h-287v286h287v-286zM61 1434h358l1001 -1433h-357zM992 1148h-286v286h286v-286zM1420 1148h-285v286h285v-286z" />
    <glyph glyph-name="eth" unicode="&#xf0;" 
d="M634 1434h858v-1434h-858v287h572v860h-572v287zM348 1434v-573h143v-286h-143v-575h-287v1434h287zM920 575h-286v286h286v-286z" />
    <glyph glyph-name="ntilde" unicode="&#xf1;" 
d="M1206 287v574h286v-860h-858v286h572zM634 574v573h-286v-1146h-287v1433h660l199 -286v-574h-286zM1492 1148h-286v286h286v-286z" />
    <glyph glyph-name="ograve" unicode="&#xf2;" horiz-adv-x="1841" 
d="M777 1434l801 -1147h200v-286h-1717v286h1159l-601 860h-558v287h716zM1421 1434h357v-286h-557z" />
    <glyph glyph-name="oacute" unicode="&#xf3;" horiz-adv-x="1841" 
d="M777 1434l801 -1147h200v-286h-1717v286h1159l-601 860h-558v287h716zM1578 1434l200 -286h-557v286h357z" />
    <glyph glyph-name="ocircumflex" unicode="&#xf4;" horiz-adv-x="1841" 
d="M777 1434l801 -1147h200v-286h-1717v286h1159l-601 860h-558v287h716zM1578 1434l200 -286h-715l200 286h315z" />
    <glyph glyph-name="otilde" unicode="&#xf5;" horiz-adv-x="1841" 
d="M777 1434l801 -1147h200v-286h-1717v286h1159l-601 860h-558v287h716zM1778 1148h-286v286h286v-286zM1339 1148h-76l-200 286h276v-286z" />
    <glyph glyph-name="odieresis" unicode="&#xf6;" horiz-adv-x="1841" 
d="M777 1434l801 -1147h200v-286h-1717v286h1159l-601 860h-558v287h716zM1349 1148h-286v286h286v-286zM1778 1148h-286v286h286v-286z" />
    <glyph glyph-name="divide" unicode="&#xf7;" horiz-adv-x="1482" 
d="M258 1151h358l603 -863l-354 -6zM61 287l204 286h357l-200 -286h-361zM1419 1147l-203 -287h-357l200 287h360z" />
    <glyph glyph-name="oslash" unicode="&#xf8;" horiz-adv-x="1841" 
d="M777 1434l801 -1147h200v-286h-1717v286h1159l-601 860h-558v287h716zM1778 1434l-275 -394h-357l275 394h357z" />
    <glyph glyph-name="ugrave" unicode="&#xf9;" 
d="M1206 1434h286v-1433h-821l-610 425v1008h287v-850l425 -297h433v1147zM1055 1434v-286h-557l200 286h357z" />
    <glyph glyph-name="uacute" unicode="&#xfa;" 
d="M1206 1434h286v-1433h-821l-610 425v1008h287v-850l425 -297h433v1147zM855 1434l200 -286h-557v286h357z" />
    <glyph glyph-name="ucircumflex" unicode="&#xfb;" 
d="M1206 1434h286v-1434h-821l-610 426v1008h287v-850l425 -297h433v1147zM934 1434l200 -287h-715l200 287h315z" />
    <glyph glyph-name="udieresis" unicode="&#xfc;" 
d="M1206 1434h286v-1434h-821l-610 426v1008h287v-850l425 -297h433v1147zM705 1147h-286v287h286v-287zM1134 1147h-286v287h286v-287z" />
    <glyph glyph-name="yacute" unicode="&#xfd;" 
d="M920 575h-572h-287v859h287v-573h572v-286zM1206 1434h286v-1434h-1431v287h1145v1147zM855 1434l200 -287h-557v287h357z" />
    <glyph glyph-name="thorn" unicode="&#xfe;" 
d="M348 1147h1144v-859h-286v572h-587l400 -572h-357l-314 450v-738h-287v1434h287v-287z" />
    <glyph glyph-name="ydieresis" unicode="&#xff;" 
d="M920 575h-859v859h287v-573h572v-286zM1206 1434h286v-1434h-1431v287h1145v1147zM705 1147h-286v287h286v-287zM1134 1147h-286v287h286v-287z" />
    <glyph glyph-name="dotlessi" unicode="&#x131;" horiz-adv-x="409" 
d="M348 0h-287v1434h287v-1434z" />
    <glyph glyph-name="Lslash" unicode="&#x141;" 
d="M348 1147h-287v287h287v-287zM348 0h-287v287h287v-287zM634 1434h858v-1434h-858v287h572v860h-572v287zM336 914h358l-275 -394h-358z" />
    <glyph glyph-name="lslash" unicode="&#x142;" 
d="M348 1147h-287v287h287v-287zM348 0h-287v287h287v-287zM634 1434h858v-1434h-858v287h572v860h-572v287zM336 914h358l-275 -394h-358z" />
    <glyph glyph-name="OE" unicode="&#x152;" horiz-adv-x="2885" 
d="M1678 1147h-286v287h286v-287zM2822 573h-672l-200 -286h872v-287h-2761v287h1159l-601 860h-558v287h716l801 -1147h14l801 1147h358l-401 -574h472v-287z" />
    <glyph glyph-name="oe" unicode="&#x153;" horiz-adv-x="2885" 
d="M1678 1147h-286v287h286v-287zM2822 573h-672l-200 -286h872v-286h-2761v286h1159l-601 860h-558v287h716l801 -1147h14l801 1147h358l-401 -574h472v-287z" />
    <glyph glyph-name="Scaron" unicode="&#x160;" 
d="M348 0h-287v287h287v-287zM61 1434h358l1001 -1434h-357zM777 1434h715v-860h-286v573h-229z" />
    <glyph glyph-name="scaron" unicode="&#x161;" 
d="M348 0h-287v287h287v-287zM61 1434h358l1001 -1434h-357zM777 1434h715v-859h-286v572h-229z" />
    <glyph glyph-name="Ydieresis" unicode="&#x178;" 
d="M920 574h-572h-287v860h287v-573h572v-287zM1206 1434h286v-1434h-1431v287h1145v1147zM705 1147h-286v287h286v-287zM1134 1147h-286v287h286v-287z" />
    <glyph glyph-name="Zcaron" unicode="&#x17d;" 
d="M133 1434h358l1001 -1434h-1431v859h287v-572h586zM1292 1147h-315l-200 287h715z" />
    <glyph glyph-name="zcaron" unicode="&#x17e;" 
d="M133 1434h358l1001 -1434h-1431v859h287v-572h586zM1292 1147h-315l-200 287h715z" />
    <glyph glyph-name="circumflex" unicode="&#x2c6;" horiz-adv-x="837" 
d="M576 1434l200 -287h-715l201 287h314z" />
    <glyph glyph-name="caron" unicode="&#x2c7;" horiz-adv-x="837" 
d="M61 1434h715l-200 -287h-314z" />
    <glyph glyph-name="ilde" unicode="&#x2dc;" horiz-adv-x="837" 
d="M776 1147h-286v287h286v-287zM262 1147l-201 287h276v-287h-75z" />
    <glyph glyph-name="endash" unicode="&#x2013;" horiz-adv-x="573" 
d="M511 376h-450v287h450v-287z" />
    <glyph glyph-name="emdash" unicode="&#x2014;" horiz-adv-x="1017" 
d="M956 376h-895v287h895v-287z" />
    <glyph glyph-name="quoteleft" unicode="&#x2018;" horiz-adv-x="681" 
d="M419 1147l200 -286h-558v573h286v-287h72z" />
    <glyph glyph-name="quoteright" unicode="&#x2019;" horiz-adv-x="681" 
d="M61 1434h558v-573h-286v286h-71z" />
    <glyph glyph-name="quotesinglbase" unicode="&#x201a;" horiz-adv-x="681" 
d="M333 1434h286v-1434h-558l201 287h71v1147z" />
    <glyph glyph-name="quoteleftreversed" unicode="&#x201b;" horiz-adv-x="681" 
d="M419 1434l200 -287h-357l-201 287h358z" />
    <glyph glyph-name="quotedblleft" unicode="&#x201c;" horiz-adv-x="681" 
d="M619 1434l-200 -287l200 -286h-558v573h558z" />
    <glyph glyph-name="quotedblright" unicode="&#x201d;" horiz-adv-x="681" 
d="M61 1434h558v-573h-558l201 286z" />
    <glyph glyph-name="quotedblbase" unicode="&#x201e;" horiz-adv-x="768" 
d="M419 1434h286v-1434h-443l-201 287h358v1147z" />
    <glyph glyph-name="dagger" unicode="&#x2020;" horiz-adv-x="952" 
d="M619 979h271l-200 -287h-71v-1108h-286v1108h-272l201 287h71v455h286v-455z" />
    <glyph glyph-name="daggerdbl" unicode="&#x2021;" horiz-adv-x="952" 
d="M619 238h71l200 -287h-271v-367h-286v367h-71l-201 287h272v573h-272l201 286h71v337h286v-337h271l-200 -286h-71v-573z" />
    <glyph glyph-name="bullet" unicode="&#x2022;" horiz-adv-x="573" 
d="M225 1434h286v-1434h-286v573h-164v287h164v574z" />
    <glyph glyph-name="ellipsis" unicode="&#x2026;" horiz-adv-x="1343" 
d="M347 0h-286v287h286v-287zM814 0h-286v287h286v-287zM1280 0h-286v287h286v-287z" />
    <glyph glyph-name="perthousand" unicode="&#x2030;" horiz-adv-x="2011" 
d="M1062 1434h357l-1000 -1433h-358zM859 574h357l203 -287h-360zM1744 574l204 -287h-361l-200 287h357zM622 861h-357l-204 286h361z" />
    <glyph glyph-name="guilsinglleft" unicode="&#x2039;" horiz-adv-x="880" 
d="M462 573h357l-400 -573h-358z" />
    <glyph glyph-name="guilsinglright" unicode="&#x203a;" horiz-adv-x="880" 
d="M419 573l400 -573h-357l-401 573h358z" />
    <glyph glyph-name="fraction" unicode="&#x2044;" horiz-adv-x="1482" 
d="M1062 1434h357l-1000 -1433h-358z" />
    <glyph glyph-name="Euro" unicode="&#x20ac;" horiz-adv-x="1482" 
d="M419 1147h-358v287h358v-287zM1420 1434l-500 -717h500v-144h-600l-101 -143h701v-143h-801l-200 -287h-358l201 287h-201v143h301l100 143h-401v144h501l501 717h357z" />
    <glyph glyph-name="trademark" unicode="&#x2122;" horiz-adv-x="1124" 
d="M1062 717h-143v287h143v-287zM633 1434h429v-287h-143v143h-143v-573h-143v717zM491 1004h-143v430h143v-430zM204 1434v-574h287v-143h-430v717h143z" />
    <glyph glyph-name="minus" unicode="&#x2212;" horiz-adv-x="409" 
d="M348 574h-287v860h287v-860zM348 0h-287v287h287v-287z" />
  </font>
</defs>
</svg>
