<?xml version="1.0" standalone="no"?>
<svg>
<font id="Hypernovae-Relics" horiz-adv-x="67.5" >
<font-face units-per-em="100" ascent="80" descent="-20" />
<glyph unicode=" " horiz-adv-x="67.5" d="" />
<glyph unicode="!" horiz-adv-x="22.5" d="M11.25 33.6 C11.25 32.1504 11.25 30.7008 11.25 29.25119 C11.25 28.08699 11.25 26.9228 11.25 25.7586 C11.25 22.266 11.25 18.7734 11.25 15.2808 C11.25 10.18731 11.25 5.09382 11.25 0.00034 L-0 0.00034 C-0 1.60122 -0 3.20211 -0 4.803 C-0 8.2956 -0 11.7882 -0 15.2808 C-0 18.7734 -0 22.266 -0 25.7586 C-0 28.3724 -0 30.9862 -0 33.6 L11.25 33.6 zM11.25 56 C11.25 55.5168 11.25 55.0336 11.25 54.5504 C11.25 54.16233 11.25 53.77427 11.25 53.3862 C11.25 52.222 11.25 51.0578 11.25 49.8936 C11.25 48.19577 11.25 46.49794 11.25 44.80011 L-0 44.80011 C-0 45.33374 -0 45.86737 -0 46.401 C-0 47.5652 -0 48.7294 -0 49.8936 C-0 51.0578 -0 52.222 -0 53.3862 C-0 54.25747 -0 55.12873 -0 56 L11.25 56 z" />
<glyph unicode="&#x22;" horiz-adv-x="27.8" d="M11.2 22.5 C10.7168 22.5 10.2336 22.5 9.7504 22.5 C9.36233 22.5 8.97427 22.5 8.5862 22.5 C7.422 22.5 6.2578 22.5 5.0936 22.5 C3.39577 22.5 1.69794 22.5 0.00011 22.5 L0.00011 33.5 C0.53374 33.5 1.06737 33.5 1.601 33.5 C2.7652 33.5 3.9294 33.5 5.0936 33.5 C6.2578 33.5 7.422 33.5 8.5862 33.5 C9.45747 33.5 10.32873 33.5 11.2 33.5 L11.2 22.5 zM0 55.9 C0.7248 55.9 1.4496 55.9 2.1744 55.9 C2.7565 55.9 3.3386 55.9 3.9207 55.9 C5.667 55.9 7.4133 55.9 9.1596 55.9 C11.70634 55.9 14.25309 55.9 16.79983 55.9 L16.79983 44.9 C15.99939 44.9 15.19894 44.9 14.3985 44.9 C12.6522 44.9 10.9059 44.9 9.1596 44.9 C7.4133 44.9 5.667 44.9 3.9207 44.9 C2.6138 44.9 1.3069 44.9 0 44.9 L0 55.9 z" />
<glyph unicode="#" horiz-adv-x="67" d="M22.4 0.1 C21.9168 0.1 21.4336 0.1 20.9504 0.1 C20.56233 0.1 20.17427 0.1 19.7862 0.1 C18.622 0.1 17.4578 0.1 16.2936 0.1 C14.59577 0.1 12.89794 0.1 11.20011 0.1 L11.20011 11.1 C11.73374 11.1 12.26737 11.1 12.801 11.1 C13.9652 11.1 15.1294 11.1 16.2936 11.1 C17.4578 11.1 18.622 11.1 19.7862 11.1 C20.65747 11.1 21.52873 11.1 22.4 11.1 L22.4 0.1 zM44.8 0.1 C44.3168 0.1 43.8336 0.1 43.3504 0.1 C42.96233 0.1 42.57427 0.1 42.1862 0.1 C41.022 0.1 39.8578 0.1 38.6936 0.1 C36.99577 0.1 35.29794 0.1 33.60011 0.1 L33.60011 11.1 C34.13374 11.1 34.66737 11.1 35.201 11.1 C36.3652 11.1 37.5294 11.1 38.6936 11.1 C39.8578 11.1 41.022 11.1 42.1862 11.1 C43.05747 11.1 43.92873 11.1 44.8 11.1 L44.8 0.1 zM11.2 11.3 C10.7168 11.3 10.2336 11.3 9.7504 11.3 C9.36233 11.3 8.97427 11.3 8.5862 11.3 C7.422 11.3 6.2578 11.3 5.0936 11.3 C3.39577 11.3 1.69794 11.3 0.00011 11.3 L0.00011 22.3 C0.53374 22.3 1.06737 22.3 1.601 22.3 C2.7652 22.3 3.9294 22.3 5.0936 22.3 C6.2578 22.3 7.422 22.3 8.5862 22.3 C9.45747 22.3 10.32873 22.3 11.2 22.3 L11.2 11.3 zM33.6 11.3 C33.1168 11.3 32.6336 11.3 32.1504 11.3 C31.76233 11.3 31.37427 11.3 30.9862 11.3 C29.822 11.3 28.6578 11.3 27.4936 11.3 C25.79577 11.3 24.09794 11.3 22.40011 11.3 L22.40011 22.3 C22.93374 22.3 23.46737 22.3 24.001 22.3 C25.1652 22.3 26.3294 22.3 27.4936 22.3 C28.6578 22.3 29.822 22.3 30.9862 22.3 C31.85747 22.3 32.72873 22.3 33.6 22.3 L33.6 11.3 zM56 11.3 C55.5168 11.3 55.0336 11.3 54.5504 11.3 C54.16233 11.3 53.77427 11.3 53.3862 11.3 C52.222 11.3 51.0578 11.3 49.8936 11.3 C48.19577 11.3 46.49794 11.3 44.80011 11.3 L44.80011 22.3 C45.33374 22.3 45.86737 22.3 46.401 22.3 C47.5652 22.3 48.7294 22.3 49.8936 22.3 C51.0578 22.3 52.222 22.3 53.3862 22.3 C54.25747 22.3 55.12873 22.3 56 22.3 L56 11.3 zM22.4 22.5 C21.9168 22.5 21.4336 22.5 20.9504 22.5 C20.56233 22.5 20.17427 22.5 19.7862 22.5 C18.622 22.5 17.4578 22.5 16.2936 22.5 C14.59577 22.5 12.89794 22.5 11.20011 22.5 L11.20011 33.5 C11.73374 33.5 12.26737 33.5 12.801 33.5 C13.9652 33.5 15.1294 33.5 16.2936 33.5 C17.4578 33.5 18.622 33.5 19.7862 33.5 C20.65747 33.5 21.52873 33.5 22.4 33.5 L22.4 22.5 zM44.8 22.5 C44.3168 22.5 43.8336 22.5 43.3504 22.5 C42.96233 22.5 42.57427 22.5 42.1862 22.5 C41.022 22.5 39.8578 22.5 38.6936 22.5 C36.99577 22.5 35.29794 22.5 33.60011 22.5 L33.60011 33.5 C34.13374 33.5 34.66737 33.5 35.201 33.5 C36.3652 33.5 37.5294 33.5 38.6936 33.5 C39.8578 33.5 41.022 33.5 42.1862 33.5 C43.05747 33.5 43.92873 33.5 44.8 33.5 L44.8 22.5 zM0 44.7 C0.4832 44.7 0.9664 44.7 1.4496 44.7 C1.83767 44.7 2.22573 44.7 2.6138 44.7 C3.778 44.7 4.9422 44.7 6.1064 44.7 C7.80423 44.7 9.50206 44.7 11.19989 44.7 L11.19989 33.7 C10.66626 33.7 10.13263 33.7 9.599 33.7 C8.4348 33.7 7.2706 33.7 6.1064 33.7 C4.9422 33.7 3.778 33.7 2.6138 33.7 C2.41315 33.7 0.01363 33.7 0 33.7 L0 44.7 zM33.6 33.7 C33.1168 33.7 32.6336 33.7 32.1504 33.7 C31.76233 33.7 31.37427 33.7 30.9862 33.7 C29.822 33.7 28.6578 33.7 27.4936 33.7 C25.79577 33.7 24.09794 33.7 22.40011 33.7 L22.40011 44.7 C22.93374 44.7 23.46737 44.7 24.001 44.7 C25.1652 44.7 26.3294 44.7 27.4936 44.7 C28.6578 44.7 29.822 44.7 30.9862 44.7 C31.85747 44.7 32.72873 44.7 33.6 44.7 L33.6 33.7 zM56 33.7 C55.5168 33.7 55.0336 33.7 54.5504 33.7 C54.16233 33.7 53.77427 33.7 53.3862 33.7 C52.222 33.7 51.0578 33.7 49.8936 33.7 C48.19577 33.7 46.49794 33.7 44.80011 33.7 L44.80011 44.7 C45.33374 44.7 45.86737 44.7 46.401 44.7 C47.5652 44.7 48.7294 44.7 49.8936 44.7 C51.0578 44.7 52.222 44.7 53.3862 44.7 C54.25747 44.7 55.12873 44.7 56 44.7 L56 33.7 zM22.4 44.9 C21.9168 44.9 21.4336 44.9 20.9504 44.9 C20.56233 44.9 20.17427 44.9 19.7862 44.9 C18.622 44.9 17.4578 44.9 16.2936 44.9 C14.59577 44.9 12.89794 44.9 11.20011 44.9 L11.20011 55.9 C11.73374 55.9 12.26737 55.9 12.801 55.9 C13.9652 55.9 15.1294 55.9 16.2936 55.9 C17.4578 55.9 18.622 55.9 19.7862 55.9 C20.65747 55.9 21.52873 55.9 22.4 55.9 L22.4 44.9 zM44.8 44.9 C44.3168 44.9 43.8336 44.9 43.3504 44.9 C42.96233 44.9 42.57427 44.9 42.1862 44.9 C41.022 44.9 39.8578 44.9 38.6936 44.9 C36.99577 44.9 35.29794 44.9 33.60011 44.9 L33.60011 55.9 C34.13374 55.9 34.66737 55.9 35.201 55.9 C36.3652 55.9 37.5294 55.9 38.6936 55.9 C39.8578 55.9 41.022 55.9 42.1862 55.9 C43.05747 55.9 43.92873 55.9 44.8 55.9 L44.8 44.9 z" />
<glyph unicode="$" horiz-adv-x="67" d="M19.07817 11.1 C19.14248 11.1 19.20679 11.1 19.2711 11.1 C19.46513 11.1 19.65917 11.1 19.8532 11.1 C21.5734 11.1 23.2936 11.1 25.0138 11.1 C26.178 11.1 27.3422 11.1 28.5064 11.1 C30.20423 11.1 31.90206 11.1 33.59989 11.1 L33.59989 0.1 C33.06626 0.1 32.53263 0.1 31.999 0.1 C30.8348 0.1 29.6706 0.1 28.5064 0.1 C27.3422 0.1 26.178 0.1 25.0138 0.1 C23.2936 0.1 21.5734 0.1 19.8532 0.1 C19.2711 0.1 18.689 0.1 18.1069 0.1 C16.91188 0.1 15.71685 0.1 14.52183 0.1 C13.98482 0.63701 13.44781 1.17402 12.9108 1.71102 C11.21297 3.40885 9.51514 5.10668 7.81731 6.80451 C6.65311 7.96871 5.48891 9.13291 4.32471 10.29711 C3.45345 11.16838 2.3237 11.84194 1.71091 12.91091 C1.01305 14.12829 0.44811 15.44081 0.1 16.80017 C-0.09857 17.57559 0.1 18.40106 0.1 19.2015 C0.1 20.9478 0.1 22.6941 0.1 24.4404 C0.1 26.1867 0.1 27.933 0.1 29.6793 C0.1 30.9862 0.1 32.2931 0.1 33.6 C3.76667 33.6 7.43333 33.6 11.1 33.6 C11.1 32.8752 11.1 32.1504 11.1 31.4256 C11.1 30.8435 11.1 30.2614 11.1 29.6793 C11.1 27.933 11.1 26.1867 11.1 24.4404 C11.1 22.65299 11.1 20.86558 11.1 19.07817 C11.4343 18.74388 11.76859 18.40958 12.10289 18.07529 C13.26709 16.91109 14.43129 15.74689 15.59549 14.58269 C16.37162 13.80655 17.14775 13.03042 17.92389 12.25429 C18.30865 11.86952 18.69341 11.48476 19.07817 11.1 zM56 0.1 C55.5168 0.1 55.0336 0.1 54.5504 0.1 C54.16233 0.1 53.77427 0.1 53.3862 0.1 C52.222 0.1 51.0578 0.1 49.8936 0.1 C48.19577 0.1 46.49794 0.1 44.80011 0.1 L44.80011 11.1 C45.33374 11.1 45.86737 11.1 46.401 11.1 C47.5652 11.1 48.7294 11.1 49.8936 11.1 C51.0578 11.1 52.222 11.1 53.3862 11.1 C54.25747 11.1 55.12873 11.1 56 11.1 L56 0.1 zM0 55.9 C0.4832 55.9 0.9664 55.9 1.4496 55.9 C1.83767 55.9 2.22573 55.9 2.6138 55.9 C3.778 55.9 4.9422 55.9 6.1064 55.9 C7.80423 55.9 9.50206 55.9 11.19989 55.9 L11.19989 44.9 C10.66626 44.9 10.13263 44.9 9.599 44.9 C8.4348 44.9 7.2706 44.9 6.1064 44.9 C4.9422 44.9 3.778 44.9 2.6138 44.9 C1.74253 44.9 0.87127 44.9 0 44.9 L0 55.9 zM36.92183 44.9 C36.51119 44.9 35.82681 44.9 35.2793 44.9 C33.533 44.9 31.7867 44.9 30.0404 44.9 C27.49366 44.9 24.94691 44.9 22.40017 44.9 C22.40017 48.56667 22.40017 52.23333 22.40017 55.9 C23.20061 55.9 24.00106 55.9 24.8015 55.9 C26.5478 55.9 28.2941 55.9 30.0404 55.9 C31.7867 55.9 33.533 55.9 35.2793 55.9 C36.5862 55.9 37.93692 56.23559 39.2 55.9 C40.55617 55.53968 41.87803 54.99756 43.0892 54.28898 C43.74058 53.90789 44.15646 53.22172 44.69009 52.68809 C45.85429 51.52389 47.01849 50.35969 48.18269 49.19549 C49.34689 48.03129 50.51109 46.86709 51.67529 45.70289 C52.54655 44.83162 53.6763 44.15806 54.28909 43.08909 C54.98695 41.87171 55.55189 40.55919 55.9 39.19983 C56.09857 38.42441 55.9 37.59894 55.9 36.7985 C55.9 35.0522 55.9 33.3059 55.9 31.5596 C55.9 29.8133 55.9 28.067 55.9 26.3207 C55.9 25.0138 55.9 23.7069 55.9 22.4 L44.9 22.4 C44.9 23.1248 44.9 23.8496 44.9 24.5744 C44.9 25.1565 44.9 25.7386 44.9 26.3207 C44.9 28.067 44.9 29.8133 44.9 31.5596 C44.9 33.34701 44.9 35.13442 44.9 36.92183 C44.64928 37.17255 44.23141 37.59042 43.89711 37.92471 C42.73291 39.08891 41.56871 40.25311 40.40451 41.41731 C39.62838 42.19345 38.85225 42.96958 38.07611 43.74571 C37.69135 44.13048 37.30659 44.51524 36.92183 44.9 zM33.6 22.5 C33.1168 22.5 32.6336 22.5 32.1504 22.5 C31.76233 22.5 31.37427 22.5 30.9862 22.5 C29.822 22.5 28.6578 22.5 27.4936 22.5 C25.79577 22.5 24.09794 22.5 22.40011 22.5 L22.40011 33.5 C22.93374 33.5 23.46737 33.5 24.001 33.5 C25.1652 33.5 26.3294 33.5 27.4936 33.5 C28.6578 33.5 29.822 33.5 30.9862 33.5 C31.85747 33.5 32.72873 33.5 33.6 33.5 L33.6 22.5 z" />
<glyph unicode="%" horiz-adv-x="67" d="M22.5 47.07817 C22.5 47.16208 22.5 47.30193 22.5 47.4138 C22.5 48.578 22.5 49.7422 22.5 50.9064 C22.5 52.60423 22.5 54.30206 22.5 55.99989 C26.16667 55.99989 29.83333 55.99989 33.5 55.99989 C33.5 55.46626 33.5 54.93263 33.5 54.399 C33.5 53.2348 33.5 52.0706 33.5 50.9064 C33.5 49.7422 33.5 48.578 33.5 47.4138 C33.5 45.78314 33.5 44.15248 33.5 42.52183 C32.96297 41.9848 32.42595 41.44777 31.88892 40.91074 C29.34218 38.364 26.79543 35.81726 24.24869 33.27051 C22.50239 31.52421 20.75609 29.77791 19.00979 28.03162 C17.70289 26.72471 16.6569 25.08965 15.08909 24.11091 C13.89878 23.36784 12.54633 22.89508 11.19989 22.5 C10.68785 22.34976 10.13263 22.5 9.599 22.5 C8.4348 22.5 7.2706 22.5 6.1064 22.5 C4.9422 22.5 3.778 22.5 2.6138 22.5 C2.41315 22.5 0.01363 22.5 0 22.5 L0 33.5 C0.4832 33.5 0.9664 33.5 1.4496 33.5 C1.83767 33.5 2.22573 33.5 2.6138 33.5 C3.778 33.5 4.9422 33.5 6.1064 33.5 C7.04488 33.5 7.98335 33.5 8.92183 33.5 C9.69176 34.26993 10.46169 35.03986 11.23162 35.80979 C12.97791 37.55609 14.72421 39.30239 16.47051 41.04869 C18.21681 42.79499 19.96311 44.54129 21.70941 46.28759 C21.97294 46.55112 22.23647 46.81465 22.5 47.07817 zM33.5 8.92183 C33.5 8.80995 33.5 8.69807 33.5 8.5862 C33.5 7.422 33.5 6.2578 33.5 5.0936 C33.5 3.39577 33.5 1.69794 33.5 0.00011 L22.5 0.00011 C22.5 0.53374 22.5 1.06737 22.5 1.601 C22.5 2.7652 22.5 3.9294 22.5 5.0936 C22.5 6.2578 22.5 7.422 22.5 8.5862 C22.5 11.22522 22.394 12.39724 24.11108 15.08926 C24.71983 16.04364 25.71197 16.69014 26.51241 17.49059 C28.25871 19.23689 30.00501 20.98319 31.75131 22.72949 C33.49761 24.47579 35.24391 26.22209 36.99021 27.96838 C38.29711 29.27529 39.3431 30.91035 40.91091 31.88909 C42.10122 32.63216 43.45367 33.10492 44.80011 33.5 C45.31215 33.65024 45.86737 33.5 46.401 33.5 C47.5652 33.5 48.7294 33.5 49.8936 33.5 C51.0578 33.5 52.222 33.5 53.3862 33.5 C54.25747 33.5 55.12873 33.5 56 33.5 C56 29.83333 56 26.16667 56 22.5 C55.5168 22.5 55.0336 22.5 54.5504 22.5 C54.16233 22.5 53.77427 22.5 53.3862 22.5 C52.222 22.5 51.0578 22.5 49.8936 22.5 C48.95512 22.5 48.01665 22.5 47.07817 22.5 C46.30824 21.73007 45.53831 20.96014 44.76838 20.19021 C43.02209 18.44391 41.27579 16.69761 39.52949 14.95131 C37.78319 13.20501 36.03689 11.45871 34.29059 9.71241 C34.02706 9.44888 33.76353 9.18535 33.5 8.92183 zM56 0.1 C55.5168 0.1 55.0336 0.1 54.5504 0.1 C54.16233 0.1 53.77427 0.1 53.3862 0.1 C52.222 0.1 51.0578 0.1 49.8936 0.1 C48.19577 0.1 46.49794 0.1 44.80011 0.1 L44.80011 11.1 C45.33374 11.1 45.86737 11.1 46.401 11.1 C47.5652 11.1 48.7294 11.1 49.8936 11.1 C51.0578 11.1 52.222 11.1 53.3862 11.1 C54.25747 11.1 55.12873 11.1 56 11.1 L56 0.1 zM0 55.9 C0.4832 55.9 0.9664 55.9 1.4496 55.9 C1.83767 55.9 2.22573 55.9 2.6138 55.9 C3.778 55.9 4.9422 55.9 6.1064 55.9 C7.80423 55.9 9.50206 55.9 11.19989 55.9 L11.19989 44.9 C10.66626 44.9 10.13263 44.9 9.599 44.9 C8.4348 44.9 7.2706 44.9 6.1064 44.9 C4.9422 44.9 3.778 44.9 2.6138 44.9 C2.41315 44.9 0.01363 44.9 0 44.9 L0 55.9 z" />
<glyph unicode="&#x26;" horiz-adv-x="67.25" d="M11.225 33.6 C11.225 32.1504 11.225 30.7008 11.225 29.25119 C11.225 28.08699 11.225 26.9228 11.225 25.7586 C11.225 22.266 11.225 18.7734 11.225 15.2808 C11.225 10.18731 11.225 5.09382 11.225 0.00034 L-0.025 0.00034 C-0.025 1.60122 -0.025 3.20211 -0.025 4.803 C-0.025 8.2956 -0.025 11.7882 -0.025 15.2808 C-0.025 18.7734 -0.025 22.266 -0.025 25.7586 C-0.025 28.3724 -0.025 30.9862 -0.025 33.6 L11.225 33.6 zM0 33.625 C1.4496 33.625 2.8992 33.625 4.34881 33.625 C5.51301 33.625 6.6772 33.625 7.8414 33.625 C11.334 33.625 14.8266 33.625 18.3192 33.625 C23.41269 33.625 28.50618 33.625 33.59966 33.625 L33.59966 22.375 C31.99878 22.375 30.39789 22.375 28.797 22.375 C25.3044 22.375 21.8118 22.375 18.3192 22.375 C14.8266 22.375 11.334 22.375 7.8414 22.375 C5.2276 22.375 2.6138 22.375 0 22.375 L0 33.625 zM22.375 22.4 C22.375 23.8496 22.375 25.2992 22.375 26.74881 C22.375 27.91301 22.375 29.0772 22.375 30.2414 C22.375 33.734 22.375 37.2266 22.375 40.7192 C22.375 45.81269 22.375 50.90618 22.375 55.99966 L33.625 55.99966 C33.625 54.39878 33.625 52.79789 33.625 51.197 C33.625 47.7044 33.625 44.2118 33.625 40.7192 C33.625 37.2266 33.625 33.734 33.625 30.2414 C33.625 27.6276 33.625 25.0138 33.625 22.4 L22.375 22.4 zM56 44.775 C54.5504 44.775 53.1008 44.775 51.65119 44.775 C50.48699 44.775 49.3228 44.775 48.1586 44.775 C44.666 44.775 41.1734 44.775 37.6808 44.775 C32.58731 44.775 27.49382 44.775 22.40034 44.775 L22.40034 56.025 C24.00122 56.025 25.60211 56.025 27.203 56.025 C30.6956 56.025 34.1882 56.025 37.6808 56.025 C41.1734 56.025 44.666 56.025 48.1586 56.025 C49.3228 56.025 50.48699 56.025 51.65119 56.025 C53.1008 56.025 54.5504 56.025 56 56.025 L56 44.775 zM31.97748 31.97748 C32.94388 31.01107 33.91028 30.04467 34.87668 29.07827 C35.65281 28.30214 36.42895 27.52601 37.20508 26.74987 C39.53348 24.42147 41.86188 22.09307 44.19028 19.76467 C47.58594 16.36902 50.98159 12.97336 54.37725 9.5777 L46.4223 1.62275 C45.35504 2.69001 44.28778 3.75727 43.22052 4.82452 C40.89213 7.15292 38.56373 9.48132 36.23533 11.80972 C33.90693 14.13812 31.57853 16.46652 29.25013 18.79492 C27.50759 20.53746 25.76506 22.27999 24.02252 24.02252 L31.97748 31.97748 zM0 56.025 C0.4832 56.025 0.9664 56.025 1.4496 56.025 C1.83767 56.025 2.22573 56.025 2.6138 56.025 C3.778 56.025 4.9422 56.025 6.1064 56.025 C7.80423 56.025 9.50206 56.025 11.19989 56.025 L11.19989 44.775 C10.66626 44.775 10.13263 44.775 9.599 44.775 C8.4348 44.775 7.2706 44.775 6.1064 44.775 C4.9422 44.775 3.778 44.775 2.6138 44.775 C2.22573 44.775 1.83767 44.775 1.4496 44.775 C0.9664 44.775 0.4832 44.775 0 44.775 L0 56.025 z" />
<glyph unicode="'" horiz-adv-x="28.05" d="M0 56.025 C0.7248 56.025 1.4496 56.025 2.1744 56.025 C2.7565 56.025 3.3386 56.025 3.9207 56.025 C5.667 56.025 7.4133 56.025 9.1596 56.025 C11.70634 56.025 14.25309 56.025 16.79983 56.025 L16.79983 44.775 C15.99939 44.775 15.19894 44.775 14.3985 44.775 C12.6522 44.775 10.9059 44.775 9.1596 44.775 C7.4133 44.775 5.667 44.775 3.9207 44.775 C2.6138 44.775 1.3069 44.775 0 44.775 L0 56.025 z" />
<glyph unicode="(" horiz-adv-x="33.65" d="M-0.025 0 C-0.025 2.416 -0.025 4.83201 -0.025 7.24801 C-0.025 9.18834 -0.025 11.12867 -0.025 13.06901 C-0.025 18.89001 -0.025 24.71101 -0.025 30.532 C-0.025 39.02115 -0.025 47.51029 -0.025 55.99944 L11.225 55.99944 C11.225 53.33129 11.225 50.66315 11.225 47.995 C11.225 42.174 11.225 36.353 11.225 30.532 C11.225 24.71101 11.225 18.89001 11.225 13.06901 C11.225 8.71267 11.225 4.35634 11.225 0 L-0.025 0 zM0 11.225 C0.9664 11.225 1.9328 11.225 2.8992 11.225 C3.67534 11.225 4.45147 11.225 5.2276 11.225 C7.556 11.225 9.8844 11.225 12.2128 11.225 C15.60846 11.225 19.00412 11.225 22.39978 11.225 L22.39978 -0.025 C21.33252 -0.025 20.26526 -0.025 19.198 -0.025 C16.8696 -0.025 14.5412 -0.025 12.2128 -0.025 C9.8844 -0.025 7.556 -0.025 5.2276 -0.025 C3.48507 -0.025 1.74253 -0.025 0 -0.025 L0 11.225 z" />
<glyph unicode=")" horiz-adv-x="33.65" d="M11.175 0 C11.175 2.416 11.175 4.83201 11.175 7.24801 C11.175 9.18834 11.175 11.12867 11.175 13.06901 C11.175 18.89001 11.175 24.71101 11.175 30.532 C11.175 39.02115 11.175 47.51029 11.175 55.99944 L22.425 55.99944 C22.425 53.33129 22.425 50.66315 22.425 47.995 C22.425 42.174 22.425 36.353 22.425 30.532 C22.425 24.71101 22.425 18.89001 22.425 13.06901 C22.425 8.71267 22.425 4.35634 22.425 0 L11.175 0 zM-0 11.225 C0.9664 11.225 1.9328 11.225 2.8992 11.225 C3.67534 11.225 4.45147 11.225 5.2276 11.225 C7.556 11.225 9.8844 11.225 12.2128 11.225 C15.60846 11.225 19.00412 11.225 22.39978 11.225 L22.39978 -0.025 C21.33252 -0.025 20.26526 -0.025 19.198 -0.025 C16.8696 -0.025 14.5412 -0.025 12.2128 -0.025 C9.8844 -0.025 7.556 -0.025 5.2276 -0.025 C3.48507 -0.025 1.74253 -0.025 0 -0.025 L0 11.225 z" />
<glyph unicode="*" horiz-adv-x="44.85" d="M11.2 33.575 C10.7168 33.575 10.2336 33.575 9.7504 33.575 C9.36233 33.575 8.97427 33.575 8.5862 33.575 C7.422 33.575 6.2578 33.575 5.0936 33.575 C3.39577 33.575 1.69794 33.575 0.00011 33.575 L0.00011 44.825 C0.53374 44.825 1.06737 44.825 1.601 44.825 C2.7652 44.825 3.9294 44.825 5.0936 44.825 C6.2578 44.825 7.422 44.825 8.5862 44.825 C9.45747 44.825 10.32873 44.825 11.2 44.825 L11.2 33.575 zM33.6 33.575 C33.1168 33.575 32.6336 33.575 32.1504 33.575 C31.76233 33.575 31.37427 33.575 30.9862 33.575 C29.822 33.575 28.6578 33.575 27.4936 33.575 C25.79577 33.575 24.09794 33.575 22.40011 33.575 L22.40011 44.825 C22.93374 44.825 23.46737 44.825 24.001 44.825 C25.1652 44.825 26.3294 44.825 27.4936 44.825 C28.6578 44.825 29.822 44.825 30.9862 44.825 C31.85747 44.825 32.72873 44.825 33.6 44.825 L33.6 33.575 zM0 22.425 C0.4832 22.425 0.9664 22.425 1.4496 22.425 C1.83767 22.425 2.22573 22.425 2.6138 22.425 C3.778 22.425 4.9422 22.425 6.1064 22.425 C7.80423 22.425 9.50206 22.425 11.19989 22.425 L11.19989 11.175 C10.66626 11.175 10.13263 11.175 9.599 11.175 C8.4348 11.175 7.2706 11.175 6.1064 11.175 C4.9422 11.175 3.778 11.175 2.6138 11.175 C1.74253 11.175 0.87127 11.175 -0 11.175 L-0 22.425 zM33.6 11.175 C33.1168 11.175 32.6336 11.175 32.1504 11.175 C31.76233 11.175 31.37427 11.175 30.9862 11.175 C29.822 11.175 28.6578 11.175 27.4936 11.175 C25.79577 11.175 24.09794 11.175 22.40011 11.175 L22.40011 22.425 C22.93374 22.425 23.46737 22.425 24.001 22.425 C25.1652 22.425 26.3294 22.425 27.4936 22.425 C28.6578 22.425 29.822 22.425 30.9862 22.425 C31.85747 22.425 32.72873 22.425 33.6 22.425 L33.6 11.175 z" />
<glyph unicode="+" horiz-adv-x="44.85" d="M22.425 44.8 C22.425 43.3504 22.425 41.9008 22.425 40.45119 C22.425 39.28699 22.425 38.1228 22.425 36.9586 C22.425 33.466 22.425 29.9734 22.425 26.4808 C22.425 21.38731 22.425 16.29382 22.425 11.20034 L11.175 11.20034 C11.175 12.80122 11.175 14.40211 11.175 16.003 C11.175 19.4956 11.175 22.9882 11.175 26.4808 C11.175 29.9734 11.175 33.466 11.175 36.9586 C11.175 39.5724 11.175 42.1862 11.175 44.8 L22.425 44.8 zM0 33.625 C1.4496 33.625 2.8992 33.625 4.34881 33.625 C5.51301 33.625 6.6772 33.625 7.8414 33.625 C11.334 33.625 14.8266 33.625 18.3192 33.625 C23.41269 33.625 28.50618 33.625 33.59966 33.625 L33.59966 22.375 C31.99878 22.375 30.39789 22.375 28.797 22.375 C25.3044 22.375 21.8118 22.375 18.3192 22.375 C14.8266 22.375 11.334 22.375 7.8414 22.375 C6.6772 22.375 5.51301 22.375 4.34881 22.375 C2.8992 22.375 1.4496 22.375 0 22.375 L0 33.625 z" />
<glyph unicode="," horiz-adv-x="28.05" d="M0 11.225 C0.7248 11.225 1.4496 11.225 2.1744 11.225 C2.7565 11.225 3.3386 11.225 3.9207 11.225 C5.667 11.225 7.4133 11.225 9.1596 11.225 C11.70634 11.225 14.25309 11.225 16.79983 11.225 L16.79983 -0.025 C15.99939 -0.025 15.19894 -0.025 14.3985 -0.025 C12.6522 -0.025 10.9059 -0.025 9.1596 -0.025 C7.4133 -0.025 5.667 -0.025 3.9207 -0.025 C2.6138 -0.025 1.3069 -0.025 0 -0.025 L0 11.225 z" />
<glyph unicode="-" horiz-adv-x="44.85" d="M0 33.625 C1.4496 33.625 2.8992 33.625 4.34881 33.625 C5.51301 33.625 6.6772 33.625 7.8414 33.625 C11.334 33.625 14.8266 33.625 18.3192 33.625 C23.41269 33.625 28.50618 33.625 33.59966 33.625 L33.59966 22.375 C31.99878 22.375 30.39789 22.375 28.797 22.375 C25.3044 22.375 21.8118 22.375 18.3192 22.375 C14.8266 22.375 11.334 22.375 7.8414 22.375 C6.6772 22.375 5.51301 22.375 4.34881 22.375 C2.8992 22.375 1.4496 22.375 0 22.375 L0 33.625 z" />
<glyph unicode="." horiz-adv-x="22.45" d="M0 11.225 C0.4832 11.225 0.9664 11.225 1.4496 11.225 C1.83767 11.225 2.22573 11.225 2.6138 11.225 C3.778 11.225 4.9422 11.225 6.1064 11.225 C7.80423 11.225 9.50206 11.225 11.19989 11.225 L11.19989 -0.025 C10.66626 -0.025 10.13263 -0.025 9.599 -0.025 C8.4348 -0.025 7.2706 -0.025 6.1064 -0.025 C4.9422 -0.025 3.778 -0.025 2.6138 -0.025 C2.22573 -0.025 1.83767 -0.025 1.4496 -0.025 C0.9664 -0.025 0.4832 -0.025 0 -0.025 L0 11.225 z" />
<glyph unicode="/" horiz-adv-x="44.9" d="M22.4 49.8936 C22.4 51.0578 22.4 52.222 22.4 53.3862 C22.4 54.25747 22.4 55.12873 22.4 56 C26.15 56 29.9 56 33.65 56 C33.65 55.5168 33.65 55.0336 33.65 54.5504 C33.65 54.16233 33.65 53.77427 33.65 53.3862 C33.65 52.222 33.65 51.0578 33.65 49.8936 C33.65 47.13243 34.02495 44.24405 32.70528 41.67981 C31.26778 38.88661 29.22021 36.45221 27.47768 33.83841 C25.14928 30.34581 22.82088 26.85321 20.49248 23.36061 C17.41165 18.73937 14.33083 14.11813 11.25 9.49689 C11.25 9.19332 11.25 8.88976 11.25 8.5862 C11.25 7.422 11.25 6.2578 11.25 5.0936 C11.25 3.39577 11.25 1.69794 11.25 0.00011 L0 0.00011 C0 0.53374 0 1.06737 0 1.601 C0 2.7652 0 3.9294 0 5.0936 C0 6.2578 0 7.422 0 8.5862 C0 10.02517 0 11.46414 0 12.90311 C0.31498 13.37558 0.62996 13.84805 0.94494 14.32052 C4.3406 19.41401 7.73626 24.5075 11.13192 29.60099 C13.46031 33.09359 15.78871 36.58618 18.11711 40.07878 C18.89325 41.24298 19.66077 42.41297 20.44551 43.57138 C21.08844 44.52045 21.89611 45.37135 22.4 46.401 C22.57058 46.74957 22.4 47.17713 22.4 47.5652 C22.4 47.95327 22.4 48.34133 22.4 48.7294 C22.4 49.11747 22.4 49.50553 22.4 49.8936 z" />
<glyph unicode="0" horiz-adv-x="67.25" d="M56 -0.025 C55.0336 -0.025 54.0672 -0.025 53.1008 -0.025 C52.32466 -0.025 51.54853 -0.025 50.7724 -0.025 C48.444 -0.025 46.1156 -0.025 43.7872 -0.025 C40.39154 -0.025 36.99588 -0.025 33.60022 -0.025 L33.60022 11.225 C34.66748 11.225 35.73474 11.225 36.802 11.225 C39.1304 11.225 41.4588 11.225 43.7872 11.225 C46.1156 11.225 48.444 11.225 50.7724 11.225 C52.51493 11.225 54.25747 11.225 56 11.225 L56 -0.025 zM33.6 56.025 C34.5664 56.025 35.5328 56.025 36.4992 56.025 C37.27534 56.025 38.05147 56.025 38.8276 56.025 C41.156 56.025 43.4844 56.025 45.8128 56.025 C49.20846 56.025 52.60412 56.025 55.99978 56.025 L55.99978 44.775 C54.93252 44.775 53.86526 44.775 52.798 44.775 C50.4696 44.775 48.1412 44.775 45.8128 44.775 C43.4844 44.775 41.156 44.775 38.8276 44.775 C37.08507 44.775 35.34253 44.775 33.6 44.775 L33.6 56.025 zM0 56.025 C0.9664 56.025 1.9328 56.025 2.8992 56.025 C3.67534 56.025 4.45147 56.025 5.2276 56.025 C7.556 56.025 9.8844 56.025 12.2128 56.025 C15.60846 56.025 19.00412 56.025 22.39978 56.025 L22.39978 44.775 C21.33252 44.775 20.26526 44.775 19.198 44.775 C16.8696 44.775 14.5412 44.775 12.2128 44.775 C9.8844 44.775 7.556 44.775 5.2276 44.775 C3.48507 44.775 1.74253 44.775 0 44.775 L0 56.025 zM22.4 -0.025 C21.4336 -0.025 20.4672 -0.025 19.5008 -0.025 C18.72466 -0.025 17.94853 -0.025 17.1724 -0.025 C14.844 -0.025 12.5156 -0.025 10.1872 -0.025 C6.79154 -0.025 3.39588 -0.025 0.00022 -0.025 L0.00022 11.225 C1.06748 11.225 2.13474 11.225 3.202 11.225 C5.5304 11.225 7.8588 11.225 10.1872 11.225 C12.5156 11.225 14.844 11.225 17.1724 11.225 C18.91493 11.225 20.65747 11.225 22.4 11.225 L22.4 -0.025 z" />
<glyph unicode="1" horiz-adv-x="67.25" d="M0 33.625 C2.416 33.625 4.83201 33.625 7.24801 33.625 C9.18834 33.625 11.12867 33.625 13.06901 33.625 C18.89001 33.625 24.71101 33.625 30.532 33.625 C39.02115 33.625 47.51029 33.625 55.99944 33.625 L55.99944 22.375 C53.33129 22.375 50.66315 22.375 47.995 22.375 C42.174 22.375 36.353 22.375 30.532 22.375 C24.71101 22.375 18.89001 22.375 13.06901 22.375 C11.12867 22.375 9.18834 22.375 7.24801 22.375 C4.83201 22.375 2.416 22.375 0 22.375 L0 33.625 zM0 56.025 C0.9664 56.025 1.9328 56.025 2.8992 56.025 C3.67534 56.025 4.45147 56.025 5.2276 56.025 C7.556 56.025 9.8844 56.025 12.2128 56.025 C15.60846 56.025 19.00412 56.025 22.39978 56.025 L22.39978 44.775 C21.33252 44.775 20.26526 44.775 19.198 44.775 C16.8696 44.775 14.5412 44.775 12.2128 44.775 C9.8844 44.775 7.556 44.775 5.2276 44.775 C3.48507 44.775 1.74253 44.775 0 44.775 L0 56.025 zM22.4 -0.025 C21.4336 -0.025 20.4672 -0.025 19.5008 -0.025 C18.72466 -0.025 17.94853 -0.025 17.1724 -0.025 C14.844 -0.025 12.5156 -0.025 10.1872 -0.025 C6.79154 -0.025 3.39588 -0.025 0.00022 -0.025 L0.00022 11.225 C1.06748 11.225 2.13474 11.225 3.202 11.225 C5.5304 11.225 7.8588 11.225 10.1872 11.225 C12.5156 11.225 14.844 11.225 17.1724 11.225 C18.91493 11.225 20.65747 11.225 22.4 11.225 L22.4 -0.025 z" />
<glyph unicode="2" horiz-adv-x="67.25" d="M56 -0.025 C55.0336 -0.025 54.0672 -0.025 53.1008 -0.025 C52.32466 -0.025 51.54853 -0.025 50.7724 -0.025 C48.444 -0.025 46.1156 -0.025 43.7872 -0.025 C40.39154 -0.025 36.99588 -0.025 33.60022 -0.025 L33.60022 11.225 C34.66748 11.225 35.73474 11.225 36.802 11.225 C39.1304 11.225 41.4588 11.225 43.7872 11.225 C46.1156 11.225 48.444 11.225 50.7724 11.225 C52.51493 11.225 54.25747 11.225 56 11.225 L56 -0.025 zM0 33.625 C2.416 33.625 4.83201 33.625 7.24801 33.625 C9.18834 33.625 11.12867 33.625 13.06901 33.625 C18.89001 33.625 24.71101 33.625 30.532 33.625 C39.02115 33.625 47.51029 33.625 55.99944 33.625 L55.99944 22.375 C53.33129 22.375 50.66315 22.375 47.995 22.375 C42.174 22.375 36.353 22.375 30.532 22.375 C24.71101 22.375 18.89001 22.375 13.06901 22.375 C11.12867 22.375 9.18834 22.375 7.24801 22.375 C4.83201 22.375 2.416 22.375 0 22.375 L0 33.625 zM0 56.025 C0.9664 56.025 1.9328 56.025 2.8992 56.025 C3.67534 56.025 4.45147 56.025 5.2276 56.025 C7.556 56.025 9.8844 56.025 12.2128 56.025 C15.60846 56.025 19.00412 56.025 22.39978 56.025 L22.39978 44.775 C21.33252 44.775 20.26526 44.775 19.198 44.775 C16.8696 44.775 14.5412 44.775 12.2128 44.775 C9.8844 44.775 7.556 44.775 5.2276 44.775 C3.48507 44.775 1.74253 44.775 0 44.775 L0 56.025 z" />
<glyph unicode="3" horiz-adv-x="67.25" d="M33.6 56.025 C34.5664 56.025 35.5328 56.025 36.4992 56.025 C37.27534 56.025 38.05147 56.025 38.8276 56.025 C41.156 56.025 43.4844 56.025 45.8128 56.025 C49.20846 56.025 52.60412 56.025 55.99978 56.025 L55.99978 44.775 C54.93252 44.775 53.86526 44.775 52.798 44.775 C50.4696 44.775 48.1412 44.775 45.8128 44.775 C43.4844 44.775 41.156 44.775 38.8276 44.775 C37.08507 44.775 35.34253 44.775 33.6 44.775 L33.6 56.025 zM0 33.625 C2.416 33.625 4.83201 33.625 7.24801 33.625 C9.18834 33.625 11.12867 33.625 13.06901 33.625 C18.89001 33.625 24.71101 33.625 30.532 33.625 C39.02115 33.625 47.51029 33.625 55.99944 33.625 L55.99944 22.375 C53.33129 22.375 50.66315 22.375 47.995 22.375 C42.174 22.375 36.353 22.375 30.532 22.375 C24.71101 22.375 18.89001 22.375 13.06901 22.375 C11.12867 22.375 9.18834 22.375 7.24801 22.375 C4.83201 22.375 2.416 22.375 0 22.375 L0 33.625 zM22.4 -0.025 C21.4336 -0.025 20.4672 -0.025 19.5008 -0.025 C18.72466 -0.025 17.94853 -0.025 17.1724 -0.025 C14.844 -0.025 12.5156 -0.025 10.1872 -0.025 C6.79154 -0.025 3.39588 -0.025 0.00022 -0.025 L0.00022 11.225 C1.06748 11.225 2.13474 11.225 3.202 11.225 C5.5304 11.225 7.8588 11.225 10.1872 11.225 C12.5156 11.225 14.844 11.225 17.1724 11.225 C18.91493 11.225 20.65747 11.225 22.4 11.225 L22.4 -0.025 z" />
<glyph unicode="4" horiz-adv-x="67.25" d="M56 -0.025 C55.0336 -0.025 54.0672 -0.025 53.1008 -0.025 C52.32466 -0.025 51.54853 -0.025 50.7724 -0.025 C48.444 -0.025 46.1156 -0.025 43.7872 -0.025 C40.39154 -0.025 36.99588 -0.025 33.60022 -0.025 L33.60022 11.225 C34.66748 11.225 35.73474 11.225 36.802 11.225 C39.1304 11.225 41.4588 11.225 43.7872 11.225 C46.1156 11.225 48.444 11.225 50.7724 11.225 C52.51493 11.225 54.25747 11.225 56 11.225 L56 -0.025 zM33.6 56.025 C34.5664 56.025 35.5328 56.025 36.4992 56.025 C37.27534 56.025 38.05147 56.025 38.8276 56.025 C41.156 56.025 43.4844 56.025 45.8128 56.025 C49.20846 56.025 52.60412 56.025 55.99978 56.025 L55.99978 44.775 C54.93252 44.775 53.86526 44.775 52.798 44.775 C50.4696 44.775 48.1412 44.775 45.8128 44.775 C43.4844 44.775 41.156 44.775 38.8276 44.775 C37.08507 44.775 35.34253 44.775 33.6 44.775 L33.6 56.025 zM0 33.625 C2.416 33.625 4.83201 33.625 7.24801 33.625 C9.18834 33.625 11.12867 33.625 13.06901 33.625 C18.89001 33.625 24.71101 33.625 30.532 33.625 C39.02115 33.625 47.51029 33.625 55.99944 33.625 L55.99944 22.375 C53.33129 22.375 50.66315 22.375 47.995 22.375 C42.174 22.375 36.353 22.375 30.532 22.375 C24.71101 22.375 18.89001 22.375 13.06901 22.375 C11.12867 22.375 9.18834 22.375 7.24801 22.375 C4.83201 22.375 2.416 22.375 0 22.375 L0 33.625 z" />
<glyph unicode="5" horiz-adv-x="67.25" d="M33.6 56.025 C34.5664 56.025 35.5328 56.025 36.4992 56.025 C37.27534 56.025 38.05147 56.025 38.8276 56.025 C41.156 56.025 43.4844 56.025 45.8128 56.025 C49.20846 56.025 52.60412 56.025 55.99978 56.025 L55.99978 44.775 C54.93252 44.775 53.86526 44.775 52.798 44.775 C50.4696 44.775 48.1412 44.775 45.8128 44.775 C43.4844 44.775 41.156 44.775 38.8276 44.775 C37.08507 44.775 35.34253 44.775 33.6 44.775 L33.6 56.025 zM0 33.625 C2.416 33.625 4.83201 33.625 7.24801 33.625 C9.18834 33.625 11.12867 33.625 13.06901 33.625 C18.89001 33.625 24.71101 33.625 30.532 33.625 C39.02115 33.625 47.51029 33.625 55.99944 33.625 L55.99944 22.375 C53.33129 22.375 50.66315 22.375 47.995 22.375 C42.174 22.375 36.353 22.375 30.532 22.375 C24.71101 22.375 18.89001 22.375 13.06901 22.375 C11.12867 22.375 9.18834 22.375 7.24801 22.375 C4.83201 22.375 2.416 22.375 0 22.375 L0 33.625 zM0 56.025 C0.9664 56.025 1.9328 56.025 2.8992 56.025 C3.67534 56.025 4.45147 56.025 5.2276 56.025 C7.556 56.025 9.8844 56.025 12.2128 56.025 C15.60846 56.025 19.00412 56.025 22.39978 56.025 L22.39978 44.775 C21.33252 44.775 20.26526 44.775 19.198 44.775 C16.8696 44.775 14.5412 44.775 12.2128 44.775 C9.8844 44.775 7.556 44.775 5.2276 44.775 C3.48507 44.775 1.74253 44.775 0 44.775 L0 56.025 zM22.4 -0.025 C21.4336 -0.025 20.4672 -0.025 19.5008 -0.025 C18.72466 -0.025 17.94853 -0.025 17.1724 -0.025 C14.844 -0.025 12.5156 -0.025 10.1872 -0.025 C6.79154 -0.025 3.39588 -0.025 0.00022 -0.025 L0.00022 11.225 C1.06748 11.225 2.13474 11.225 3.202 11.225 C5.5304 11.225 7.8588 11.225 10.1872 11.225 C12.5156 11.225 14.844 11.225 17.1724 11.225 C18.91493 11.225 20.65747 11.225 22.4 11.225 L22.4 -0.025 z" />
<glyph unicode="6" horiz-adv-x="67.25" d="M56 -0.025 C55.0336 -0.025 54.0672 -0.025 53.1008 -0.025 C52.32466 -0.025 51.54853 -0.025 50.7724 -0.025 C48.444 -0.025 46.1156 -0.025 43.7872 -0.025 C40.39154 -0.025 36.99588 -0.025 33.60022 -0.025 L33.60022 11.225 C34.66748 11.225 35.73474 11.225 36.802 11.225 C39.1304 11.225 41.4588 11.225 43.7872 11.225 C46.1156 11.225 48.444 11.225 50.7724 11.225 C52.51493 11.225 54.25747 11.225 56 11.225 L56 -0.025 zM33.6 56.025 C34.5664 56.025 35.5328 56.025 36.4992 56.025 C37.27534 56.025 38.05147 56.025 38.8276 56.025 C41.156 56.025 43.4844 56.025 45.8128 56.025 C49.20846 56.025 52.60412 56.025 55.99978 56.025 L55.99978 44.775 C54.93252 44.775 53.86526 44.775 52.798 44.775 C50.4696 44.775 48.1412 44.775 45.8128 44.775 C43.4844 44.775 41.156 44.775 38.8276 44.775 C37.08507 44.775 35.34253 44.775 33.6 44.775 L33.6 56.025 zM0 33.625 C2.416 33.625 4.83201 33.625 7.24801 33.625 C9.18834 33.625 11.12867 33.625 13.06901 33.625 C18.89001 33.625 24.71101 33.625 30.532 33.625 C39.02115 33.625 47.51029 33.625 55.99944 33.625 L55.99944 22.375 C53.33129 22.375 50.66315 22.375 47.995 22.375 C42.174 22.375 36.353 22.375 30.532 22.375 C24.71101 22.375 18.89001 22.375 13.06901 22.375 C11.12867 22.375 9.18834 22.375 7.24801 22.375 C4.83201 22.375 2.416 22.375 0 22.375 L0 33.625 zM0 56.025 C0.9664 56.025 1.9328 56.025 2.8992 56.025 C3.67534 56.025 4.45147 56.025 5.2276 56.025 C7.556 56.025 9.8844 56.025 12.2128 56.025 C15.60846 56.025 19.00412 56.025 22.39978 56.025 L22.39978 44.775 C21.33252 44.775 20.26526 44.775 19.198 44.775 C16.8696 44.775 14.5412 44.775 12.2128 44.775 C9.8844 44.775 7.556 44.775 5.2276 44.775 C3.48507 44.775 1.74253 44.775 0 44.775 L0 56.025 z" />
<glyph unicode="7" horiz-adv-x="67.25" d="M56 -0.025 C55.0336 -0.025 54.0672 -0.025 53.1008 -0.025 C52.32466 -0.025 51.54853 -0.025 50.7724 -0.025 C48.444 -0.025 46.1156 -0.025 43.7872 -0.025 C40.39154 -0.025 36.99588 -0.025 33.60022 -0.025 L33.60022 11.225 C34.66748 11.225 35.73474 11.225 36.802 11.225 C39.1304 11.225 41.4588 11.225 43.7872 11.225 C46.1156 11.225 48.444 11.225 50.7724 11.225 C52.51493 11.225 54.25747 11.225 56 11.225 L56 -0.025 zM0 33.625 C2.416 33.625 4.83201 33.625 7.24801 33.625 C9.18834 33.625 11.12867 33.625 13.06901 33.625 C18.89001 33.625 24.71101 33.625 30.532 33.625 C39.02115 33.625 47.51029 33.625 55.99944 33.625 L55.99944 22.375 C53.33129 22.375 50.66315 22.375 47.995 22.375 C42.174 22.375 36.353 22.375 30.532 22.375 C24.71101 22.375 18.89001 22.375 13.06901 22.375 C11.12867 22.375 9.18834 22.375 7.24801 22.375 C4.83201 22.375 2.416 22.375 0 22.375 L0 33.625 zM0 56.025 C0.9664 56.025 1.9328 56.025 2.8992 56.025 C3.67534 56.025 4.45147 56.025 5.2276 56.025 C7.556 56.025 9.8844 56.025 12.2128 56.025 C15.60846 56.025 19.00412 56.025 22.39978 56.025 L22.39978 44.775 C21.33252 44.775 20.26526 44.775 19.198 44.775 C16.8696 44.775 14.5412 44.775 12.2128 44.775 C9.8844 44.775 7.556 44.775 5.2276 44.775 C3.48507 44.775 1.74253 44.775 0 44.775 L0 56.025 zM22.4 -0.025 C21.4336 -0.025 20.4672 -0.025 19.5008 -0.025 C18.72466 -0.025 17.94853 -0.025 17.1724 -0.025 C14.844 -0.025 12.5156 -0.025 10.1872 -0.025 C6.79154 -0.025 3.39588 -0.025 0.00022 -0.025 L0.00022 11.225 C1.06748 11.225 2.13474 11.225 3.202 11.225 C5.5304 11.225 7.8588 11.225 10.1872 11.225 C12.5156 11.225 14.844 11.225 17.1724 11.225 C18.91493 11.225 20.65747 11.225 22.4 11.225 L22.4 -0.025 z" />
<glyph unicode="8" horiz-adv-x="67.25" d="M56 -0.025 C55.0336 -0.025 54.0672 -0.025 53.1008 -0.025 C52.32466 -0.025 51.54853 -0.025 50.7724 -0.025 C48.444 -0.025 46.1156 -0.025 43.7872 -0.025 C40.39154 -0.025 36.99588 -0.025 33.60022 -0.025 L33.60022 11.225 C34.66748 11.225 35.73474 11.225 36.802 11.225 C39.1304 11.225 41.4588 11.225 43.7872 11.225 C46.1156 11.225 48.444 11.225 50.7724 11.225 C52.51493 11.225 54.25747 11.225 56 11.225 L56 -0.025 zM33.6 56.025 C34.5664 56.025 35.5328 56.025 36.4992 56.025 C37.27534 56.025 38.05147 56.025 38.8276 56.025 C41.156 56.025 43.4844 56.025 45.8128 56.025 C49.20846 56.025 52.60412 56.025 55.99978 56.025 L55.99978 44.775 C54.93252 44.775 53.86526 44.775 52.798 44.775 C50.4696 44.775 48.1412 44.775 45.8128 44.775 C43.4844 44.775 41.156 44.775 38.8276 44.775 C37.08507 44.775 35.34253 44.775 33.6 44.775 L33.6 56.025 zM0 33.625 C2.416 33.625 4.83201 33.625 7.24801 33.625 C9.18834 33.625 11.12867 33.625 13.06901 33.625 C18.89001 33.625 24.71101 33.625 30.532 33.625 C39.02115 33.625 47.51029 33.625 55.99944 33.625 L55.99944 22.375 C53.33129 22.375 50.66315 22.375 47.995 22.375 C42.174 22.375 36.353 22.375 30.532 22.375 C24.71101 22.375 18.89001 22.375 13.06901 22.375 C11.12867 22.375 9.18834 22.375 7.24801 22.375 C4.83201 22.375 2.416 22.375 0 22.375 L0 33.625 zM22.4 -0.025 C21.4336 -0.025 20.4672 -0.025 19.5008 -0.025 C18.72466 -0.025 17.94853 -0.025 17.1724 -0.025 C14.844 -0.025 12.5156 -0.025 10.1872 -0.025 C6.79154 -0.025 3.39588 -0.025 0.00022 -0.025 L0.00022 11.225 C1.06748 11.225 2.13474 11.225 3.202 11.225 C5.5304 11.225 7.8588 11.225 10.1872 11.225 C12.5156 11.225 14.844 11.225 17.1724 11.225 C18.91493 11.225 20.65747 11.225 22.4 11.225 L22.4 -0.025 z" />
<glyph unicode="9" horiz-adv-x="67.25" d="M56 -0.025 C55.0336 -0.025 54.0672 -0.025 53.1008 -0.025 C52.32466 -0.025 51.54853 -0.025 50.7724 -0.025 C48.444 -0.025 46.1156 -0.025 43.7872 -0.025 C40.39154 -0.025 36.99588 -0.025 33.60022 -0.025 L33.60022 11.225 C34.66748 11.225 35.73474 11.225 36.802 11.225 C39.1304 11.225 41.4588 11.225 43.7872 11.225 C46.1156 11.225 48.444 11.225 50.7724 11.225 C52.51493 11.225 54.25747 11.225 56 11.225 L56 -0.025 zM33.6 56.025 C34.5664 56.025 35.5328 56.025 36.4992 56.025 C37.27534 56.025 38.05147 56.025 38.8276 56.025 C41.156 56.025 43.4844 56.025 45.8128 56.025 C49.20846 56.025 52.60412 56.025 55.99978 56.025 L55.99978 44.775 C54.93252 44.775 53.86526 44.775 52.798 44.775 C50.4696 44.775 48.1412 44.775 45.8128 44.775 C43.4844 44.775 41.156 44.775 38.8276 44.775 C37.08507 44.775 35.34253 44.775 33.6 44.775 L33.6 56.025 zM0 33.625 C2.416 33.625 4.83201 33.625 7.24801 33.625 C9.18834 33.625 11.12867 33.625 13.06901 33.625 C18.89001 33.625 24.71101 33.625 30.532 33.625 C39.02115 33.625 47.51029 33.625 55.99944 33.625 L55.99944 22.375 C53.33129 22.375 50.66315 22.375 47.995 22.375 C42.174 22.375 36.353 22.375 30.532 22.375 C24.71101 22.375 18.89001 22.375 13.06901 22.375 C11.12867 22.375 9.18834 22.375 7.24801 22.375 C4.83201 22.375 2.416 22.375 0 22.375 L0 33.625 zM0 56.025 C0.9664 56.025 1.9328 56.025 2.8992 56.025 C3.67534 56.025 4.45147 56.025 5.2276 56.025 C7.556 56.025 9.8844 56.025 12.2128 56.025 C15.60846 56.025 19.00412 56.025 22.39978 56.025 L22.39978 44.775 C21.33252 44.775 20.26526 44.775 19.198 44.775 C16.8696 44.775 14.5412 44.775 12.2128 44.775 C9.8844 44.775 7.556 44.775 5.2276 44.775 C3.48507 44.775 1.74253 44.775 0 44.775 L0 56.025 zM22.4 -0.025 C21.4336 -0.025 20.4672 -0.025 19.5008 -0.025 C18.72466 -0.025 17.94853 -0.025 17.1724 -0.025 C14.844 -0.025 12.5156 -0.025 10.1872 -0.025 C6.79154 -0.025 3.39588 -0.025 0.00022 -0.025 L0.00022 11.225 C1.06748 11.225 2.13474 11.225 3.202 11.225 C5.5304 11.225 7.8588 11.225 10.1872 11.225 C12.5156 11.225 14.844 11.225 17.1724 11.225 C18.91493 11.225 20.65747 11.225 22.4 11.225 L22.4 -0.025 z" />
<glyph unicode=":" horiz-adv-x="44.85" d="M11.2 -0.025 C10.7168 -0.025 10.2336 -0.025 9.7504 -0.025 C9.36233 -0.025 8.97427 -0.025 8.5862 -0.025 C7.422 -0.025 6.2578 -0.025 5.0936 -0.025 C3.39577 -0.025 1.69794 -0.025 0.00011 -0.025 L0.00011 11.225 C0.53374 11.225 1.06737 11.225 1.601 11.225 C2.7652 11.225 3.9294 11.225 5.0936 11.225 C6.2578 11.225 7.422 11.225 8.5862 11.225 C9.45747 11.225 10.32873 11.225 11.2 11.225 L11.2 -0.025 zM33.6 -0.025 C33.1168 -0.025 32.6336 -0.025 32.1504 -0.025 C31.76233 -0.025 31.37427 -0.025 30.9862 -0.025 C29.822 -0.025 28.6578 -0.025 27.4936 -0.025 C25.79577 -0.025 24.09794 -0.025 22.40011 -0.025 L22.40011 11.225 C22.93374 11.225 23.46737 11.225 24.001 11.225 C25.1652 11.225 26.3294 11.225 27.4936 11.225 C28.6578 11.225 29.822 11.225 30.9862 11.225 C31.85747 11.225 32.72873 11.225 33.6 11.225 L33.6 -0.025 z" />
<glyph unicode=";" horiz-adv-x="44.9" d="M11.25 11.2 C11.25 10.7168 11.25 10.2336 11.25 9.7504 C11.25 9.36233 11.25 8.97427 11.25 8.5862 C11.25 7.422 11.25 6.2578 11.25 5.0936 C11.25 3.39577 11.25 1.69794 11.25 0.00011 L-0 0.00011 C-0 0.53374 -0 1.06737 -0 1.601 C-0 2.7652 -0 3.9294 -0 5.0936 C-0 6.2578 -0 7.422 -0 8.5862 C-0 9.45747 -0 10.32873 -0 11.2 L11.25 11.2 zM22.4 0 C22.4 0.7248 22.4 1.4496 22.4 2.1744 C22.4 2.7565 22.4 3.3386 22.4 3.9207 C22.4 5.667 22.4 7.4133 22.4 9.1596 C22.4 11.70634 22.4 14.25309 22.4 16.79983 L33.65 16.79983 C33.65 15.99939 33.65 15.19894 33.65 14.3985 C33.65 12.6522 33.65 10.9059 33.65 9.1596 C33.65 7.4133 33.65 5.667 33.65 3.9207 C33.65 2.6138 33.65 1.3069 33.65 0 L22.4 0 z" />
<glyph unicode="&#x3c;" horiz-adv-x="44.85" d="M0 22.425 C1.4496 22.425 2.8992 22.425 4.34881 22.425 C5.51301 22.425 6.6772 22.425 7.8414 22.425 C11.334 22.425 14.8266 22.425 18.3192 22.425 C23.41269 22.425 28.50618 22.425 33.59966 22.425 L33.59966 11.175 C31.99878 11.175 30.39789 11.175 28.797 11.175 C25.3044 11.175 21.8118 11.175 18.3192 11.175 C14.8266 11.175 11.334 11.175 7.8414 11.175 C6.6772 11.175 5.51301 11.175 4.34881 11.175 C2.8992 11.175 1.4496 11.175 0 11.175 L0 22.425 zM22.375 11.2 C22.375 12.6496 22.375 14.0992 22.375 15.54881 C22.375 16.71301 22.375 17.8772 22.375 19.0414 C22.375 22.534 22.375 26.0266 22.375 29.5192 C22.375 34.61269 22.375 39.70618 22.375 44.79966 L33.625 44.79966 C33.625 43.19878 33.625 41.59789 33.625 39.997 C33.625 36.5044 33.625 33.0118 33.625 29.5192 C33.625 26.0266 33.625 22.534 33.625 19.0414 C33.625 16.4276 33.625 13.8138 33.625 11.2 L22.375 11.2 zM33.6 33.575 C32.1504 33.575 30.7008 33.575 29.25119 33.575 C28.08699 33.575 26.9228 33.575 25.7586 33.575 C22.266 33.575 18.7734 33.575 15.2808 33.575 C10.18731 33.575 5.09382 33.575 0.00034 33.575 L0.00034 44.825 C1.60122 44.825 3.20211 44.825 4.803 44.825 C8.2956 44.825 11.7882 44.825 15.2808 44.825 C18.7734 44.825 22.266 44.825 25.7586 44.825 C28.3724 44.825 30.9862 44.825 33.6 44.825 L33.6 33.575 z" />
<glyph unicode="=" horiz-adv-x="44.9" d="M11.25 44.8 C11.25 43.3504 11.25 41.9008 11.25 40.45119 C11.25 39.28699 11.25 38.1228 11.25 36.9586 C11.25 33.466 11.25 29.9734 11.25 26.4808 C11.25 21.38731 11.25 16.29382 11.25 11.20034 L0 11.20034 C0 12.80122 0 14.40211 0 16.003 C0 19.4956 0 22.9882 0 26.4808 C0 29.9734 0 33.466 0 36.9586 C0 39.5724 0 42.1862 0 44.8 L11.25 44.8 zM22.4 11.2 C22.4 12.6496 22.4 14.0992 22.4 15.54881 C22.4 16.71301 22.4 17.8772 22.4 19.0414 C22.4 22.534 22.4 26.0266 22.4 29.5192 C22.4 34.61269 22.4 39.70618 22.4 44.79966 L33.65 44.79966 C33.65 43.19878 33.65 41.59789 33.65 39.997 C33.65 36.5044 33.65 33.0118 33.65 29.5192 C33.65 26.0266 33.65 22.534 33.65 19.0414 C33.65 16.4276 33.65 13.8138 33.65 11.2 L22.4 11.2 z" />
<glyph unicode="&#x3e;" horiz-adv-x="44.85" d="M0 22.425 C1.4496 22.425 2.8992 22.425 4.34881 22.425 C5.51301 22.425 6.6772 22.425 7.8414 22.425 C11.334 22.425 14.8266 22.425 18.3192 22.425 C23.41269 22.425 28.50618 22.425 33.59966 22.425 L33.59966 11.175 C31.99878 11.175 30.39789 11.175 28.797 11.175 C25.3044 11.175 21.8118 11.175 18.3192 11.175 C14.8266 11.175 11.334 11.175 7.8414 11.175 C6.6772 11.175 5.51301 11.175 4.34881 11.175 C2.8992 11.175 1.4496 11.175 0 11.175 L0 22.425 zM11.225 44.8 C11.225 43.3504 11.225 41.9008 11.225 40.45119 C11.225 39.28699 11.225 38.1228 11.225 36.9586 C11.225 33.466 11.225 29.9734 11.225 26.4808 C11.225 21.38731 11.225 16.29382 11.225 11.20034 L-0.025 11.20034 C-0.025 12.80122 -0.025 14.40211 -0.025 16.003 C-0.025 19.4956 -0.025 22.9882 -0.025 26.4808 C-0.025 29.9734 -0.025 33.466 -0.025 36.9586 C-0.025 39.5724 -0.025 42.1862 -0.025 44.8 L11.225 44.8 zM0 44.825 C1.4496 44.825 2.8992 44.825 4.34881 44.825 C5.51301 44.825 6.6772 44.825 7.8414 44.825 C11.334 44.825 14.8266 44.825 18.3192 44.825 C23.41269 44.825 28.50618 44.825 33.59966 44.825 L33.59966 33.575 C31.99878 33.575 30.39789 33.575 28.797 33.575 C25.3044 33.575 21.8118 33.575 18.3192 33.575 C14.8266 33.575 11.334 33.575 7.8414 33.575 C6.6772 33.575 5.51301 33.575 4.34881 33.575 C2.8992 33.575 1.4496 33.575 0 33.575 L0 44.825 z" />
<glyph unicode="?" horiz-adv-x="28.05" d="M0 11.225 C0.7248 11.225 1.4496 11.225 2.1744 11.225 C2.7565 11.225 3.3386 11.225 3.9207 11.225 C5.667 11.225 7.4133 11.225 9.1596 11.225 C11.70634 11.225 14.25309 11.225 16.79983 11.225 L16.79983 -0.025 C15.99939 -0.025 15.19894 -0.025 14.3985 -0.025 C12.6522 -0.025 10.9059 -0.025 9.1596 -0.025 C7.4133 -0.025 5.667 -0.025 3.9207 -0.025 C2.6138 -0.025 1.3069 -0.025 0 -0.025 L0 11.225 zM16.825 33.6 C16.825 32.1504 16.825 30.7008 16.825 29.25119 C16.825 28.08699 16.825 26.9228 16.825 25.7586 C16.825 22.266 16.825 18.7734 16.825 15.2808 C16.825 10.18731 16.825 5.09382 16.825 0.00034 L5.575 0.00034 C5.575 1.60122 5.575 3.20211 5.575 4.803 C5.575 8.2956 5.575 11.7882 5.575 15.2808 C5.575 18.7734 5.575 22.266 5.575 25.7586 C5.575 28.3724 5.575 30.9862 5.575 33.6 L16.825 33.6 zM16.825 56 C16.825 55.5168 16.825 55.0336 16.825 54.5504 C16.825 54.16233 16.825 53.77427 16.825 53.3862 C16.825 52.222 16.825 51.0578 16.825 49.8936 C16.825 48.19577 16.825 46.49794 16.825 44.80011 L5.575 44.80011 C5.575 45.33374 5.575 45.86737 5.575 46.401 C5.575 47.5652 5.575 48.7294 5.575 49.8936 C5.575 51.0578 5.575 52.222 5.575 53.3862 C5.575 54.25747 5.575 55.12873 5.575 56 L16.825 56 z" />
<glyph unicode="@" horiz-adv-x="67.275" d="M22.425 56.025 C23.8746 56.025 25.3242 56.025 26.77381 56.025 C27.93801 56.025 29.1022 56.025 30.2664 56.025 C33.759 56.025 37.2516 56.025 40.7442 56.025 C45.83769 56.025 50.93118 56.025 56.02466 56.025 L56.02466 44.775 C54.42378 44.775 52.82289 44.775 51.222 44.775 C47.7294 44.775 44.2368 44.775 40.7442 44.775 C37.2516 44.775 33.759 44.775 30.2664 44.775 C29.1022 44.775 27.93801 44.775 26.77381 44.775 C25.3242 44.775 23.8746 44.775 22.425 44.775 L22.425 56.025 zM33.65 30.32995 C34.84336 29.13659 36.03672 27.94323 37.23008 26.74987 C39.55848 24.42147 41.88688 22.09307 44.21528 19.76467 C47.61094 16.36902 51.00659 12.97336 54.40225 9.5777 L46.4473 1.62275 C45.38004 2.69001 44.31278 3.75727 43.24552 4.82452 C40.91713 7.15292 38.58873 9.48132 36.26033 11.80972 C33.93193 14.13812 31.60353 16.46652 29.27513 18.79492 C27.53259 20.53746 25.40663 21.96687 24.04752 24.02252 C21.8895 27.28655 22.4 28.37433 22.4 32.0025 C22.4 34.913 22.4 37.8235 22.4 40.734 C22.4 43.6445 22.4 46.555 22.4 49.4655 C22.4 50.12982 22.4 55.69742 22.4 56 C26.15 56 29.9 56 33.65 56 C33.65 54.792 33.65 53.584 33.65 52.376 C33.65 51.40583 33.65 50.43566 33.65 49.4655 C33.65 46.555 33.65 43.6445 33.65 40.734 C33.65 37.8235 33.65 34.913 33.65 32.0025 C33.65 31.44498 33.65 30.88747 33.65 30.32995 zM0 44.8 C0 45.2832 0 45.7664 0 46.2496 C0 46.63767 0 47.02573 0 47.4138 C0 48.578 0 49.7422 0 50.9064 C0 52.60423 0 54.30206 0 55.99989 L11.25 55.99989 C11.25 55.46626 11.25 54.93263 11.25 54.399 C11.25 53.2348 11.25 52.0706 11.25 50.9064 C11.25 49.7422 11.25 48.578 11.25 47.4138 C11.25 47.18226 11.25 44.93095 11.25 44.8 L0 44.8 zM0 0 C0 1.4496 0 2.8992 0 4.34881 C0 5.51301 0 6.6772 0 7.8414 C0 11.334 0 14.8266 0 18.3192 C0 23.41269 0 28.50618 0 33.59966 L11.25 33.59966 C11.25 31.99878 11.25 30.39789 11.25 28.797 C11.25 25.3044 11.25 21.8118 11.25 18.3192 C11.25 14.8266 11.25 11.334 11.25 7.8414 C11.25 5.2276 11.25 2.6138 11.25 0 L0 0 z" />
<glyph unicode="A" horiz-adv-x="67.25" d="M22.4 56.025 C23.8496 56.025 25.2992 56.025 26.74881 56.025 C27.91301 56.025 29.0772 56.025 30.2414 56.025 C33.734 56.025 37.2266 56.025 40.7192 56.025 C45.81269 56.025 50.90618 56.025 55.99966 56.025 L55.99966 44.775 C54.39878 44.775 52.79789 44.775 51.197 44.775 C47.7044 44.775 44.2118 44.775 40.7192 44.775 C37.2266 44.775 33.734 44.775 30.2414 44.775 C27.6276 44.775 25.0138 44.775 22.4 44.775 L22.4 56.025 zM33.625 30.32995 C34.04223 29.91272 34.45945 29.4955 34.87668 29.07827 C35.65281 28.30214 36.42895 27.52601 37.20508 26.74987 C39.53348 24.42147 41.86188 22.09307 44.19028 19.76467 C47.58594 16.36902 50.98159 12.97336 54.37725 9.5777 L46.4223 1.62275 C45.35504 2.69001 44.28778 3.75727 43.22052 4.82452 C40.89213 7.15292 38.56373 9.48132 36.23533 11.80972 C33.90693 14.13812 31.57853 16.46652 29.25013 18.79492 C27.50759 20.53746 25.38163 21.96687 24.02252 24.02252 C21.8645 27.28655 22.375 28.37433 22.375 32.0025 C22.375 34.913 22.375 37.8235 22.375 40.734 C22.375 43.6445 22.375 46.555 22.375 49.4655 C22.375 50.12982 22.375 55.69742 22.375 56 C26.125 56 29.875 56 33.625 56 C33.625 54.792 33.625 53.584 33.625 52.376 C33.625 51.40583 33.625 50.43566 33.625 49.4655 C33.625 46.555 33.625 43.6445 33.625 40.734 C33.625 37.8235 33.625 34.913 33.625 32.0025 C33.625 31.44498 33.625 30.88747 33.625 30.32995 zM0 56.025 C0.4832 56.025 0.9664 56.025 1.4496 56.025 C1.83767 56.025 2.22573 56.025 2.6138 56.025 C3.778 56.025 4.9422 56.025 6.1064 56.025 C7.80423 56.025 9.50206 56.025 11.19989 56.025 L11.19989 44.775 C10.66626 44.775 10.13263 44.775 9.599 44.775 C8.4348 44.775 7.2706 44.775 6.1064 44.775 C4.9422 44.775 3.778 44.775 2.6138 44.775 C2.22573 44.775 1.83767 44.775 1.4496 44.775 C0.9664 44.775 0.4832 44.775 0 44.775 L0 56.025 z" />
<glyph unicode="B" horiz-adv-x="67.275" d="M31.27005 44.775 C29.4329 44.775 27.59575 44.775 25.7586 44.775 C22.266 44.775 18.7734 44.775 15.2808 44.775 C10.18731 44.775 5.09382 44.775 0.00034 44.775 C0.00034 48.525 0.00034 52.275 0.00034 56.025 C1.60122 56.025 3.20211 56.025 4.803 56.025 C8.2956 56.025 11.7882 56.025 15.2808 56.025 C18.7734 56.025 22.266 56.025 25.7586 56.025 C28.3724 56.025 31.03592 56.5324 33.6 56.025 C37.2685 55.29905 37.63161 54.32334 39.97898 51.97598 C41.72527 50.22968 43.47157 48.48338 45.21787 46.73708 C46.96417 44.99078 48.71047 43.24448 50.45677 41.49818 C51.76367 40.19128 53.40215 39.14742 54.37748 37.57748 C55.13479 36.35847 55.61852 34.97622 56.025 33.59989 C56.17615 33.08811 56.025 32.53263 56.025 31.999 C56.025 30.8348 56.025 29.6706 56.025 28.5064 C56.025 27.3422 56.025 26.178 56.025 25.0138 C56.025 23.36588 56.025 21.71797 56.025 20.07005 C55.47577 19.52082 54.92654 18.97159 54.37731 18.42236 C51.83056 15.87561 49.28382 13.32887 46.73708 10.78213 C44.99078 9.03583 43.24448 7.28953 41.49818 5.54323 C40.19128 4.23633 39.14743 2.59783 37.57748 1.62252 C33.93934 -0.63759 33.0061 -0.025 28.797 -0.025 C25.3044 -0.025 21.8118 -0.025 18.3192 -0.025 C14.8266 -0.025 11.334 -0.025 7.8414 -0.025 C5.2276 -0.025 2.6138 -0.025 0 -0.025 L0 11.225 C1.4496 11.225 2.8992 11.225 4.34881 11.225 C5.51301 11.225 6.6772 11.225 7.8414 11.225 C11.334 11.225 14.8266 11.225 18.3192 11.225 C22.63615 11.225 26.9531 11.225 31.27005 11.225 C32.02777 11.98273 32.7855 12.74045 33.54323 13.49818 C35.28953 15.24448 37.03583 16.99078 38.78213 18.73708 C40.77975 20.7347 42.77738 22.73233 44.775 24.72995 C44.775 24.80091 44.775 24.91918 44.775 25.0138 C44.775 26.178 44.775 27.3422 44.775 28.5064 C44.775 29.42762 44.775 30.34883 44.775 31.27005 C44.01727 32.02777 43.25955 32.7855 42.50182 33.54323 C40.75552 35.28953 39.00922 37.03583 37.26292 38.78213 C35.51662 40.52843 33.77032 42.27473 32.02402 44.02102 C31.7727 44.27235 31.52137 44.52367 31.27005 44.775 zM0 33.625 C0.9664 33.625 1.9328 33.625 2.8992 33.625 C3.67534 33.625 4.45147 33.625 5.2276 33.625 C7.556 33.625 9.8844 33.625 12.2128 33.625 C15.60846 33.625 19.00412 33.625 22.39978 33.625 L22.39978 22.375 C21.33252 22.375 20.26526 22.375 19.198 22.375 C16.8696 22.375 14.5412 22.375 12.2128 22.375 C9.8844 22.375 7.556 22.375 5.2276 22.375 C3.48507 22.375 1.74253 22.375 0 22.375 L0 33.625 z" />
<glyph unicode="C" horiz-adv-x="67.3" d="M22.4 42.0125 C22.4 43.6218 22.4 45.2311 22.4 46.8404 C22.4 48.5867 22.4 50.333 22.4 52.0793 C22.4 53.3862 22.4 54.6931 22.4 56 C26.15 56 29.9 56 33.65 56 C33.65 55.2752 33.65 54.5504 33.65 53.8256 C33.65 53.2435 33.65 52.6614 33.65 52.0793 C33.65 50.333 33.65 48.5867 33.65 46.8404 C33.65 45.0941 33.65 43.3478 33.65 41.6015 C33.65 40.80106 33.89811 39.96119 33.65 39.20017 C33.13017 37.60566 32.42441 36.02787 31.4 34.7 C30.66213 33.74354 29.4672 33.2504 28.5008 32.5256 C27.72466 31.9435 26.94853 31.3614 26.1724 30.7793 C23.844 29.033 21.5156 27.2867 19.1872 25.5404 C16.54147 23.5561 13.89573 21.5718 11.25 19.5875 C11.25 18.78247 11.25 17.97743 11.25 17.1724 C11.25 14.844 11.25 12.5156 11.25 10.1872 C11.25 6.79154 11.25 3.39588 11.25 0.00022 L0 0.00022 C0 1.06748 0 2.13474 0 3.202 C0 5.5304 0 7.8588 0 10.1872 C0 12.5156 0 14.844 0 17.1724 C0 19.85243 0 22.53247 0 25.2125 C0.75007 25.77506 1.50015 26.33761 2.25022 26.90017 C5.64588 29.44691 9.04154 31.99366 12.4372 34.5404 C14.7656 36.2867 17.094 38.033 19.4224 39.7793 C20.19853 40.3614 20.97466 40.9435 21.7508 41.5256 C21.9672 41.6879 22.1836 41.8502 22.4 42.0125 zM44.8 19.5875 C43.80747 20.3319 42.81493 21.0763 41.8224 21.8207 C39.494 23.567 37.1656 25.3133 34.8372 27.0596 C31.44154 29.60634 28.04588 32.15309 24.65022 34.69983 C26.90022 37.69983 29.15022 40.69983 31.40022 43.69983 C32.46748 42.89939 33.53474 42.09894 34.602 41.2985 C36.9304 39.5522 39.2588 37.8059 41.5872 36.0596 C43.9156 34.3133 46.244 32.567 48.5724 30.8207 C50.31493 29.5138 52.46953 28.62461 53.8 26.9 C54.82441 25.57211 55.57972 24.00961 56.05 22.39978 C56.34927 21.37534 56.05 20.26526 56.05 19.198 C56.05 16.8696 56.05 14.5412 56.05 12.2128 C56.05 9.8844 56.05 7.556 56.05 5.2276 C56.05 4.45147 56.05 3.67534 56.05 2.8992 C56.05 1.9328 56.05 0.9664 56.05 0 L44.8 0 C44.8 0.9664 44.8 1.9328 44.8 2.8992 C44.8 3.67534 44.8 4.45147 44.8 5.2276 C44.8 7.556 44.8 9.8844 44.8 12.2128 C44.8 14.5412 44.8 16.8696 44.8 19.198 C44.8 19.32783 44.8 19.45767 44.8 19.5875 z" />
<glyph unicode="D" horiz-adv-x="67.3" d="M56.05 56 C56.05 53.584 56.05 51.16799 56.05 48.75199 C56.05 46.81166 56.05 44.87133 56.05 42.93099 C56.05 37.10999 56.05 31.28899 56.05 25.468 C56.05 16.97885 56.05 8.48971 56.05 0.00056 L44.8 0.00056 C44.8 2.66871 44.8 5.33685 44.8 8.005 C44.8 13.826 44.8 19.647 44.8 25.468 C44.8 31.28899 44.8 37.10999 44.8 42.93099 C44.8 47.28733 44.8 51.64366 44.8 56 L56.05 56 zM19.15495 11.225 C19.6852 11.225 20.21545 11.225 20.7457 11.225 C22.492 11.225 24.2383 11.225 25.9846 11.225 C28.53134 11.225 31.07809 11.225 33.62483 11.225 L33.62483 -0.025 C32.82439 -0.025 32.02394 -0.025 31.2235 -0.025 C29.4772 -0.025 27.7309 -0.025 25.9846 -0.025 C24.2383 -0.025 22.492 -0.025 20.7457 -0.025 C18.66215 -0.025 16.5786 -0.025 14.49505 -0.025 C13.94584 0.52421 13.39662 1.07342 12.84741 1.62264 C11.14958 3.32047 9.45175 5.01829 7.75393 6.71612 C6.58973 7.88032 5.42553 9.04452 4.26133 10.20872 C3.39006 11.07999 2.25823 11.75236 1.64752 12.82252 C0.93623 14.06896 0.35888 15.41065 0 16.80017 C-0.20017 17.57518 0 18.40106 0 19.2015 C0 20.9478 0 22.6941 0 24.4404 C0 26.1867 0 27.933 0 29.6793 C0 30.9862 0 32.2931 0 33.6 C3.75 33.6 7.5 33.6 11.25 33.6 C11.25 32.8752 11.25 32.1504 11.25 31.4256 C11.25 30.8435 11.25 30.2614 11.25 29.6793 C11.25 27.933 11.25 26.1867 11.25 24.4404 C11.25 22.67025 11.25 20.9001 11.25 19.12995 C11.57209 18.80786 11.89418 18.48577 12.21628 18.16367 C13.38048 16.99947 14.54468 15.83527 15.70888 14.67107 C16.48501 13.89494 17.26114 13.11881 18.03728 12.34268 C18.40983 11.97012 18.78239 11.59756 19.15495 11.225 zM33.625 22.375 C33.1418 22.375 32.6586 22.375 32.1754 22.375 C31.78733 22.375 31.39927 22.375 31.0112 22.375 C29.847 22.375 28.6828 22.375 27.5186 22.375 C25.82077 22.375 24.12294 22.375 22.42511 22.375 L22.42511 33.625 C22.95874 33.625 23.49237 33.625 24.026 33.625 C25.1902 33.625 26.3544 33.625 27.5186 33.625 C28.6828 33.625 29.847 33.625 31.0112 33.625 C31.39927 33.625 31.78733 33.625 32.1754 33.625 C32.6586 33.625 33.1418 33.625 33.625 33.625 L33.625 22.375 z" />
<glyph unicode="E" horiz-adv-x="67.25" d="M0 56.025 C1.4496 56.025 2.8992 56.025 4.34881 56.025 C5.51301 56.025 6.6772 56.025 7.8414 56.025 C11.334 56.025 14.8266 56.025 18.3192 56.025 C23.41269 56.025 28.50618 56.025 33.59966 56.025 L33.59966 44.775 C31.99878 44.775 30.39789 44.775 28.797 44.775 C25.3044 44.775 21.8118 44.775 18.3192 44.775 C14.8266 44.775 11.334 44.775 7.8414 44.775 C5.2276 44.775 2.6138 44.775 0 44.775 L0 56.025 zM56 44.775 C55.5168 44.775 55.0336 44.775 54.5504 44.775 C54.16233 44.775 53.77427 44.775 53.3862 44.775 C52.222 44.775 51.0578 44.775 49.8936 44.775 C48.19577 44.775 46.49794 44.775 44.80011 44.775 L44.80011 56.025 C45.33374 56.025 45.86737 56.025 46.401 56.025 C47.5652 56.025 48.7294 56.025 49.8936 56.025 C51.0578 56.025 52.222 56.025 53.3862 56.025 C54.25747 56.025 55.12873 56.025 56 56.025 L56 44.775 zM22.375 30.32995 C22.375 31.73147 22.375 33.13299 22.375 34.5345 C22.375 37.445 22.375 40.3555 22.375 43.266 C22.375 47.51057 22.375 51.75515 22.375 55.99972 C26.125 55.99972 29.875 55.99972 33.625 55.99972 C33.625 54.66565 33.625 53.33157 33.625 51.9975 C33.625 49.087 33.625 46.1765 33.625 43.266 C33.625 40.3555 33.625 37.445 33.625 34.5345 C33.625 31.57969 33.625 28.62487 33.625 25.67005 C33.07575 25.1208 32.5265 24.57155 31.97725 24.0223 C28.58159 20.62664 25.18594 17.23098 21.79028 13.83533 C19.46188 11.50693 17.13348 9.17853 14.80508 6.85013 C13.06254 5.10759 11.32001 3.36506 9.57748 1.62252 L1.62252 9.57748 C2.58893 10.54388 3.55533 11.51028 4.52173 12.47668 C5.29786 13.25281 6.07399 14.02895 6.85013 14.80508 C9.17853 17.13348 11.50693 19.46188 13.83533 21.79028 C16.16373 24.11868 18.49213 26.44708 20.82052 28.77548 C21.33868 29.29363 21.85684 29.81179 22.375 30.32995 z" />
<glyph unicode="F" horiz-adv-x="67.25" d="M0 33.625 C1.4496 33.625 2.8992 33.625 4.34881 33.625 C5.51301 33.625 6.6772 33.625 7.8414 33.625 C11.334 33.625 14.8266 33.625 18.3192 33.625 C23.41269 33.625 28.50618 33.625 33.59966 33.625 L33.59966 22.375 C31.99878 22.375 30.39789 22.375 28.797 22.375 C25.3044 22.375 21.8118 22.375 18.3192 22.375 C14.8266 22.375 11.334 22.375 7.8414 22.375 C5.2276 22.375 2.6138 22.375 0 22.375 L0 33.625 zM56.025 56 C56.025 53.584 56.025 51.16799 56.025 48.75199 C56.025 46.81166 56.025 44.87133 56.025 42.93099 C56.025 37.10999 56.025 31.28899 56.025 25.468 C56.025 16.97885 56.025 8.48971 56.025 0.00056 L44.775 0.00056 C44.775 2.66871 44.775 5.33685 44.775 8.005 C44.775 13.826 44.775 19.647 44.775 25.468 C44.775 31.28899 44.775 37.10999 44.775 42.93099 C44.775 47.28733 44.775 51.64366 44.775 56 L56.025 56 zM56 44.775 C54.0672 44.775 52.1344 44.775 50.20159 44.775 C48.64933 44.775 47.09706 44.775 45.54479 44.775 C40.88799 44.775 36.2312 44.775 31.5744 44.775 C24.78308 44.775 17.99176 44.775 11.20045 44.775 L11.20045 56.025 C13.33497 56.025 15.46948 56.025 17.604 56.025 C22.2608 56.025 26.9176 56.025 31.5744 56.025 C36.2312 56.025 40.88799 56.025 45.54479 56.025 C49.02986 56.025 52.51493 56.025 56 56.025 L56 44.775 z" />
<glyph unicode="G" horiz-adv-x="67.25" d="M36.87005 44.775 C34.59726 44.775 32.32448 44.775 30.05169 44.775 C25.977 44.775 21.9023 44.775 17.8276 44.775 C11.8852 44.775 5.94279 44.775 0.00039 44.775 L0.00039 56.025 C1.86809 56.025 3.7358 56.025 5.6035 56.025 C9.6782 56.025 13.7529 56.025 17.8276 56.025 C21.9023 56.025 25.977 56.025 30.05169 56.025 C33.87778 56.025 37.70387 56.025 41.52995 56.025 C42.07916 55.47579 42.62838 54.92658 43.17759 54.37736 C44.87542 52.67953 46.57325 50.98171 48.27107 49.28388 C49.43527 48.11968 50.59947 46.95548 51.76367 45.79128 C52.63494 44.92001 53.50621 44.04874 54.37748 43.17748 C51.72583 40.52583 49.07417 37.87417 46.42252 35.22252 C45.93932 35.70572 45.45612 36.18893 44.97292 36.67213 C44.58486 37.06019 44.19679 37.44826 43.80872 37.83633 C42.64452 39.00053 41.48032 40.16473 40.31612 41.32893 C39.53999 42.10506 38.76386 42.88119 37.98772 43.65732 C37.61517 44.02988 37.24261 44.40244 36.87005 44.775 zM44.775 0 C44.775 0.9664 44.775 1.9328 44.775 2.8992 C44.775 3.67534 44.775 4.45147 44.775 5.2276 C44.775 7.556 44.775 9.8844 44.775 12.2128 C44.775 15.60846 44.775 19.00412 44.775 22.39978 L56.025 22.39978 C56.025 21.33252 56.025 20.26526 56.025 19.198 C56.025 16.8696 56.025 14.5412 56.025 12.2128 C56.025 9.8844 56.025 7.556 56.025 5.2276 C56.025 4.45147 56.025 3.67534 56.025 2.8992 C56.025 1.9328 56.025 0.9664 56.025 0 L44.775 0 zM30.32995 11.225 C30.7613 11.225 31.19265 11.225 31.624 11.225 C32.59417 11.225 33.56434 11.225 34.5345 11.225 C37.445 11.225 40.3555 11.225 43.266 11.225 C47.51057 11.225 51.75515 11.225 55.99972 11.225 L55.99972 -0.025 C54.66565 -0.025 53.33157 -0.025 51.9975 -0.025 C49.087 -0.025 46.1765 -0.025 43.266 -0.025 C40.3555 -0.025 37.445 -0.025 34.5345 -0.025 C32.35634 -0.025 30.12873 -0.48642 28 -0.025 C23.9824 0.84586 23.61258 2.03247 20.82052 4.82452 C18.49213 7.15292 16.16373 9.48132 13.83533 11.80972 C11.50693 14.13812 9.17853 16.46652 6.85013 18.79492 C6.07399 19.57105 5.29786 20.34719 4.52173 21.12332 C3.55533 22.08972 2.58893 23.05612 1.62252 24.02252 C4.27417 26.67417 6.92583 29.32583 9.57748 31.97748 C10.54388 31.01107 11.51028 30.04467 12.47668 29.07827 C13.25281 28.30214 14.02895 27.52601 14.80508 26.74987 C17.13348 24.42147 19.46188 22.09307 21.79028 19.76467 C24.11868 17.43627 26.44708 15.10787 28.77548 12.77948 C29.29363 12.26132 29.81179 11.74316 30.32995 11.225 z" />
<glyph unicode="H" horiz-adv-x="67.25" d="M56 -0.025 C53.584 -0.025 51.16799 -0.025 48.75199 -0.025 C46.81166 -0.025 44.87133 -0.025 42.93099 -0.025 C37.10999 -0.025 31.28899 -0.025 25.468 -0.025 C16.97885 -0.025 8.48971 -0.025 0.00056 -0.025 L0.00056 11.225 C2.66871 11.225 5.33685 11.225 8.005 11.225 C13.826 11.225 19.647 11.225 25.468 11.225 C31.28899 11.225 37.10999 11.225 42.93099 11.225 C47.28733 11.225 51.64366 11.225 56 11.225 L56 -0.025 zM0 56.025 C2.416 56.025 4.83201 56.025 7.24801 56.025 C9.18834 56.025 11.12867 56.025 13.06901 56.025 C18.89001 56.025 24.71101 56.025 30.532 56.025 C39.02115 56.025 47.51029 56.025 55.99944 56.025 L55.99944 44.775 C53.33129 44.775 50.66315 44.775 47.995 44.775 C42.174 44.775 36.353 44.775 30.532 44.775 C24.71101 44.775 18.89001 44.775 13.06901 44.775 C11.12867 44.775 9.18834 44.775 7.24801 44.775 C4.83201 44.775 2.416 44.775 0 44.775 L0 56.025 zM28.7766 19.50596 C28.0518 20.71396 27.327 21.92196 26.6022 23.12997 C26.0201 24.10013 25.438 25.0703 24.8559 26.04047 C23.1096 28.95096 21.3633 31.86146 19.617 34.77196 C17.07026 39.01654 14.52351 43.26111 11.97677 47.50568 L21.62357 53.29376 C22.42401 51.95969 23.22445 50.62561 24.0249 49.29154 C25.7712 46.38104 27.5175 43.47054 29.2638 40.56004 C31.0101 37.64954 32.7564 34.73904 34.5027 31.82854 C35.8096 29.65037 37.1165 27.47221 38.4234 25.29404 L28.7766 19.50596 z" />
<glyph unicode="I" horiz-adv-x="67.275" d="M56.05 56 C56.05 54.5504 56.05 53.1008 56.05 51.65119 C56.05 50.48699 56.05 49.3228 56.05 48.1586 C56.05 44.666 56.05 41.1734 56.05 37.6808 C56.05 32.58731 56.05 27.49382 56.05 22.40034 L44.8 22.40034 C44.8 24.00122 44.8 25.60211 44.8 27.203 C44.8 30.6956 44.8 34.1882 44.8 37.6808 C44.8 41.1734 44.8 44.666 44.8 48.1586 C44.8 50.7724 44.8 53.3862 44.8 56 L56.05 56 zM30.35495 33.625 C31.75647 33.625 33.15799 33.625 34.5595 33.625 C37.47 33.625 40.3805 33.625 43.291 33.625 C47.53557 33.625 51.78015 33.625 56.02472 33.625 L56.02472 22.375 C54.69065 22.375 53.35657 22.375 52.0225 22.375 C49.112 22.375 46.2015 22.375 43.291 22.375 C40.3805 22.375 37.47 22.375 34.5595 22.375 C32.38134 22.375 30.15373 21.91358 28.025 22.375 C24.0074 23.24586 23.63758 24.43247 20.84552 27.22452 C18.51713 29.55292 16.18873 31.88132 13.86033 34.20972 C11.53193 36.53812 9.20353 38.86652 6.87513 41.19492 C5.13259 42.93746 3.39006 44.67999 1.64752 46.42252 C4.29917 49.07417 6.95083 51.72583 9.60248 54.37748 C10.56888 53.41107 11.53528 52.44467 12.50168 51.47827 C13.27781 50.70214 14.05395 49.92601 14.83008 49.14987 C17.15848 46.82147 19.48688 44.49307 21.81528 42.16467 C24.14368 39.83627 26.47208 37.50787 28.80048 35.17948 C29.31863 34.66132 29.83679 34.14316 30.35495 33.625 zM44.8 0 C44.8 0.4832 44.8 0.9664 44.8 1.4496 C44.8 1.83767 44.8 2.22573 44.8 2.6138 C44.8 3.778 44.8 4.9422 44.8 6.1064 C44.8 7.80423 44.8 9.50206 44.8 11.19989 L56.05 11.19989 C56.05 10.66626 56.05 10.13263 56.05 9.599 C56.05 8.4348 56.05 7.2706 56.05 6.1064 C56.05 4.9422 56.05 3.778 56.05 2.6138 C56.05 2.22573 56.05 1.83767 56.05 1.4496 C56.05 0.9664 56.05 0.4832 56.05 0 L44.8 0 z" />
<glyph unicode="J" horiz-adv-x="67.3" d="M11.25 11.2 C11.25 10.7168 11.25 10.2336 11.25 9.7504 C11.25 9.36233 11.25 8.97427 11.25 8.5862 C11.25 7.422 11.25 6.2578 11.25 5.0936 C11.25 3.39577 11.25 1.69794 11.25 0.00011 L0 0.00011 C0 0.53374 0 1.06737 0 1.601 C0 2.7652 0 3.9294 0 5.0936 C0 6.2578 0 7.422 0 8.5862 C0 9.45747 0 10.32873 0 11.2 L11.25 11.2 zM11.25 31.27005 C11.25 31.17543 11.25 31.08082 11.25 30.9862 C11.25 29.822 11.25 28.6578 11.25 27.4936 C11.25 25.79577 11.25 24.09794 11.25 22.40011 L0 22.40011 C0 22.93374 0 23.46737 0 24.001 C0 25.1652 0 26.3294 0 27.4936 C0 28.6578 0 29.822 0 30.9862 C0 32.63412 0 34.28203 0 35.92995 C0.54923 36.47918 1.09846 37.02841 1.64769 37.57764 C4.19444 40.12439 6.74118 42.67113 9.28792 45.21787 C11.03422 46.96417 12.78052 48.71047 14.52682 50.45677 C15.83372 51.76367 16.87758 53.40215 18.44752 54.37748 C19.66653 55.13479 21.04878 55.61852 22.42511 56.025 C22.93689 56.17615 23.49237 56.025 24.026 56.025 C25.1902 56.025 26.3544 56.025 27.5186 56.025 C28.6828 56.025 29.847 56.025 31.0112 56.025 C31.39927 56.025 31.78733 56.025 32.1754 56.025 C32.6586 56.025 33.1418 56.025 33.625 56.025 C33.625 52.275 33.625 48.525 33.625 44.775 C33.1418 44.775 32.6586 44.775 32.1754 44.775 C31.78733 44.775 31.39927 44.775 31.0112 44.775 C29.847 44.775 28.6828 44.775 27.5186 44.775 C26.59738 44.775 25.67617 44.775 24.75495 44.775 C23.99723 44.01727 23.2395 43.25955 22.48177 42.50182 C20.73547 40.75552 18.98917 39.00922 17.24287 37.26292 C15.49657 35.51662 13.75027 33.77032 12.00398 32.02402 C11.75265 31.7727 11.50133 31.52137 11.25 31.27005 zM44.8 0 C44.8 2.416 44.8 4.83201 44.8 7.24801 C44.8 9.18834 44.8 11.12867 44.8 13.06901 C44.8 18.89001 44.8 24.71101 44.8 30.532 C44.8 39.02115 44.8 47.51029 44.8 55.99944 L56.05 55.99944 C56.05 53.33129 56.05 50.66315 56.05 47.995 C56.05 42.174 56.05 36.353 56.05 30.532 C56.05 24.71101 56.05 18.89001 56.05 13.06901 C56.05 8.71267 56.05 4.35634 56.05 0 L44.8 0 z" />
<glyph unicode="K" horiz-adv-x="61.65" d="M33.6 44.775 C32.1504 44.775 30.7008 44.775 29.25119 44.775 C28.08699 44.775 26.9228 44.775 25.7586 44.775 C22.266 44.775 18.7734 44.775 15.2808 44.775 C10.18731 44.775 5.09382 44.775 0.00034 44.775 L0.00034 56.025 C1.60122 56.025 3.20211 56.025 4.803 56.025 C8.2956 56.025 11.7882 56.025 15.2808 56.025 C18.7734 56.025 22.266 56.025 25.7586 56.025 C28.3724 56.025 30.9862 56.025 33.6 56.025 L33.6 44.775 zM11.225 33.6 C11.225 32.1504 11.225 30.7008 11.225 29.25119 C11.225 28.08699 11.225 26.9228 11.225 25.7586 C11.225 22.266 11.225 18.7734 11.225 15.2808 C11.225 10.18731 11.225 5.09382 11.225 0.00034 L-0.025 0.00034 C-0.025 1.60122 -0.025 3.20211 -0.025 4.803 C-0.025 8.2956 -0.025 11.7882 -0.025 15.2808 C-0.025 18.7734 -0.025 22.266 -0.025 25.7586 C-0.025 28.3724 -0.025 30.9862 -0.025 33.6 L11.225 33.6 zM25.67005 22.375 C25.2387 22.375 24.80735 22.375 24.376 22.375 C23.40583 22.375 22.43566 22.375 21.4655 22.375 C18.555 22.375 15.6445 22.375 12.734 22.375 C8.48943 22.375 4.24485 22.375 0.00028 22.375 L0.00028 33.625 C1.33435 33.625 2.66843 33.625 4.0025 33.625 C6.913 33.625 9.8235 33.625 12.734 33.625 C15.6445 33.625 18.555 33.625 21.4655 33.625 C23.64366 33.625 25.87127 34.08642 28 33.625 C32.0176 32.75414 32.38742 31.56753 35.17948 28.77548 C37.50787 26.44708 39.83627 24.11868 42.16467 21.79028 C44.49307 19.46188 46.82147 17.13348 49.14987 14.80508 C50.89241 13.06254 52.63494 11.32001 54.37748 9.57748 C51.72583 6.92583 49.07417 4.27417 46.42252 1.62252 C45.45612 2.58893 44.48972 3.55533 43.52332 4.52173 C42.74719 5.29786 41.97105 6.07399 41.19492 6.85013 C38.86652 9.17853 36.53812 11.50693 34.20972 13.83533 C31.88132 16.16373 29.55292 18.49213 27.22452 20.82052 C26.70637 21.33868 26.18821 21.85684 25.67005 22.375 z" />
<glyph unicode="L" horiz-adv-x="67.25" d="M0 11.225 C0.4832 11.225 0.9664 11.225 1.4496 11.225 C1.83767 11.225 2.22573 11.225 2.6138 11.225 C3.778 11.225 4.9422 11.225 6.1064 11.225 C7.80423 11.225 9.50206 11.225 11.19989 11.225 L11.19989 -0.025 C10.66626 -0.025 10.13263 -0.025 9.599 -0.025 C8.4348 -0.025 7.2706 -0.025 6.1064 -0.025 C4.9422 -0.025 3.778 -0.025 2.6138 -0.025 C2.41315 -0.025 0.01363 -0.025 0 -0.025 L0 11.225 zM56 -0.025 C54.5504 -0.025 53.1008 -0.025 51.65119 -0.025 C50.48699 -0.025 49.3228 -0.025 48.1586 -0.025 C44.666 -0.025 41.1734 -0.025 37.6808 -0.025 C32.58731 -0.025 27.49382 -0.025 22.40034 -0.025 L22.40034 11.225 C24.00122 11.225 25.60211 11.225 27.203 11.225 C30.6956 11.225 34.1882 11.225 37.6808 11.225 C41.1734 11.225 44.666 11.225 48.1586 11.225 C49.3228 11.225 50.48699 11.225 51.65119 11.225 C53.1008 11.225 54.5504 11.225 56 11.225 L56 -0.025 zM56.025 56 C56.025 53.584 56.025 51.16799 56.025 48.75199 C56.025 46.81166 56.025 44.87133 56.025 42.93099 C56.025 37.10999 56.025 31.28899 56.025 25.468 C56.025 16.97885 56.025 8.48971 56.025 0.00056 L44.775 0.00056 C44.775 2.66871 44.775 5.33685 44.775 8.005 C44.775 13.826 44.775 19.647 44.775 25.468 C44.775 31.28899 44.775 37.10999 44.775 42.93099 C44.775 47.28733 44.775 51.64366 44.775 56 L56.025 56 z" />
<glyph unicode="M" horiz-adv-x="67.275" d="M11.25 56 C11.25 53.584 11.25 51.16799 11.25 48.75199 C11.25 46.81166 11.25 44.87133 11.25 42.93099 C11.25 37.10999 11.25 31.28899 11.25 25.468 C11.25 16.97885 11.25 8.48971 11.25 0.00056 L0 0.00056 C0 2.66871 0 5.33685 0 8.005 C0 13.826 0 19.647 0 25.468 C0 31.28899 0 37.10999 0 42.93099 C0 47.28733 0 51.64366 0 56 L11.25 56 zM56.05 56 C56.05 53.584 56.05 51.16799 56.05 48.75199 C56.05 46.81166 56.05 44.87133 56.05 42.93099 C56.05 37.10999 56.05 31.28899 56.05 25.468 C56.05 16.97885 56.05 8.48971 56.05 0.00056 L44.8 0.00056 C44.8 2.66871 44.8 5.33685 44.8 8.005 C44.8 13.826 44.8 19.647 44.8 25.468 C44.8 31.28899 44.8 37.10999 44.8 42.93099 C44.8 47.28733 44.8 51.64366 44.8 56 L56.05 56 zM56.025 44.775 C54.5754 44.775 53.1258 44.775 51.67619 44.775 C50.51199 44.775 49.3478 44.775 48.1836 44.775 C44.691 44.775 41.1984 44.775 37.7058 44.775 C32.61231 44.775 27.51882 44.775 22.42534 44.775 L22.42534 56.025 C24.02622 56.025 25.62711 56.025 27.228 56.025 C30.7206 56.025 34.2132 56.025 37.7058 56.025 C41.1984 56.025 44.691 56.025 48.1836 56.025 C50.7974 56.025 53.4112 56.025 56.025 56.025 L56.025 44.775 zM22.4 22.4 C22.4 23.8496 22.4 25.2992 22.4 26.74881 C22.4 27.91301 22.4 29.0772 22.4 30.2414 C22.4 33.734 22.4 37.2266 22.4 40.7192 C22.4 45.81269 22.4 50.90618 22.4 55.99966 L33.65 55.99966 C33.65 54.39878 33.65 52.79789 33.65 51.197 C33.65 47.7044 33.65 44.2118 33.65 40.7192 C33.65 37.2266 33.65 33.734 33.65 30.2414 C33.65 27.6276 33.65 25.0138 33.65 22.4 L22.4 22.4 zM22.4 0 C22.4 0.4832 22.4 0.9664 22.4 1.4496 C22.4 1.83767 22.4 2.22573 22.4 2.6138 C22.4 3.778 22.4 4.9422 22.4 6.1064 C22.4 7.80423 22.4 9.50206 22.4 11.19989 L33.65 11.19989 C33.65 10.66626 33.65 10.13263 33.65 9.599 C33.65 8.4348 33.65 7.2706 33.65 6.1064 C33.65 4.9422 33.65 3.778 33.65 2.6138 C33.65 2.22573 33.65 1.83767 33.65 1.4496 C33.65 0.9664 33.65 0.4832 33.65 0 L22.4 0 z" />
<glyph unicode="N" horiz-adv-x="67.275" d="M11.225 56 C11.225 53.584 11.225 51.16799 11.225 48.75199 C11.225 46.81166 11.225 44.87133 11.225 42.93099 C11.225 37.10999 11.225 31.28899 11.225 25.468 C11.225 16.97885 11.225 8.48971 11.225 0.00056 L-0.025 0.00056 C-0.025 2.66871 -0.025 5.33685 -0.025 8.005 C-0.025 13.826 -0.025 19.647 -0.025 25.468 C-0.025 31.28899 -0.025 37.10999 -0.025 42.93099 C-0.025 47.28733 -0.025 51.64366 -0.025 56 L11.225 56 zM33.6 44.775 C32.1504 44.775 30.7008 44.775 29.25119 44.775 C28.08699 44.775 26.9228 44.775 25.7586 44.775 C22.266 44.775 18.7734 44.775 15.2808 44.775 C10.18731 44.775 5.09382 44.775 0.00034 44.775 L0.00034 56.025 C1.60122 56.025 3.20211 56.025 4.803 56.025 C8.2956 56.025 11.7882 56.025 15.2808 56.025 C18.7734 56.025 22.266 56.025 25.7586 56.025 C28.3724 56.025 30.9862 56.025 33.6 56.025 L33.6 44.775 zM22.375 22.4 C22.375 23.8496 22.375 25.2992 22.375 26.74881 C22.375 27.91301 22.375 29.0772 22.375 30.2414 C22.375 33.734 22.375 37.2266 22.375 40.7192 C22.375 45.81269 22.375 50.90618 22.375 55.99966 L33.625 55.99966 C33.625 54.39878 33.625 52.79789 33.625 51.197 C33.625 47.7044 33.625 44.2118 33.625 40.7192 C33.625 37.2266 33.625 33.734 33.625 30.2414 C33.625 27.6276 33.625 25.0138 33.625 22.4 L22.375 22.4 zM22.375 0 C22.375 0.4832 22.375 0.9664 22.375 1.4496 C22.375 1.83767 22.375 2.22573 22.375 2.6138 C22.375 3.778 22.375 4.9422 22.375 6.1064 C22.375 7.80423 22.375 9.50206 22.375 11.19989 L33.625 11.19989 C33.625 10.66626 33.625 10.13263 33.625 9.599 C33.625 8.4348 33.625 7.2706 33.625 6.1064 C33.625 4.9422 33.625 3.778 33.625 2.6138 C33.625 2.22573 33.625 1.83767 33.625 1.4496 C33.625 0.9664 33.625 0.4832 33.625 0 L22.375 0 zM56.025 56 C56.025 53.584 56.025 51.16799 56.025 48.75199 C56.025 46.81166 56.025 44.87133 56.025 42.93099 C56.025 37.10999 56.025 31.28899 56.025 25.468 C56.025 16.97885 56.025 8.48971 56.025 0.00056 L44.775 0.00056 C44.775 2.66871 44.775 5.33685 44.775 8.005 C44.775 13.826 44.775 19.647 44.775 25.468 C44.775 31.28899 44.775 37.10999 44.775 42.93099 C44.775 47.28733 44.775 51.64366 44.775 56 L56.025 56 z" />
<glyph unicode="O" horiz-adv-x="61.65" d="M11.225 56 C11.225 54.5504 11.225 53.1008 11.225 51.65119 C11.225 50.48699 11.225 49.3228 11.225 48.1586 C11.225 44.666 11.225 41.1734 11.225 37.6808 C11.225 32.58731 11.225 27.49382 11.225 22.40034 L-0.025 22.40034 C-0.025 24.00122 -0.025 25.60211 -0.025 27.203 C-0.025 30.6956 -0.025 34.1882 -0.025 37.6808 C-0.025 41.1734 -0.025 44.666 -0.025 48.1586 C-0.025 50.7724 -0.025 53.3862 -0.025 56 L11.225 56 zM25.67005 33.625 C26.08728 34.04223 26.5045 34.45945 26.92173 34.87668 C27.69786 35.65281 28.47399 36.42895 29.25013 37.20508 C31.57853 39.53348 33.90693 41.86188 36.23533 44.19028 C39.63098 47.58594 43.02664 50.98159 46.4223 54.37725 C49.07395 51.7256 51.7256 49.07395 54.37725 46.4223 C53.30999 45.35504 52.24273 44.28778 51.17548 43.22052 C48.84708 40.89213 46.51868 38.56373 44.19028 36.23533 C41.86188 33.90693 39.53348 31.57853 37.20508 29.25013 C35.46254 27.50759 34.03313 25.38163 31.97748 24.02252 C28.71345 21.8645 27.62567 22.375 23.9975 22.375 C21.087 22.375 18.1765 22.375 15.266 22.375 C12.3555 22.375 9.445 22.375 6.5345 22.375 C5.56434 22.375 4.59417 22.375 3.624 22.375 C2.416 22.375 1.208 22.375 0 22.375 L0 33.625 C1.208 33.625 2.416 33.625 3.624 33.625 C4.59417 33.625 5.56434 33.625 6.5345 33.625 C9.445 33.625 12.3555 33.625 15.266 33.625 C18.1765 33.625 21.087 33.625 23.9975 33.625 C24.55502 33.625 25.11253 33.625 25.67005 33.625 zM-0.025 0 C-0.025 0.4832 -0.025 0.9664 -0.025 1.4496 C-0.025 1.83767 -0.025 2.22573 -0.025 2.6138 C-0.025 3.778 -0.025 4.9422 -0.025 6.1064 C-0.025 7.80423 -0.025 9.50206 -0.025 11.19989 L11.225 11.19989 C11.225 10.66626 11.225 10.13263 11.225 9.599 C11.225 8.4348 11.225 7.2706 11.225 6.1064 C11.225 4.9422 11.225 3.778 11.225 2.6138 C11.225 2.22573 11.225 1.83767 11.225 1.4496 C11.225 0.9664 11.225 0.4832 11.225 0 L-0.025 0 z" />
<glyph unicode="P" horiz-adv-x="67.275" d="M11.25 14.47005 C11.25 13.9398 11.25 13.40955 11.25 12.8793 C11.25 11.133 11.25 9.3867 11.25 7.6404 C11.25 5.09366 11.25 2.54691 11.25 0.00017 L0 0.00017 C0 0.80061 0 1.60106 0 2.4015 C0 4.1478 0 5.8941 0 7.6404 C0 9.3867 0 11.133 0 12.8793 C0 14.96285 0 17.0464 0 19.12995 C0.54921 19.67916 1.09842 20.22838 1.64764 20.77759 C3.34547 22.47542 5.04329 24.17325 6.74112 25.87107 C7.90532 27.03527 9.06952 28.19947 10.23372 29.36367 C11.10499 30.23494 11.77736 31.36677 12.84752 31.97748 C14.09396 32.68877 15.43565 33.26612 16.82517 33.625 C17.60018 33.82517 18.42606 33.625 19.2265 33.625 C20.9728 33.625 22.7191 33.625 24.4654 33.625 C26.2117 33.625 27.958 33.625 29.7043 33.625 C31.0112 33.625 32.3181 33.625 33.625 33.625 C33.625 29.875 33.625 26.125 33.625 22.375 C32.9002 22.375 32.1754 22.375 31.4506 22.375 C30.8685 22.375 30.2864 22.375 29.7043 22.375 C27.958 22.375 26.2117 22.375 24.4654 22.375 C22.69525 22.375 20.9251 22.375 19.15495 22.375 C18.83286 22.05291 18.51077 21.73082 18.18867 21.40872 C17.02447 20.24452 15.86027 19.08032 14.69607 17.91612 C13.91994 17.13999 13.14381 16.36386 12.36768 15.58772 C11.99512 15.21517 11.62256 14.84261 11.25 14.47005 zM56.025 22.375 C55.5418 22.375 55.0586 22.375 54.5754 22.375 C54.18733 22.375 53.79927 22.375 53.4112 22.375 C52.247 22.375 51.0828 22.375 49.9186 22.375 C48.22077 22.375 46.52294 22.375 44.82511 22.375 L44.82511 33.625 C45.35874 33.625 45.89237 33.625 46.426 33.625 C47.5902 33.625 48.7544 33.625 49.9186 33.625 C51.0828 33.625 52.247 33.625 53.4112 33.625 C54.28247 33.625 55.15373 33.625 56.025 33.625 L56.025 22.375 zM11.225 56.025 C13.1578 56.025 15.0906 56.025 17.02341 56.025 C18.57567 56.025 20.12794 56.025 21.68021 56.025 C26.33701 56.025 30.9938 56.025 35.6506 56.025 C42.44192 56.025 49.23324 56.025 56.02455 56.025 L56.02455 44.775 C53.89003 44.775 51.75552 44.775 49.621 44.775 C44.9642 44.775 40.3074 44.775 35.6506 44.775 C30.9938 44.775 26.33701 44.775 21.68021 44.775 C18.19514 44.775 14.71007 44.775 11.225 44.775 L11.225 56.025 z" />
<glyph unicode="Q" horiz-adv-x="67.25" d="M11.2 -0.025 C10.7168 -0.025 10.2336 -0.025 9.7504 -0.025 C9.36233 -0.025 8.97427 -0.025 8.5862 -0.025 C7.422 -0.025 6.2578 -0.025 5.0936 -0.025 C3.39577 -0.025 1.69794 -0.025 0.00011 -0.025 L0.00011 11.225 C0.53374 11.225 1.06737 11.225 1.601 11.225 C2.7652 11.225 3.9294 11.225 5.0936 11.225 C6.2578 11.225 7.422 11.225 8.5862 11.225 C9.45747 11.225 10.32873 11.225 11.2 11.225 L11.2 -0.025 zM33.6 -0.025 C33.1168 -0.025 32.6336 -0.025 32.1504 -0.025 C31.76233 -0.025 31.37427 -0.025 30.9862 -0.025 C29.822 -0.025 28.6578 -0.025 27.4936 -0.025 C25.79577 -0.025 24.09794 -0.025 22.40011 -0.025 L22.40011 11.225 C22.93374 11.225 23.46737 11.225 24.001 11.225 C25.1652 11.225 26.3294 11.225 27.4936 11.225 C28.6578 11.225 29.822 11.225 30.9862 11.225 C31.85747 11.225 32.72873 11.225 33.6 11.225 L33.6 -0.025 zM56 -0.025 C55.5168 -0.025 55.0336 -0.025 54.5504 -0.025 C54.16233 -0.025 53.77427 -0.025 53.3862 -0.025 C52.222 -0.025 51.0578 -0.025 49.8936 -0.025 C48.19577 -0.025 46.49794 -0.025 44.80011 -0.025 L44.80011 11.225 C45.33374 11.225 45.86737 11.225 46.401 11.225 C47.5652 11.225 48.7294 11.225 49.8936 11.225 C51.0578 11.225 52.222 11.225 53.3862 11.225 C54.25747 11.225 55.12873 11.225 56 11.225 L56 -0.025 zM11.225 56 C11.225 54.5504 11.225 53.1008 11.225 51.65119 C11.225 50.48699 11.225 49.3228 11.225 48.1586 C11.225 44.666 11.225 41.1734 11.225 37.6808 C11.225 32.58731 11.225 27.49382 11.225 22.40034 L-0.025 22.40034 C-0.025 24.00122 -0.025 25.60211 -0.025 27.203 C-0.025 30.6956 -0.025 34.1882 -0.025 37.6808 C-0.025 41.1734 -0.025 44.666 -0.025 48.1586 C-0.025 50.7724 -0.025 53.3862 -0.025 56 L11.225 56 zM25.67005 33.625 C26.08728 34.04223 26.5045 34.45945 26.92173 34.87668 C27.69786 35.65281 28.47399 36.42895 29.25013 37.20508 C31.57853 39.53348 33.90693 41.86188 36.23533 44.19028 C39.63098 47.58594 43.02664 50.98159 46.4223 54.37725 C49.07395 51.7256 51.7256 49.07395 54.37725 46.4223 C53.30999 45.35504 52.24273 44.28778 51.17548 43.22052 C48.84708 40.89213 46.51868 38.56373 44.19028 36.23533 C41.86188 33.90693 39.53348 31.57853 37.20508 29.25013 C35.46254 27.50759 34.03313 25.38163 31.97748 24.02252 C28.71345 21.8645 27.62567 22.375 23.9975 22.375 C21.087 22.375 18.1765 22.375 15.266 22.375 C12.3555 22.375 9.445 22.375 6.5345 22.375 C5.56434 22.375 4.59417 22.375 3.624 22.375 C2.416 22.375 1.208 22.375 0 22.375 L0 33.625 C1.208 33.625 2.416 33.625 3.624 33.625 C4.59417 33.625 5.56434 33.625 6.5345 33.625 C9.445 33.625 12.3555 33.625 15.266 33.625 C18.1765 33.625 21.087 33.625 23.9975 33.625 C24.55502 33.625 25.11253 33.625 25.67005 33.625 z" />
<glyph unicode="R" horiz-adv-x="67.275" d="M44.8 0 C44.8 1.4496 44.8 2.8992 44.8 4.34881 C44.8 5.51301 44.8 6.6772 44.8 7.8414 C44.8 11.334 44.8 14.8266 44.8 18.3192 C44.8 23.41269 44.8 28.50618 44.8 33.59966 L56.05 33.59966 C56.05 31.99878 56.05 30.39789 56.05 28.797 C56.05 25.3044 56.05 21.8118 56.05 18.3192 C56.05 14.8266 56.05 11.334 56.05 7.8414 C56.05 5.2276 56.05 2.6138 56.05 0 L44.8 0 zM30.35495 33.625 C31.75647 33.625 33.15799 33.625 34.5595 33.625 C37.47 33.625 40.3805 33.625 43.291 33.625 C47.53557 33.625 51.78015 33.625 56.02472 33.625 L56.02472 22.375 C54.69065 22.375 53.35657 22.375 52.0225 22.375 C49.112 22.375 46.2015 22.375 43.291 22.375 C40.3805 22.375 37.47 22.375 34.5595 22.375 C32.38134 22.375 30.15373 21.91358 28.025 22.375 C24.0074 23.24586 23.63758 24.43247 20.84552 27.22452 C18.51713 29.55292 16.18873 31.88132 13.86033 34.20972 C11.53193 36.53812 9.20353 38.86652 6.87513 41.19492 C5.13259 42.93746 3.39006 44.67999 1.64752 46.42252 C4.29917 49.07417 6.95083 51.72583 9.60248 54.37748 C10.56888 53.41107 11.53528 52.44467 12.50168 51.47827 C13.27781 50.70214 14.05395 49.92601 14.83008 49.14987 C17.15848 46.82147 19.48688 44.49307 21.81528 42.16467 C24.14368 39.83627 26.47208 37.50787 28.80048 35.17948 C29.31863 34.66132 29.83679 34.14316 30.35495 33.625 zM56.05 56 C56.05 55.5168 56.05 55.0336 56.05 54.5504 C56.05 54.16233 56.05 53.77427 56.05 53.3862 C56.05 52.222 56.05 51.0578 56.05 49.8936 C56.05 48.19577 56.05 46.49794 56.05 44.80011 L44.8 44.80011 C44.8 45.33374 44.8 45.86737 44.8 46.401 C44.8 47.5652 44.8 48.7294 44.8 49.8936 C44.8 51.0578 44.8 52.222 44.8 53.3862 C44.8 54.25747 44.8 55.12873 44.8 56 L56.05 56 zM11.25 11.2 C11.25 10.7168 11.25 10.2336 11.25 9.7504 C11.25 9.36233 11.25 8.97427 11.25 8.5862 C11.25 7.422 11.25 6.2578 11.25 5.0936 C11.25 3.39577 11.25 1.69794 11.25 0.00011 L-0 0.00011 C-0 0.53374 -0 1.06737 -0 1.601 C-0 2.7652 -0 3.9294 -0 5.0936 C-0 6.2578 -0 7.422 -0 8.5862 C-0 9.45747 -0 10.32873 -0 11.2 L11.25 11.2 z" />
<glyph unicode="S" horiz-adv-x="67.3" d="M56.05 11.2 C56.05 10.7168 56.05 10.2336 56.05 9.7504 C56.05 9.36233 56.05 8.97427 56.05 8.5862 C56.05 7.422 56.05 6.2578 56.05 5.0936 C56.05 3.39577 56.05 1.69794 56.05 0.00011 L44.8 0.00011 C44.8 0.53374 44.8 1.06737 44.8 1.601 C44.8 2.7652 44.8 3.9294 44.8 5.0936 C44.8 6.2578 44.8 7.422 44.8 8.5862 C44.8 9.45747 44.8 10.32873 44.8 11.2 L56.05 11.2 zM36.89505 44.775 C36.49736 44.775 35.83455 44.775 35.3043 44.775 C33.558 44.775 31.8117 44.775 30.0654 44.775 C27.51866 44.775 24.97191 44.775 22.42517 44.775 L22.42517 56.025 C23.22561 56.025 24.02606 56.025 24.8265 56.025 C26.5728 56.025 28.3191 56.025 30.0654 56.025 C31.8117 56.025 33.558 56.025 35.3043 56.025 C37.38785 56.025 39.4714 56.025 41.55495 56.025 C42.10416 55.47579 42.65338 54.92658 43.20259 54.37736 C44.90042 52.67953 46.59825 50.98171 48.29607 49.28388 C49.46027 48.11968 50.62447 46.95548 51.78867 45.79128 C52.65994 44.92001 53.79177 44.24764 54.40248 43.17748 C55.11377 41.93104 55.69112 40.58935 56.05 39.19983 C56.25017 38.42482 56.05 37.59894 56.05 36.7985 C56.05 35.0522 56.05 33.3059 56.05 31.5596 C56.05 29.8133 56.05 28.067 56.05 26.3207 C56.05 25.0138 56.05 23.7069 56.05 22.4 L44.8 22.4 C44.8 23.1248 44.8 23.8496 44.8 24.5744 C44.8 25.1565 44.8 25.7386 44.8 26.3207 C44.8 28.067 44.8 29.8133 44.8 31.5596 C44.8 33.32975 44.8 35.0999 44.8 36.87005 C44.55843 37.11162 44.15582 37.51423 43.83372 37.83633 C42.66952 39.00053 41.50532 40.16473 40.34112 41.32893 C39.56499 42.10506 38.78886 42.88119 38.01272 43.65732 C37.64017 44.02988 37.26761 44.40244 36.89505 44.775 zM0 44.8 C0 45.2832 0 45.7664 0 46.2496 C0 46.63767 0 47.02573 0 47.4138 C0 48.578 0 49.7422 0 50.9064 C0 52.60423 0 54.30206 0 55.99989 L11.25 55.99989 C11.25 55.46626 11.25 54.93263 11.25 54.399 C11.25 53.2348 11.25 52.0706 11.25 50.9064 C11.25 49.7422 11.25 48.578 11.25 47.4138 C11.25 47.18226 11.25 44.93095 11.25 44.8 L0 44.8 zM19.15495 11.225 C19.6852 11.225 20.21545 11.225 20.7457 11.225 C22.492 11.225 24.2383 11.225 25.9846 11.225 C28.53134 11.225 31.07809 11.225 33.62483 11.225 L33.62483 -0.025 C32.82439 -0.025 32.02394 -0.025 31.2235 -0.025 C29.4772 -0.025 27.7309 -0.025 25.9846 -0.025 C24.2383 -0.025 22.492 -0.025 20.7457 -0.025 C18.66215 -0.025 16.5786 -0.025 14.49505 -0.025 C13.94584 0.52421 13.39662 1.07342 12.84741 1.62264 C11.14958 3.32047 9.45175 5.01829 7.75393 6.71612 C6.58973 7.88032 5.42553 9.04452 4.26133 10.20872 C3.39006 11.07999 2.25823 11.75236 1.64752 12.82252 C0.93623 14.06896 0.35888 15.41065 0 16.80017 C-0.20017 17.57518 0 18.40106 0 19.2015 C0 20.9478 0 22.6941 0 24.4404 C0 26.1867 0 27.933 0 29.6793 C0 30.9862 0 32.2931 0 33.6 C3.75 33.6 7.5 33.6 11.25 33.6 C11.25 32.8752 11.25 32.1504 11.25 31.4256 C11.25 30.8435 11.25 30.2614 11.25 29.6793 C11.25 27.933 11.25 26.1867 11.25 24.4404 C11.25 22.67025 11.25 20.9001 11.25 19.12995 C11.57209 18.80786 11.89418 18.48577 12.21628 18.16367 C13.38048 16.99947 14.54468 15.83527 15.70888 14.67107 C16.48501 13.89494 17.26114 13.11881 18.03728 12.34268 C18.40983 11.97012 18.78239 11.59756 19.15495 11.225 z" />
<glyph unicode="T" horiz-adv-x="67.25" d="M11.2 -0.025 C10.7168 -0.025 10.2336 -0.025 9.7504 -0.025 C9.36233 -0.025 8.97427 -0.025 8.5862 -0.025 C7.422 -0.025 6.2578 -0.025 5.0936 -0.025 C3.39577 -0.025 1.69794 -0.025 0.00011 -0.025 L0.00011 11.225 C0.53374 11.225 1.06737 11.225 1.601 11.225 C2.7652 11.225 3.9294 11.225 5.0936 11.225 C6.2578 11.225 7.422 11.225 8.5862 11.225 C9.45747 11.225 10.32873 11.225 11.2 11.225 L11.2 -0.025 zM56 -0.025 C54.5504 -0.025 53.1008 -0.025 51.65119 -0.025 C50.48699 -0.025 49.3228 -0.025 48.1586 -0.025 C44.666 -0.025 41.1734 -0.025 37.6808 -0.025 C32.58731 -0.025 27.49382 -0.025 22.40034 -0.025 L22.40034 11.225 C24.00122 11.225 25.60211 11.225 27.203 11.225 C30.6956 11.225 34.1882 11.225 37.6808 11.225 C41.1734 11.225 44.666 11.225 48.1586 11.225 C49.3228 11.225 50.48699 11.225 51.65119 11.225 C53.1008 11.225 54.5504 11.225 56 11.225 L56 -0.025 zM33.625 56 C33.625 53.584 33.625 51.16799 33.625 48.75199 C33.625 46.81166 33.625 44.87133 33.625 42.93099 C33.625 37.10999 33.625 31.28899 33.625 25.468 C33.625 16.97885 33.625 8.48971 33.625 0.00056 L22.375 0.00056 C22.375 2.66871 22.375 5.33685 22.375 8.005 C22.375 13.826 22.375 19.647 22.375 25.468 C22.375 31.28899 22.375 37.10999 22.375 42.93099 C22.375 47.28733 22.375 51.64366 22.375 56 L33.625 56 z" />
<glyph unicode="U" horiz-adv-x="67.25" d="M-0.025 0 C-0.025 1.4496 -0.025 2.8992 -0.025 4.34881 C-0.025 5.51301 -0.025 6.6772 -0.025 7.8414 C-0.025 11.334 -0.025 14.8266 -0.025 18.3192 C-0.025 23.41269 -0.025 28.50618 -0.025 33.59966 L11.225 33.59966 C11.225 31.99878 11.225 30.39789 11.225 28.797 C11.225 25.3044 11.225 21.8118 11.225 18.3192 C11.225 14.8266 11.225 11.334 11.225 7.8414 C11.225 5.2276 11.225 2.6138 11.225 0 L-0.025 0 zM0 11.225 C0.9664 11.225 1.9328 11.225 2.8992 11.225 C3.67534 11.225 4.45147 11.225 5.2276 11.225 C7.556 11.225 9.8844 11.225 12.2128 11.225 C15.60846 11.225 19.00412 11.225 22.39978 11.225 L22.39978 -0.025 C21.33252 -0.025 20.26526 -0.025 19.198 -0.025 C16.8696 -0.025 14.5412 -0.025 12.2128 -0.025 C9.8844 -0.025 7.556 -0.025 5.2276 -0.025 C3.48507 -0.025 1.74253 -0.025 0 -0.025 L0 11.225 zM33.6 22.375 C33.1168 22.375 32.6336 22.375 32.1504 22.375 C31.76233 22.375 31.37427 22.375 30.9862 22.375 C29.822 22.375 28.6578 22.375 27.4936 22.375 C25.79577 22.375 24.09794 22.375 22.40011 22.375 L22.40011 33.625 C22.93374 33.625 23.46737 33.625 24.001 33.625 C25.1652 33.625 26.3294 33.625 27.4936 33.625 C28.6578 33.625 29.822 33.625 30.9862 33.625 C31.85747 33.625 32.72873 33.625 33.6 33.625 L33.6 22.375 zM56 -0.025 C55.0336 -0.025 54.0672 -0.025 53.1008 -0.025 C52.32466 -0.025 51.54853 -0.025 50.7724 -0.025 C48.444 -0.025 46.1156 -0.025 43.7872 -0.025 C40.39154 -0.025 36.99588 -0.025 33.60022 -0.025 L33.60022 11.225 C34.66748 11.225 35.73474 11.225 36.802 11.225 C39.1304 11.225 41.4588 11.225 43.7872 11.225 C46.1156 11.225 48.444 11.225 50.7724 11.225 C52.51493 11.225 54.25747 11.225 56 11.225 L56 -0.025 zM44.775 0 C44.775 2.416 44.775 4.83201 44.775 7.24801 C44.775 9.18834 44.775 11.12867 44.775 13.06901 C44.775 18.89001 44.775 24.71101 44.775 30.532 C44.775 39.02115 44.775 47.51029 44.775 55.99944 L56.025 55.99944 C56.025 53.33129 56.025 50.66315 56.025 47.995 C56.025 42.174 56.025 36.353 56.025 30.532 C56.025 24.71101 56.025 18.89001 56.025 13.06901 C56.025 8.71267 56.025 4.35634 56.025 0 L44.775 0 z" />
<glyph unicode="V" horiz-adv-x="61.65" d="M25.67005 11.225 C26.08728 11.64223 26.5045 12.05945 26.92173 12.47668 C27.69786 13.25281 28.47399 14.02895 29.25013 14.80508 C31.57853 17.13348 33.90693 19.46188 36.23533 21.79028 C39.63098 25.18594 43.02664 28.58159 46.4223 31.97725 C49.07395 29.3256 51.7256 26.67395 54.37725 24.0223 C53.30999 22.95504 52.24273 21.88778 51.17548 20.82052 C48.84708 18.49213 46.51868 16.16373 44.19028 13.83533 C41.86188 11.50693 39.53348 9.17853 37.20508 6.85013 C35.46254 5.10759 34.03313 2.98163 31.97748 1.62252 C28.71345 -0.5355 27.62567 -0.025 23.9975 -0.025 C21.087 -0.025 18.1765 -0.025 15.266 -0.025 C12.3555 -0.025 9.445 -0.025 6.5345 -0.025 C4.35634 -0.025 2.17817 -0.025 0 -0.025 L0 11.225 C1.208 11.225 2.416 11.225 3.624 11.225 C4.59417 11.225 5.56434 11.225 6.5345 11.225 C9.445 11.225 12.3555 11.225 15.266 11.225 C18.1765 11.225 21.087 11.225 23.9975 11.225 C24.55502 11.225 25.11253 11.225 25.67005 11.225 zM11.225 56 C11.225 54.5504 11.225 53.1008 11.225 51.65119 C11.225 50.48699 11.225 49.3228 11.225 48.1586 C11.225 44.666 11.225 41.1734 11.225 37.6808 C11.225 32.58731 11.225 27.49382 11.225 22.40034 L-0.025 22.40034 C-0.025 24.00122 -0.025 25.60211 -0.025 27.203 C-0.025 30.6956 -0.025 34.1882 -0.025 37.6808 C-0.025 41.1734 -0.025 44.666 -0.025 48.1586 C-0.025 50.7724 -0.025 53.3862 -0.025 56 L11.225 56 z" />
<glyph unicode="W" horiz-adv-x="67.25" d="M25.67005 11.225 C26.08728 11.64223 26.5045 12.05945 26.92173 12.47668 C27.69786 13.25281 28.47399 14.02895 29.25013 14.80508 C31.57853 17.13348 33.90693 19.46188 36.23533 21.79028 C39.63098 25.18594 43.02664 28.58159 46.4223 31.97725 C49.07395 29.3256 51.7256 26.67395 54.37725 24.0223 C53.30999 22.95504 52.24273 21.88778 51.17548 20.82052 C48.84708 18.49213 46.51868 16.16373 44.19028 13.83533 C41.86188 11.50693 39.53348 9.17853 37.20508 6.85013 C35.46254 5.10759 34.03313 2.98163 31.97748 1.62252 C28.71345 -0.5355 27.62567 -0.025 23.9975 -0.025 C21.087 -0.025 18.1765 -0.025 15.266 -0.025 C12.3555 -0.025 9.445 -0.025 6.5345 -0.025 C4.35634 -0.025 2.17817 -0.025 0 -0.025 L0 11.225 C1.208 11.225 2.416 11.225 3.624 11.225 C4.59417 11.225 5.56434 11.225 6.5345 11.225 C9.445 11.225 12.3555 11.225 15.266 11.225 C18.1765 11.225 21.087 11.225 23.9975 11.225 C24.55502 11.225 25.11253 11.225 25.67005 11.225 zM11.2 22.375 C10.7168 22.375 10.2336 22.375 9.7504 22.375 C9.36233 22.375 8.97427 22.375 8.5862 22.375 C7.422 22.375 6.2578 22.375 5.0936 22.375 C3.39577 22.375 1.69794 22.375 0.00011 22.375 L0.00011 33.625 C0.53374 33.625 1.06737 33.625 1.601 33.625 C2.7652 33.625 3.9294 33.625 5.0936 33.625 C6.2578 33.625 7.422 33.625 8.5862 33.625 C9.45747 33.625 10.32873 33.625 11.2 33.625 L11.2 22.375 zM56 44.775 C53.584 44.775 51.16799 44.775 48.75199 44.775 C46.81166 44.775 44.87133 44.775 42.93099 44.775 C37.10999 44.775 31.28899 44.775 25.468 44.775 C16.97885 44.775 8.48971 44.775 0.00056 44.775 L0.00056 56.025 C2.66871 56.025 5.33685 56.025 8.005 56.025 C13.826 56.025 19.647 56.025 25.468 56.025 C31.28899 56.025 37.10999 56.025 42.93099 56.025 C47.28733 56.025 51.64366 56.025 56 56.025 L56 44.775 z" />
<glyph unicode="X" horiz-adv-x="67.3" d="M11.25 33.6 C11.25 32.1504 11.25 30.7008 11.25 29.25119 C11.25 28.08699 11.25 26.9228 11.25 25.7586 C11.25 22.266 11.25 18.7734 11.25 15.2808 C11.25 10.18731 11.25 5.09382 11.25 0.00034 L0 0.00034 C0 1.60122 0 3.20211 0 4.803 C0 8.2956 0 11.7882 0 15.2808 C0 18.7734 0 22.266 0 25.7586 C0 28.3724 0 30.9862 0 33.6 L11.25 33.6 zM22.4 7.72356 C21.87046 7.98833 20.98788 8.42962 20.28182 8.78265 C17.95342 9.94685 15.62502 11.11105 13.29662 12.27525 C9.90096 13.97308 6.50531 15.67091 3.10965 17.36874 C4.7867 20.72284 6.46375 24.07694 8.1408 27.43104 C9.20806 26.89741 10.27532 26.36378 11.34258 25.83015 C13.67098 24.66595 15.99938 23.50175 18.32777 22.33755 C20.65617 21.17335 22.98457 20.00915 25.31297 18.84495 C26.08911 18.45689 26.86524 18.06882 27.64137 17.68075 C28.60777 17.19755 29.80598 17.02348 30.54058 16.23115 C31.88098 14.7854 32.81309 12.98496 33.65 11.19989 C33.87653 10.71673 33.65 10.13263 33.65 9.599 C33.65 8.4348 33.65 7.2706 33.65 6.1064 C33.65 4.9422 33.65 3.778 33.65 2.6138 C33.65 2.22573 33.65 1.83767 33.65 1.4496 C33.65 0.9664 33.65 0.4832 33.65 0 L22.4 0 C22.4 0.4832 22.4 0.9664 22.4 1.4496 C22.4 1.83767 22.4 2.22573 22.4 2.6138 C22.4 3.778 22.4 4.9422 22.4 6.1064 C22.4 6.49447 22.4 6.88253 22.4 7.2706 C22.4 7.42159 22.4 7.57257 22.4 7.72356 zM44.8 22.4 C44.8 23.8496 44.8 25.2992 44.8 26.74881 C44.8 27.91301 44.8 29.0772 44.8 30.2414 C44.8 33.734 44.8 37.2266 44.8 40.7192 C44.8 45.81269 44.8 50.90618 44.8 55.99966 L56.05 55.99966 C56.05 54.39878 56.05 52.79789 56.05 51.197 C56.05 47.7044 56.05 44.2118 56.05 40.7192 C56.05 37.2266 56.05 33.734 56.05 30.2414 C56.05 27.6276 56.05 25.0138 56.05 22.4 L44.8 22.4 zM33.65 48.27644 C34.17954 48.01167 35.06212 47.57038 35.76818 47.21735 C38.09658 46.05315 40.42498 44.88895 42.75338 43.72475 C46.14904 42.02692 49.54469 40.32909 52.94035 38.63126 L47.9092 28.56896 C46.84194 29.10259 45.77468 29.63622 44.70742 30.16985 C42.37902 31.33405 40.05062 32.49825 37.72223 33.66245 C35.39383 34.82665 33.06543 35.99085 30.73703 37.15505 C29.96089 37.54311 29.18476 37.93118 28.40863 38.31925 C27.44223 38.80245 26.24402 38.97652 25.50942 39.76885 C24.16902 41.2146 23.23691 43.01504 22.4 44.80011 C22.17347 45.28327 22.4 45.86737 22.4 46.401 C22.4 47.5652 22.4 48.7294 22.4 49.8936 C22.4 51.0578 22.4 52.222 22.4 53.3862 C22.4 54.25747 22.4 55.12873 22.4 56 C26.15 56 29.9 56 33.65 56 C33.65 55.5168 33.65 55.0336 33.65 54.5504 C33.65 54.16233 33.65 53.77427 33.65 53.3862 C33.65 52.222 33.65 51.0578 33.65 49.8936 C33.65 49.50553 33.65 49.11747 33.65 48.7294 C33.65 48.57841 33.65 48.42743 33.65 48.27644 z" />
<glyph unicode="Y" horiz-adv-x="61.65" d="M11.225 33.6 C11.225 32.1504 11.225 30.7008 11.225 29.25119 C11.225 28.08699 11.225 26.9228 11.225 25.7586 C11.225 22.266 11.225 18.7734 11.225 15.2808 C11.225 10.18731 11.225 5.09382 11.225 0.00034 L-0.025 0.00034 C-0.025 1.60122 -0.025 3.20211 -0.025 4.803 C-0.025 8.2956 -0.025 11.7882 -0.025 15.2808 C-0.025 18.7734 -0.025 22.266 -0.025 25.7586 C-0.025 28.3724 -0.025 30.9862 -0.025 33.6 L11.225 33.6 zM25.67005 33.625 C26.86341 34.81836 28.05677 36.01172 29.25013 37.20508 C31.57853 39.53348 33.90693 41.86188 36.23533 44.19028 C39.63098 47.58594 43.02664 50.98159 46.4223 54.37725 C49.07395 51.7256 51.7256 49.07395 54.37725 46.4223 C53.30999 45.35504 52.24273 44.28778 51.17548 43.22052 C48.84708 40.89213 46.51868 38.56373 44.19028 36.23533 C41.86188 33.90693 39.53348 31.57853 37.20508 29.25013 C35.46254 27.50759 34.03313 25.38163 31.97748 24.02252 C28.71345 21.8645 27.62567 22.375 23.9975 22.375 C21.087 22.375 18.1765 22.375 15.266 22.375 C12.3555 22.375 9.445 22.375 6.5345 22.375 C4.35634 22.375 2.17817 22.375 0 22.375 L0 33.625 C1.208 33.625 2.416 33.625 3.624 33.625 C4.59417 33.625 5.56434 33.625 6.5345 33.625 C9.445 33.625 12.3555 33.625 15.266 33.625 C18.1765 33.625 21.087 33.625 23.9975 33.625 C24.55502 33.625 25.11253 33.625 25.67005 33.625 zM11.225 56 C11.225 55.5168 11.225 55.0336 11.225 54.5504 C11.225 54.16233 11.225 53.77427 11.225 53.3862 C11.225 52.222 11.225 51.0578 11.225 49.8936 C11.225 48.19577 11.225 46.49794 11.225 44.80011 L-0.025 44.80011 C-0.025 45.33374 -0.025 45.86737 -0.025 46.401 C-0.025 47.5652 -0.025 48.7294 -0.025 49.8936 C-0.025 51.0578 -0.025 52.222 -0.025 53.3862 C-0.025 54.25747 -0.025 55.12873 -0.025 56 L11.225 56 z" />
<glyph unicode="Z" horiz-adv-x="67.3" d="M56.05 11.2 C56.05 10.7168 56.05 10.2336 56.05 9.7504 C56.05 9.36233 56.05 8.97427 56.05 8.5862 C56.05 7.422 56.05 6.2578 56.05 5.0936 C56.05 3.39577 56.05 1.69794 56.05 0.00011 L44.8 0.00011 C44.8 0.53374 44.8 1.06737 44.8 1.601 C44.8 2.7652 44.8 3.9294 44.8 5.0936 C44.8 6.2578 44.8 7.422 44.8 8.5862 C44.8 9.45747 44.8 10.32873 44.8 11.2 L56.05 11.2 zM56.05 56 C56.05 54.5504 56.05 53.1008 56.05 51.65119 C56.05 50.48699 56.05 49.3228 56.05 48.1586 C56.05 44.666 56.05 41.1734 56.05 37.6808 C56.05 32.58731 56.05 27.49382 56.05 22.40034 L44.8 22.40034 C44.8 24.00122 44.8 25.60211 44.8 27.203 C44.8 30.6956 44.8 34.1882 44.8 37.6808 C44.8 41.1734 44.8 44.666 44.8 48.1586 C44.8 50.7724 44.8 53.3862 44.8 56 L56.05 56 zM11.25 56 C11.25 53.584 11.25 51.16799 11.25 48.75199 C11.25 46.81166 11.25 44.87133 11.25 42.93099 C11.25 37.10999 11.25 31.28899 11.25 25.468 C11.25 16.97885 11.25 8.48971 11.25 0.00056 L0 0.00056 C0 2.66871 0 5.33685 0 8.005 C0 13.826 0 19.647 0 25.468 C0 31.28899 0 37.10999 0 42.93099 C0 47.28733 0 51.64366 0 56 L11.25 56 zM24.04752 18.42252 C23.08112 19.38893 22.11472 20.35533 21.14832 21.32173 C20.37219 22.09786 19.59605 22.87399 18.81992 23.65013 C16.49152 25.97853 14.16312 28.30693 11.83472 30.63533 C8.43906 34.03098 5.04341 37.42664 1.64775 40.8223 L9.6027 48.77725 C10.66996 47.70999 11.73722 46.64273 12.80448 45.57548 C15.13287 43.24708 17.46127 40.91868 19.78967 38.59028 C22.11807 36.26188 24.44647 33.93348 26.77487 31.60508 C28.51741 29.86254 30.25994 28.12001 32.00248 26.37748 L24.04752 18.42252 zM22.4 0 C22.4 0.4832 22.4 0.9664 22.4 1.4496 C22.4 1.83767 22.4 2.22573 22.4 2.6138 C22.4 3.778 22.4 4.9422 22.4 6.1064 C22.4 7.80423 22.4 9.50206 22.4 11.19989 L33.65 11.19989 C33.65 10.66626 33.65 10.13263 33.65 9.599 C33.65 8.4348 33.65 7.2706 33.65 6.1064 C33.65 4.9422 33.65 3.778 33.65 2.6138 C33.65 2.22573 33.65 1.83767 33.65 1.4496 C33.65 0.9664 33.65 0.4832 33.65 0 L22.4 0 z" />
<glyph unicode="[" horiz-adv-x="33.65" d="M11.225 56 C11.225 53.584 11.225 51.16799 11.225 48.75199 C11.225 46.81166 11.225 44.87133 11.225 42.93099 C11.225 37.10999 11.225 31.28899 11.225 25.468 C11.225 16.97885 11.225 8.48971 11.225 0.00056 L-0.025 0.00056 C-0.025 2.66871 -0.025 5.33685 -0.025 8.005 C-0.025 13.826 -0.025 19.647 -0.025 25.468 C-0.025 31.28899 -0.025 37.10999 -0.025 42.93099 C-0.025 47.28733 -0.025 51.64366 -0.025 56 L11.225 56 zM0 56.025 C0.9664 56.025 1.9328 56.025 2.8992 56.025 C3.67534 56.025 4.45147 56.025 5.2276 56.025 C7.556 56.025 9.8844 56.025 12.2128 56.025 C15.60846 56.025 19.00412 56.025 22.39978 56.025 L22.39978 44.775 C21.33252 44.775 20.26526 44.775 19.198 44.775 C16.8696 44.775 14.5412 44.775 12.2128 44.775 C9.8844 44.775 7.556 44.775 5.2276 44.775 C3.48507 44.775 1.74253 44.775 0 44.775 L0 56.025 z" />
<glyph unicode="\" horiz-adv-x="44.9" d="M22.4 9.49689 C19.31917 14.11813 16.23835 18.73937 13.15752 23.36061 C10.82912 26.85321 8.50072 30.34581 6.17232 33.83841 C4.42979 36.45221 2.38222 38.88661 0.94472 41.67981 C-0.37495 44.24405 0 47.13243 0 49.8936 C0 51.0578 0 52.222 0 53.3862 C0 54.25747 0 55.12873 0 56 C3.75 56 7.5 56 11.25 56 C11.25 55.5168 11.25 55.0336 11.25 54.5504 C11.25 54.16233 11.25 53.77427 11.25 53.3862 C11.25 52.222 11.25 51.0578 11.25 49.8936 C11.25 48.7294 11.25 47.5652 11.25 46.401 C13.99969 42.42012 12.56861 44.52519 15.53289 40.07878 C17.86129 36.58618 20.18969 33.09359 22.51808 29.60099 C26.22872 24.03503 29.93936 18.46907 33.65 12.90311 C33.65 12.33541 33.65 11.7677 33.65 11.2 C33.65 10.32873 33.65 9.45747 33.65 8.5862 C33.65 7.422 33.65 6.2578 33.65 5.0936 C33.65 3.39577 33.65 1.69794 33.65 0.00011 L22.4 0.00011 C22.4 0.53374 22.4 1.06737 22.4 1.601 C22.4 2.7652 22.4 3.9294 22.4 5.0936 C22.4 6.2578 22.4 7.422 22.4 8.5862 C22.4 8.88976 22.4 9.19332 22.4 9.49689 z" />
<glyph unicode="]" horiz-adv-x="33.65" d="M22.425 56 C22.425 53.584 22.425 51.16799 22.425 48.75199 C22.425 46.81166 22.425 44.87133 22.425 42.93099 C22.425 37.10999 22.425 31.28899 22.425 25.468 C22.425 16.97885 22.425 8.48971 22.425 0.00056 L11.175 0.00056 C11.175 2.66871 11.175 5.33685 11.175 8.005 C11.175 13.826 11.175 19.647 11.175 25.468 C11.175 31.28899 11.175 37.10999 11.175 42.93099 C11.175 47.28733 11.175 51.64366 11.175 56 L22.425 56 zM-0 56.025 C0.9664 56.025 1.9328 56.025 2.8992 56.025 C3.67534 56.025 4.45147 56.025 5.2276 56.025 C7.556 56.025 9.8844 56.025 12.2128 56.025 C15.60846 56.025 19.00412 56.025 22.39978 56.025 L22.39978 44.775 C21.33252 44.775 20.26526 44.775 19.198 44.775 C16.8696 44.775 14.5412 44.775 12.2128 44.775 C9.8844 44.775 7.556 44.775 5.2276 44.775 C3.48507 44.775 1.74253 44.775 0 44.775 L0 56.025 z" />
<glyph unicode="^" horiz-adv-x="44.9" d="M11.25 36.87005 C11.25 36.81584 11.25 36.72548 11.25 36.6532 C11.25 36.0711 11.25 35.489 11.25 34.9069 C11.25 34.7944 11.25 33.61749 11.25 33.6 L-0 33.6 C-0 33.8416 -0 34.0832 -0 34.3248 C-0 34.51883 -0 34.71287 -0 34.9069 C-0 35.489 -0 36.0711 -0 36.6532 C-0 37.2353 -0 37.8174 -0 38.3995 C-0 38.66631 -0.08698 38.9477 -0 39.19994 C0.46781 40.55663 0.93623 41.93107 1.64752 43.17748 C1.98622 43.77098 2.61393 44.14388 3.09713 44.62708 C3.48519 45.01514 3.87326 45.40321 4.26133 45.79128 C5.42553 46.95548 6.58973 48.11968 7.75393 49.28388 C8.90262 50.43257 10.05131 51.58126 11.2 52.72995 C11.2 52.97103 11.2 53.21212 11.2 53.4532 C11.2 54.30211 11.2 55.15103 11.2 55.99994 C14.95 55.99994 18.7 55.99994 22.45 55.99994 C22.45 55.73313 22.45 55.46631 22.45 55.1995 C22.45 54.6174 22.45 54.0353 22.45 53.4532 C22.45 52.8711 22.45 52.289 22.45 51.7069 C22.45 49.52432 22.40122 49.16802 20.80236 46.42241 C20.4226 45.77026 19.73511 45.35515 19.20148 44.82152 C18.03728 43.65732 16.87308 42.49313 15.70888 41.32893 C14.54468 40.16473 13.38048 39.00053 12.21628 37.83633 C11.89418 37.51423 11.57209 37.19214 11.25 36.87005 zM22.4 36.87005 C22.15843 37.11162 21.75582 37.51423 21.43372 37.83633 C20.26952 39.00053 19.10532 40.16473 17.94112 41.32893 C16.24329 43.02675 14.54547 44.72458 12.84764 46.42241 C15.49929 49.07406 18.15094 51.72571 20.80259 54.37736 C21.33622 53.84373 21.86985 53.31011 22.40348 52.77648 C23.56768 51.61228 24.73187 50.44808 25.89607 49.28388 C27.06027 48.11968 28.22447 46.95548 29.38867 45.79128 C29.77674 45.40321 30.16481 45.01514 30.55287 44.62708 C31.03607 44.14388 31.66378 43.77098 32.00248 43.17748 C32.71377 41.93107 33.18219 40.55663 33.65 39.19994 C33.73698 38.9477 33.65 38.66631 33.65 38.3995 C33.65 37.8174 33.65 37.2353 33.65 36.6532 C33.65 36.0711 33.65 35.489 33.65 34.9069 C33.65 34.7944 33.65 33.61749 33.65 33.6 L22.4 33.6 C22.4 33.8416 22.4 34.0832 22.4 34.3248 C22.4 34.51883 22.4 34.71287 22.4 34.9069 C22.4 35.489 22.4 36.0711 22.4 36.6532 C22.4 36.72548 22.4 36.79777 22.4 36.87005 z" />
<glyph unicode="_" horiz-adv-x="67.25" d="M56 -0.025 C53.584 -0.025 51.16799 -0.025 48.75199 -0.025 C46.81166 -0.025 44.87133 -0.025 42.93099 -0.025 C37.10999 -0.025 31.28899 -0.025 25.468 -0.025 C16.97885 -0.025 8.48971 -0.025 0.00056 -0.025 L0.00056 11.225 C2.66871 11.225 5.33685 11.225 8.005 11.225 C13.826 11.225 19.647 11.225 25.468 11.225 C31.28899 11.225 37.10999 11.225 42.93099 11.225 C44.87133 11.225 46.81166 11.225 48.75199 11.225 C51.16799 11.225 53.584 11.225 56 11.225 L56 -0.025 z" />
<glyph unicode="`" horiz-adv-x="16.85" d="M5.6 44.775 C5.3584 44.775 5.1168 44.775 4.8752 44.775 C4.68117 44.775 4.48713 44.775 4.2931 44.775 C3.711 44.775 3.1289 44.775 2.5468 44.775 C1.69789 44.775 0.84897 44.775 0.00006 44.775 L0.00006 56.025 C0.26687 56.025 0.53369 56.025 0.8005 56.025 C1.3826 56.025 1.9647 56.025 2.5468 56.025 C3.1289 56.025 3.711 56.025 4.2931 56.025 C4.72873 56.025 5.16437 56.025 5.6 56.025 L5.6 44.775 z" />
<glyph unicode="a" horiz-adv-x="67.25" d="M56 44.775 C54.5504 44.775 53.1008 44.775 51.65119 44.775 C50.48699 44.775 49.3228 44.775 48.1586 44.775 C44.666 44.775 41.1734 44.775 37.6808 44.775 C32.58731 44.775 27.49382 44.775 22.40034 44.775 L22.40034 56.025 C24.00122 56.025 25.60211 56.025 27.203 56.025 C30.6956 56.025 34.1882 56.025 37.6808 56.025 C41.1734 56.025 44.666 56.025 48.1586 56.025 C49.3228 56.025 50.48699 56.025 51.65119 56.025 C53.1008 56.025 54.5504 56.025 56 56.025 L56 44.775 zM33.625 30.32995 C34.04223 29.91272 34.45945 29.4955 34.87668 29.07827 C35.65281 28.30214 36.42895 27.52601 37.20508 26.74987 C39.53348 24.42147 41.86188 22.09307 44.19028 19.76467 C47.58594 16.36902 50.98159 12.97336 54.37725 9.5777 L46.4223 1.62275 C45.35504 2.69001 44.28778 3.75727 43.22052 4.82452 C40.89213 7.15292 38.56373 9.48132 36.23533 11.80972 C33.90693 14.13812 31.57853 16.46652 29.25013 18.79492 C27.50759 20.53746 25.38163 21.96687 24.02252 24.02252 C21.8645 27.28655 22.375 28.37433 22.375 32.0025 C22.375 34.913 22.375 37.8235 22.375 40.734 C22.375 43.6445 22.375 46.555 22.375 49.4655 C22.375 50.12982 22.375 55.69742 22.375 56 C26.125 56 29.875 56 33.625 56 C33.625 54.792 33.625 53.584 33.625 52.376 C33.625 51.40583 33.625 50.43566 33.625 49.4655 C33.625 46.555 33.625 43.6445 33.625 40.734 C33.625 37.8235 33.625 34.913 33.625 32.0025 C33.625 31.44498 33.625 30.88747 33.625 30.32995 zM11.2 44.775 C10.7168 44.775 10.2336 44.775 9.7504 44.775 C9.36233 44.775 8.97427 44.775 8.5862 44.775 C7.422 44.775 6.2578 44.775 5.0936 44.775 C3.39577 44.775 1.69794 44.775 0.00011 44.775 L0.00011 56.025 C0.53374 56.025 1.06737 56.025 1.601 56.025 C2.7652 56.025 3.9294 56.025 5.0936 56.025 C6.2578 56.025 7.422 56.025 8.5862 56.025 C9.45747 56.025 10.32873 56.025 11.2 56.025 L11.2 44.775 z" />
<glyph unicode="b" horiz-adv-x="67.275" d="M31.27005 44.775 C29.4329 44.775 27.59575 44.775 25.7586 44.775 C22.266 44.775 18.7734 44.775 15.2808 44.775 C10.18731 44.775 5.09382 44.775 0.00034 44.775 C0.00034 48.525 0.00034 52.275 0.00034 56.025 C1.60122 56.025 3.20211 56.025 4.803 56.025 C8.2956 56.025 11.7882 56.025 15.2808 56.025 C18.7734 56.025 22.266 56.025 25.7586 56.025 C28.3724 56.025 31.03592 56.5324 33.6 56.025 C37.2685 55.29905 37.63161 54.32334 39.97898 51.97598 C41.72527 50.22968 43.47157 48.48338 45.21787 46.73708 C46.96417 44.99078 48.71047 43.24448 50.45677 41.49818 C51.76367 40.19128 53.40215 39.14742 54.37748 37.57748 C55.13479 36.35847 55.61852 34.97622 56.025 33.59989 C56.17615 33.08811 56.025 32.53263 56.025 31.999 C56.025 30.8348 56.025 29.6706 56.025 28.5064 C56.025 27.3422 56.025 26.178 56.025 25.0138 C56.025 23.36588 56.025 21.71797 56.025 20.07005 C55.47577 19.52082 54.92654 18.97159 54.37731 18.42236 C51.83056 15.87561 49.28382 13.32887 46.73708 10.78213 C44.99078 9.03583 43.24448 7.28953 41.49818 5.54323 C40.19128 4.23633 39.14743 2.59783 37.57748 1.62252 C33.93934 -0.63759 33.0061 -0.025 28.797 -0.025 C25.3044 -0.025 21.8118 -0.025 18.3192 -0.025 C14.8266 -0.025 11.334 -0.025 7.8414 -0.025 C5.2276 -0.025 2.6138 -0.025 0 -0.025 L0 11.225 C1.4496 11.225 2.8992 11.225 4.34881 11.225 C5.51301 11.225 6.6772 11.225 7.8414 11.225 C11.334 11.225 14.8266 11.225 18.3192 11.225 C22.63615 11.225 26.9531 11.225 31.27005 11.225 C32.02777 11.98273 32.7855 12.74045 33.54323 13.49818 C35.28953 15.24448 37.03583 16.99078 38.78213 18.73708 C40.77975 20.7347 42.77738 22.73233 44.775 24.72995 C44.775 24.80091 44.775 24.91918 44.775 25.0138 C44.775 26.178 44.775 27.3422 44.775 28.5064 C44.775 29.42762 44.775 30.34883 44.775 31.27005 C44.01727 32.02777 43.25955 32.7855 42.50182 33.54323 C40.75552 35.28953 39.00922 37.03583 37.26292 38.78213 C35.51662 40.52843 33.77032 42.27473 32.02402 44.02102 C31.7727 44.27235 31.52137 44.52367 31.27005 44.775 zM22.4 22.375 C21.4336 22.375 20.4672 22.375 19.5008 22.375 C18.72466 22.375 17.94853 22.375 17.1724 22.375 C14.844 22.375 12.5156 22.375 10.1872 22.375 C6.79154 22.375 3.39588 22.375 0.00022 22.375 L0.00022 33.625 C1.06748 33.625 2.13474 33.625 3.202 33.625 C5.5304 33.625 7.8588 33.625 10.1872 33.625 C12.5156 33.625 14.844 33.625 17.1724 33.625 C18.91493 33.625 20.65747 33.625 22.4 33.625 L22.4 22.375 z" />
<glyph unicode="c" horiz-adv-x="67.3" d="M22.4 42.0125 C22.4 43.6218 22.4 45.2311 22.4 46.8404 C22.4 48.5867 22.4 50.333 22.4 52.0793 C22.4 53.3862 22.4 54.6931 22.4 56 C26.15 56 29.9 56 33.65 56 C33.65 55.2752 33.65 54.5504 33.65 53.8256 C33.65 53.2435 33.65 52.6614 33.65 52.0793 C33.65 50.333 33.65 48.5867 33.65 46.8404 C33.65 45.0941 33.65 43.3478 33.65 41.6015 C33.65 40.80106 33.89811 39.96119 33.65 39.20017 C33.13017 37.60566 32.42441 36.02787 31.4 34.7 C30.66213 33.74354 29.4672 33.2504 28.5008 32.5256 C27.72466 31.9435 26.94853 31.3614 26.1724 30.7793 C23.844 29.033 21.5156 27.2867 19.1872 25.5404 C16.54147 23.5561 13.89573 21.5718 11.25 19.5875 C11.25 18.78247 11.25 17.97743 11.25 17.1724 C11.25 14.844 11.25 12.5156 11.25 10.1872 C11.25 6.79154 11.25 3.39588 11.25 0.00022 L0 0.00022 C0 1.06748 0 2.13474 0 3.202 C0 5.5304 0 7.8588 0 10.1872 C0 12.5156 0 14.844 0 17.1724 C0 19.85243 0 22.53247 0 25.2125 C0.75007 25.77506 1.50015 26.33761 2.25022 26.90017 C5.64588 29.44691 9.04154 31.99366 12.4372 34.5404 C14.7656 36.2867 17.094 38.033 19.4224 39.7793 C20.19853 40.3614 20.97466 40.9435 21.7508 41.5256 C21.9672 41.6879 22.1836 41.8502 22.4 42.0125 zM44.8 19.5875 C43.80747 20.3319 42.81493 21.0763 41.8224 21.8207 C39.494 23.567 37.1656 25.3133 34.8372 27.0596 C31.44154 29.60634 28.04588 32.15309 24.65022 34.69983 C26.90022 37.69983 29.15022 40.69983 31.40022 43.69983 C32.46748 42.89939 33.53474 42.09894 34.602 41.2985 C36.9304 39.5522 39.2588 37.8059 41.5872 36.0596 C43.9156 34.3133 46.244 32.567 48.5724 30.8207 C50.31493 29.5138 52.46953 28.62461 53.8 26.9 C54.82441 25.57211 55.57972 24.00961 56.05 22.39978 C56.34927 21.37534 56.05 20.26526 56.05 19.198 C56.05 16.8696 56.05 14.5412 56.05 12.2128 C56.05 9.8844 56.05 7.556 56.05 5.2276 C56.05 4.45147 56.05 3.67534 56.05 2.8992 C56.05 1.9328 56.05 0.9664 56.05 0 L44.8 0 C44.8 0.9664 44.8 1.9328 44.8 2.8992 C44.8 3.67534 44.8 4.45147 44.8 5.2276 C44.8 7.556 44.8 9.8844 44.8 12.2128 C44.8 14.5412 44.8 16.8696 44.8 19.198 C44.8 19.32783 44.8 19.45767 44.8 19.5875 z" />
<glyph unicode="d" horiz-adv-x="67.3" d="M56.05 56 C56.05 53.584 56.05 51.16799 56.05 48.75199 C56.05 46.81166 56.05 44.87133 56.05 42.93099 C56.05 37.10999 56.05 31.28899 56.05 25.468 C56.05 16.97885 56.05 8.48971 56.05 0.00056 L44.8 0.00056 C44.8 2.66871 44.8 5.33685 44.8 8.005 C44.8 13.826 44.8 19.647 44.8 25.468 C44.8 31.28899 44.8 37.10999 44.8 42.93099 C44.8 47.28733 44.8 51.64366 44.8 56 L56.05 56 zM19.15495 11.225 C19.6852 11.225 20.21545 11.225 20.7457 11.225 C22.492 11.225 24.2383 11.225 25.9846 11.225 C28.53134 11.225 31.07809 11.225 33.62483 11.225 L33.62483 -0.025 C32.82439 -0.025 32.02394 -0.025 31.2235 -0.025 C29.4772 -0.025 27.7309 -0.025 25.9846 -0.025 C24.2383 -0.025 22.492 -0.025 20.7457 -0.025 C18.66215 -0.025 16.5786 -0.025 14.49505 -0.025 C13.94584 0.52421 13.39662 1.07342 12.84741 1.62264 C11.14958 3.32047 9.45175 5.01829 7.75393 6.71612 C6.58973 7.88032 5.42553 9.04452 4.26133 10.20872 C3.39006 11.07999 2.25823 11.75236 1.64752 12.82252 C0.93623 14.06896 0.35888 15.41065 0 16.80017 C-0.20017 17.57518 0 18.40106 0 19.2015 C0 20.9478 0 22.6941 0 24.4404 C0 26.1867 0 27.933 0 29.6793 C0 30.9862 0 32.2931 0 33.6 C3.75 33.6 7.5 33.6 11.25 33.6 C11.25 32.8752 11.25 32.1504 11.25 31.4256 C11.25 30.8435 11.25 30.2614 11.25 29.6793 C11.25 27.933 11.25 26.1867 11.25 24.4404 C11.25 22.67025 11.25 20.9001 11.25 19.12995 C11.57209 18.80786 11.89418 18.48577 12.21628 18.16367 C13.38048 16.99947 14.54468 15.83527 15.70888 14.67107 C16.48501 13.89494 17.26114 13.11881 18.03728 12.34268 C18.40983 11.97012 18.78239 11.59756 19.15495 11.225 zM33.625 22.375 C33.1418 22.375 32.6586 22.375 32.1754 22.375 C31.78733 22.375 31.39927 22.375 31.0112 22.375 C29.847 22.375 28.6828 22.375 27.5186 22.375 C25.82077 22.375 24.12294 22.375 22.42511 22.375 L22.42511 33.625 C22.95874 33.625 23.49237 33.625 24.026 33.625 C25.1902 33.625 26.3544 33.625 27.5186 33.625 C28.6828 33.625 29.847 33.625 31.0112 33.625 C31.39927 33.625 31.78733 33.625 32.1754 33.625 C32.6586 33.625 33.1418 33.625 33.625 33.625 L33.625 22.375 z" />
<glyph unicode="e" horiz-adv-x="67.25" d="M33.6 44.775 C32.1504 44.775 30.7008 44.775 29.25119 44.775 C28.08699 44.775 26.9228 44.775 25.7586 44.775 C22.266 44.775 18.7734 44.775 15.2808 44.775 C10.18731 44.775 5.09382 44.775 0.00034 44.775 L0.00034 56.025 C1.60122 56.025 3.20211 56.025 4.803 56.025 C8.2956 56.025 11.7882 56.025 15.2808 56.025 C18.7734 56.025 22.266 56.025 25.7586 56.025 C28.3724 56.025 30.9862 56.025 33.6 56.025 L33.6 44.775 zM56 44.775 C55.5168 44.775 55.0336 44.775 54.5504 44.775 C54.16233 44.775 53.77427 44.775 53.3862 44.775 C52.222 44.775 51.0578 44.775 49.8936 44.775 C48.19577 44.775 46.49794 44.775 44.80011 44.775 L44.80011 56.025 C45.33374 56.025 45.86737 56.025 46.401 56.025 C47.5652 56.025 48.7294 56.025 49.8936 56.025 C51.0578 56.025 52.222 56.025 53.3862 56.025 C54.25747 56.025 55.12873 56.025 56 56.025 L56 44.775 zM22.375 30.32995 C22.375 31.73147 22.375 33.13299 22.375 34.5345 C22.375 37.445 22.375 40.3555 22.375 43.266 C22.375 47.51057 22.375 51.75515 22.375 55.99972 C26.125 55.99972 29.875 55.99972 33.625 55.99972 C33.625 54.66565 33.625 53.33157 33.625 51.9975 C33.625 49.087 33.625 46.1765 33.625 43.266 C33.625 40.3555 33.625 37.445 33.625 34.5345 C33.625 31.57969 33.625 28.62487 33.625 25.67005 C33.07575 25.1208 32.5265 24.57155 31.97725 24.0223 C28.58159 20.62664 25.18594 17.23098 21.79028 13.83533 C19.46188 11.50693 17.13348 9.17853 14.80508 6.85013 C13.06254 5.10759 11.32001 3.36506 9.57748 1.62252 L1.62252 9.57748 C2.58893 10.54388 3.55533 11.51028 4.52173 12.47668 C5.29786 13.25281 6.07399 14.02895 6.85013 14.80508 C9.17853 17.13348 11.50693 19.46188 13.83533 21.79028 C16.16373 24.11868 18.49213 26.44708 20.82052 28.77548 C21.33868 29.29363 21.85684 29.81179 22.375 30.32995 z" />
<glyph unicode="f" horiz-adv-x="67.25" d="M33.6 22.375 C32.15148 22.375 30.70295 22.375 29.25443 22.375 C28.0911 22.375 26.92776 22.375 25.76443 22.375 C22.27443 22.375 18.78443 22.375 15.29443 22.375 C10.20473 22.375 5.11503 22.375 0.02534 22.375 L0.02534 33.625 C1.62503 33.625 3.22473 33.625 4.82443 33.625 C8.31443 33.625 11.80443 33.625 15.29443 33.625 C18.78443 33.625 22.27443 33.625 25.76443 33.625 C28.37629 33.625 30.98814 33.625 33.6 33.625 L33.6 22.375 zM44.775 0 C44.775 2.416 44.775 4.83201 44.775 7.24801 C44.775 9.18834 44.775 11.12867 44.775 13.06901 C44.775 18.89001 44.775 24.71101 44.775 30.532 C44.775 39.02115 44.775 47.51029 44.775 55.99944 L56.025 55.99944 C56.025 53.33129 56.025 50.66315 56.025 47.995 C56.025 42.174 56.025 36.353 56.025 30.532 C56.025 24.71101 56.025 18.89001 56.025 13.06901 C56.025 8.71267 56.025 4.35634 56.025 0 L44.775 0 zM56 44.775 C54.0672 44.775 52.1344 44.775 50.20159 44.775 C48.64933 44.775 47.09706 44.775 45.54479 44.775 C40.88799 44.775 36.2312 44.775 31.5744 44.775 C24.78308 44.775 17.99176 44.775 11.20045 44.775 L11.20045 56.025 C13.33497 56.025 15.46948 56.025 17.604 56.025 C22.2608 56.025 26.9176 56.025 31.5744 56.025 C36.2312 56.025 40.88799 56.025 45.54479 56.025 C49.02986 56.025 52.51493 56.025 56 56.025 L56 44.775 z" />
<glyph unicode="g" horiz-adv-x="67.25" d="M36.87005 44.775 C34.59726 44.775 32.32448 44.775 30.05169 44.775 C25.977 44.775 21.9023 44.775 17.8276 44.775 C11.8852 44.775 5.94279 44.775 0.00039 44.775 L0.00039 56.025 C1.86809 56.025 3.7358 56.025 5.6035 56.025 C9.6782 56.025 13.7529 56.025 17.8276 56.025 C21.9023 56.025 25.977 56.025 30.05169 56.025 C33.87778 56.025 37.70387 56.025 41.52995 56.025 C42.07916 55.47579 42.62838 54.92658 43.17759 54.37736 C44.87542 52.67953 46.57325 50.98171 48.27107 49.28388 C49.43527 48.11968 50.59947 46.95548 51.76367 45.79128 C52.63494 44.92001 53.50621 44.04874 54.37748 43.17748 C51.72583 40.52583 49.07417 37.87417 46.42252 35.22252 C45.93932 35.70572 45.45612 36.18893 44.97292 36.67213 C44.58486 37.06019 44.19679 37.44826 43.80872 37.83633 C42.64452 39.00053 41.48032 40.16473 40.31612 41.32893 C39.53999 42.10506 38.76386 42.88119 37.98772 43.65732 C37.61517 44.02988 37.24261 44.40244 36.87005 44.775 zM44.775 0 C44.775 0.9664 44.775 1.9328 44.775 2.8992 C44.775 3.67534 44.775 4.45147 44.775 5.2276 C44.775 7.556 44.775 9.8844 44.775 12.2128 C44.775 15.60846 44.775 19.00412 44.775 22.39978 L56.025 22.39978 C56.025 21.33252 56.025 20.26526 56.025 19.198 C56.025 16.8696 56.025 14.5412 56.025 12.2128 C56.025 9.8844 56.025 7.556 56.025 5.2276 C56.025 4.45147 56.025 3.67534 56.025 2.8992 C56.025 1.9328 56.025 0.9664 56.025 0 L44.775 0 zM30.32995 11.225 C30.7613 11.225 31.19265 11.225 31.624 11.225 C32.59417 11.225 33.56434 11.225 34.5345 11.225 C37.445 11.225 40.3555 11.225 43.266 11.225 C47.51057 11.225 51.75515 11.225 55.99972 11.225 L55.99972 -0.025 C54.66565 -0.025 53.33157 -0.025 51.9975 -0.025 C49.087 -0.025 46.1765 -0.025 43.266 -0.025 C40.3555 -0.025 37.445 -0.025 34.5345 -0.025 C32.35634 -0.025 30.12873 -0.48642 28 -0.025 C23.9824 0.84586 23.61258 2.03247 20.82052 4.82452 C18.49213 7.15292 16.16373 9.48132 13.83533 11.80972 C11.50693 14.13812 9.17853 16.46652 6.85013 18.79492 C6.07399 19.57105 5.29786 20.34719 4.52173 21.12332 C3.55533 22.08972 2.58893 23.05612 1.62252 24.02252 C4.27417 26.67417 6.92583 29.32583 9.57748 31.97748 C10.54388 31.01107 11.51028 30.04467 12.47668 29.07827 C13.25281 28.30214 14.02895 27.52601 14.80508 26.74987 C17.13348 24.42147 19.46188 22.09307 21.79028 19.76467 C24.11868 17.43627 26.44708 15.10787 28.77548 12.77948 C29.29363 12.26132 29.81179 11.74316 30.32995 11.225 z" />
<glyph unicode="h" horiz-adv-x="67.25" d="M56 -0.025 C53.584 -0.025 51.16799 -0.025 48.75199 -0.025 C46.81166 -0.025 44.87133 -0.025 42.93099 -0.025 C37.10999 -0.025 31.28899 -0.025 25.468 -0.025 C16.97885 -0.025 8.48971 -0.025 0.00056 -0.025 L0.00056 11.225 C2.66871 11.225 5.33685 11.225 8.005 11.225 C13.826 11.225 19.647 11.225 25.468 11.225 C31.28899 11.225 37.10999 11.225 42.93099 11.225 C47.28733 11.225 51.64366 11.225 56 11.225 L56 -0.025 zM56 44.775 C53.584 44.775 51.16799 44.775 48.75199 44.775 C46.81166 44.775 44.87133 44.775 42.93099 44.775 C37.10999 44.775 31.28899 44.775 25.468 44.775 C16.97885 44.775 8.48971 44.775 0.00056 44.775 L0.00056 56.025 C2.66871 56.025 5.33685 56.025 8.005 56.025 C13.826 56.025 19.647 56.025 25.468 56.025 C31.28899 56.025 37.10999 56.025 42.93099 56.025 C47.28733 56.025 51.64366 56.025 56 56.025 L56 44.775 zM28.7766 19.50596 C28.0518 20.71396 27.327 21.92196 26.6022 23.12997 C26.0201 24.10013 25.438 25.0703 24.8559 26.04047 C23.1096 28.95096 21.3633 31.86146 19.617 34.77196 C17.07026 39.01654 14.52351 43.26111 11.97677 47.50568 L21.62357 53.29376 C22.42401 51.95969 23.22445 50.62561 24.0249 49.29154 C25.7712 46.38104 27.5175 43.47054 29.2638 40.56004 C31.0101 37.64954 32.7564 34.73904 34.5027 31.82854 C35.8096 29.65037 37.1165 27.47221 38.4234 25.29404 L28.7766 19.50596 z" />
<glyph unicode="i" horiz-adv-x="67.275" d="M56.05 56 C56.05 54.5504 56.05 53.1008 56.05 51.65119 C56.05 50.48699 56.05 49.3228 56.05 48.1586 C56.05 44.666 56.05 41.1734 56.05 37.6808 C56.05 32.58731 56.05 27.49382 56.05 22.40034 L44.8 22.40034 C44.8 24.00122 44.8 25.60211 44.8 27.203 C44.8 30.6956 44.8 34.1882 44.8 37.6808 C44.8 41.1734 44.8 44.666 44.8 48.1586 C44.8 50.7724 44.8 53.3862 44.8 56 L56.05 56 zM30.35495 33.625 C31.75647 33.625 33.15799 33.625 34.5595 33.625 C37.47 33.625 40.3805 33.625 43.291 33.625 C47.53557 33.625 51.78015 33.625 56.02472 33.625 L56.02472 22.375 C54.69065 22.375 53.35657 22.375 52.0225 22.375 C49.112 22.375 46.2015 22.375 43.291 22.375 C40.3805 22.375 37.47 22.375 34.5595 22.375 C32.38134 22.375 30.15373 21.91358 28.025 22.375 C24.0074 23.24586 23.63758 24.43247 20.84552 27.22452 C18.51713 29.55292 16.18873 31.88132 13.86033 34.20972 C11.53193 36.53812 9.20353 38.86652 6.87513 41.19492 C5.13259 42.93746 3.39006 44.67999 1.64752 46.42252 C4.29917 49.07417 6.95083 51.72583 9.60248 54.37748 C10.56888 53.41107 11.53528 52.44467 12.50168 51.47827 C13.27781 50.70214 14.05395 49.92601 14.83008 49.14987 C17.15848 46.82147 19.48688 44.49307 21.81528 42.16467 C24.14368 39.83627 26.47208 37.50787 28.80048 35.17948 C29.31863 34.66132 29.83679 34.14316 30.35495 33.625 zM44.8 0 C44.8 0.4832 44.8 0.9664 44.8 1.4496 C44.8 1.83767 44.8 2.22573 44.8 2.6138 C44.8 3.778 44.8 4.9422 44.8 6.1064 C44.8 7.80423 44.8 9.50206 44.8 11.19989 L56.05 11.19989 C56.05 10.66626 56.05 10.13263 56.05 9.599 C56.05 8.4348 56.05 7.2706 56.05 6.1064 C56.05 4.9422 56.05 3.778 56.05 2.6138 C56.05 2.22573 56.05 1.83767 56.05 1.4496 C56.05 0.9664 56.05 0.4832 56.05 0 L44.8 0 z" />
<glyph unicode="j" horiz-adv-x="67.3" d="M11.25 11.2 C11.25 10.7168 11.25 10.2336 11.25 9.7504 C11.25 9.36233 11.25 8.97427 11.25 8.5862 C11.25 7.422 11.25 6.2578 11.25 5.0936 C11.25 3.39577 11.25 1.69794 11.25 0.00011 L0 0.00011 C0 0.53374 0 1.06737 0 1.601 C0 2.7652 0 3.9294 0 5.0936 C0 6.2578 0 7.422 0 8.5862 C0 9.45747 0 10.32873 0 11.2 L11.25 11.2 zM11.25 31.27005 C11.25 31.19909 11.25 31.08082 11.25 30.9862 C11.25 29.822 11.25 28.6578 11.25 27.4936 C11.25 25.79577 11.25 24.09794 11.25 22.40011 L0 22.40011 C0 22.93374 0 23.46737 0 24.001 C0 25.1652 0 26.3294 0 27.4936 C0 28.6578 0 29.822 0 30.9862 C0 33.66762 -0.09985 34.8245 1.64769 37.57764 C2.25433 38.53337 3.24858 39.17853 4.04902 39.97898 C5.79532 41.72527 7.54162 43.47157 9.28792 45.21787 C11.03422 46.96417 12.78052 48.71047 14.52682 50.45677 C15.83372 51.76367 16.87758 53.40215 18.44752 54.37748 C19.66653 55.13479 21.04878 55.61852 22.42511 56.025 C22.93689 56.17615 23.49237 56.025 24.026 56.025 C25.1902 56.025 26.3544 56.025 27.5186 56.025 C28.6828 56.025 29.847 56.025 31.0112 56.025 C31.88247 56.025 32.75373 56.025 33.625 56.025 C33.625 52.275 33.625 48.525 33.625 44.775 C33.1418 44.775 32.6586 44.775 32.1754 44.775 C31.78733 44.775 31.39927 44.775 31.0112 44.775 C29.847 44.775 28.6828 44.775 27.5186 44.775 C26.59738 44.775 25.67617 44.775 24.75495 44.775 C23.99723 44.01727 23.2395 43.25955 22.48177 42.50182 C20.73547 40.75552 18.98917 39.00922 17.24287 37.26292 C15.49657 35.51662 13.75027 33.77032 12.00398 32.02402 C11.75265 31.7727 11.50133 31.52137 11.25 31.27005 zM44.8 0 C44.8 2.416 44.8 4.83201 44.8 7.24801 C44.8 9.18834 44.8 11.12867 44.8 13.06901 C44.8 18.89001 44.8 24.71101 44.8 30.532 C44.8 39.02115 44.8 47.51029 44.8 55.99944 L56.05 55.99944 C56.05 53.33129 56.05 50.66315 56.05 47.995 C56.05 42.174 56.05 36.353 56.05 30.532 C56.05 24.71101 56.05 18.89001 56.05 13.06901 C56.05 8.71267 56.05 4.35634 56.05 0 L44.8 0 z" />
<glyph unicode="k" horiz-adv-x="61.65" d="M33.6 44.775 C32.1504 44.775 30.7008 44.775 29.25119 44.775 C28.08699 44.775 26.9228 44.775 25.7586 44.775 C22.266 44.775 18.7734 44.775 15.2808 44.775 C10.18731 44.775 5.09382 44.775 0.00034 44.775 L0.00034 56.025 C1.60122 56.025 3.20211 56.025 4.803 56.025 C8.2956 56.025 11.7882 56.025 15.2808 56.025 C18.7734 56.025 22.266 56.025 25.7586 56.025 C28.3724 56.025 30.9862 56.025 33.6 56.025 L33.6 44.775 zM11.225 33.6 C11.225 32.1504 11.225 30.7008 11.225 29.25119 C11.225 28.08699 11.225 26.9228 11.225 25.7586 C11.225 22.266 11.225 18.7734 11.225 15.2808 C11.225 10.18731 11.225 5.09382 11.225 0.00034 L-0.025 0.00034 C-0.025 1.60122 -0.025 3.20211 -0.025 4.803 C-0.025 8.2956 -0.025 11.7882 -0.025 15.2808 C-0.025 18.7734 -0.025 22.266 -0.025 25.7586 C-0.025 28.3724 -0.025 30.9862 -0.025 33.6 L11.225 33.6 zM25.67005 22.375 C25.2387 22.375 24.80735 22.375 24.376 22.375 C23.40583 22.375 22.43566 22.375 21.4655 22.375 C18.555 22.375 15.6445 22.375 12.734 22.375 C8.48943 22.375 4.24485 22.375 0.00028 22.375 L0.00028 33.625 C1.33435 33.625 2.66843 33.625 4.0025 33.625 C6.913 33.625 9.8235 33.625 12.734 33.625 C15.6445 33.625 18.555 33.625 21.4655 33.625 C23.64366 33.625 25.87127 34.08642 28 33.625 C32.0176 32.75414 32.38742 31.56753 35.17948 28.77548 C37.50787 26.44708 39.83627 24.11868 42.16467 21.79028 C44.49307 19.46188 46.82147 17.13348 49.14987 14.80508 C50.89241 13.06254 52.63494 11.32001 54.37748 9.57748 C51.72583 6.92583 49.07417 4.27417 46.42252 1.62252 C45.45612 2.58893 44.48972 3.55533 43.52332 4.52173 C42.74719 5.29786 41.97105 6.07399 41.19492 6.85013 C38.86652 9.17853 36.53812 11.50693 34.20972 13.83533 C31.88132 16.16373 29.55292 18.49213 27.22452 20.82052 C26.70637 21.33868 26.18821 21.85684 25.67005 22.375 z" />
<glyph unicode="l" horiz-adv-x="67.25" d="M11.2 -0.025 C10.7168 -0.025 10.2336 -0.025 9.7504 -0.025 C9.36233 -0.025 8.97427 -0.025 8.5862 -0.025 C7.422 -0.025 6.2578 -0.025 5.0936 -0.025 C3.39577 -0.025 1.69794 -0.025 0.00011 -0.025 L0.00011 11.225 C0.53374 11.225 1.06737 11.225 1.601 11.225 C2.7652 11.225 3.9294 11.225 5.0936 11.225 C6.2578 11.225 7.422 11.225 8.5862 11.225 C9.45747 11.225 10.32873 11.225 11.2 11.225 L11.2 -0.025 zM56 -0.025 C54.5504 -0.025 53.1008 -0.025 51.65119 -0.025 C50.48699 -0.025 49.3228 -0.025 48.1586 -0.025 C44.666 -0.025 41.1734 -0.025 37.6808 -0.025 C32.58731 -0.025 27.49382 -0.025 22.40034 -0.025 L22.40034 11.225 C24.00122 11.225 25.60211 11.225 27.203 11.225 C30.6956 11.225 34.1882 11.225 37.6808 11.225 C41.1734 11.225 44.666 11.225 48.1586 11.225 C49.3228 11.225 50.48699 11.225 51.65119 11.225 C53.1008 11.225 54.5504 11.225 56 11.225 L56 -0.025 zM56.025 56 C56.025 53.584 56.025 51.16799 56.025 48.75199 C56.025 46.81166 56.025 44.87133 56.025 42.93099 C56.025 37.10999 56.025 31.28899 56.025 25.468 C56.025 16.97885 56.025 8.48971 56.025 0.00056 L44.775 0.00056 C44.775 2.66871 44.775 5.33685 44.775 8.005 C44.775 13.826 44.775 19.647 44.775 25.468 C44.775 31.28899 44.775 37.10999 44.775 42.93099 C44.775 47.28733 44.775 51.64366 44.775 56 L56.025 56 z" />
<glyph unicode="m" horiz-adv-x="67.275" d="M11.25 56 C11.25 53.584 11.25 51.16799 11.25 48.75199 C11.25 46.81166 11.25 44.87133 11.25 42.93099 C11.25 37.10999 11.25 31.28899 11.25 25.468 C11.25 16.97885 11.25 8.48971 11.25 0.00056 L0 0.00056 C0 2.66871 0 5.33685 0 8.005 C0 13.826 0 19.647 0 25.468 C0 31.28899 0 37.10999 0 42.93099 C0 47.28733 0 51.64366 0 56 L11.25 56 zM56.05 56 C56.05 53.584 56.05 51.16799 56.05 48.75199 C56.05 46.81166 56.05 44.87133 56.05 42.93099 C56.05 37.10999 56.05 31.28899 56.05 25.468 C56.05 16.97885 56.05 8.48971 56.05 0.00056 L44.8 0.00056 C44.8 2.66871 44.8 5.33685 44.8 8.005 C44.8 13.826 44.8 19.647 44.8 25.468 C44.8 31.28899 44.8 37.10999 44.8 42.93099 C44.8 47.28733 44.8 51.64366 44.8 56 L56.05 56 zM56.025 44.775 C54.5754 44.775 53.1258 44.775 51.67619 44.775 C50.51199 44.775 49.3478 44.775 48.1836 44.775 C44.691 44.775 41.1984 44.775 37.7058 44.775 C32.61231 44.775 27.51882 44.775 22.42534 44.775 L22.42534 56.025 C24.02622 56.025 25.62711 56.025 27.228 56.025 C30.7206 56.025 34.2132 56.025 37.7058 56.025 C41.1984 56.025 44.691 56.025 48.1836 56.025 C50.7974 56.025 53.4112 56.025 56.025 56.025 L56.025 44.775 zM22.4 22.4 C22.4 23.8496 22.4 25.2992 22.4 26.74881 C22.4 27.91301 22.4 29.0772 22.4 30.2414 C22.4 33.734 22.4 37.2266 22.4 40.7192 C22.4 45.81269 22.4 50.90618 22.4 55.99966 L33.65 55.99966 C33.65 54.39878 33.65 52.79789 33.65 51.197 C33.65 47.7044 33.65 44.2118 33.65 40.7192 C33.65 37.2266 33.65 33.734 33.65 30.2414 C33.65 27.6276 33.65 25.0138 33.65 22.4 L22.4 22.4 zM22.4 0 C22.4 0.4832 22.4 0.9664 22.4 1.4496 C22.4 1.83767 22.4 2.22573 22.4 2.6138 C22.4 3.778 22.4 4.9422 22.4 6.1064 C22.4 7.80423 22.4 9.50206 22.4 11.19989 L33.65 11.19989 C33.65 10.66626 33.65 10.13263 33.65 9.599 C33.65 8.4348 33.65 7.2706 33.65 6.1064 C33.65 4.9422 33.65 3.778 33.65 2.6138 C33.65 2.22573 33.65 1.83767 33.65 1.4496 C33.65 0.9664 33.65 0.4832 33.65 0 L22.4 0 z" />
<glyph unicode="n" horiz-adv-x="67.275" d="M11.225 56 C11.225 53.584 11.225 51.16799 11.225 48.75199 C11.225 46.81166 11.225 44.87133 11.225 42.93099 C11.225 37.10999 11.225 31.28899 11.225 25.468 C11.225 16.97885 11.225 8.48971 11.225 0.00056 L-0.025 0.00056 C-0.025 2.66871 -0.025 5.33685 -0.025 8.005 C-0.025 13.826 -0.025 19.647 -0.025 25.468 C-0.025 31.28899 -0.025 37.10999 -0.025 42.93099 C-0.025 47.28733 -0.025 51.64366 -0.025 56 L11.225 56 zM33.6 44.775 C32.1504 44.775 30.7008 44.775 29.25119 44.775 C28.08699 44.775 26.9228 44.775 25.7586 44.775 C22.266 44.775 18.7734 44.775 15.2808 44.775 C10.18731 44.775 5.09382 44.775 0.00034 44.775 L0.00034 56.025 C1.60122 56.025 3.20211 56.025 4.803 56.025 C8.2956 56.025 11.7882 56.025 15.2808 56.025 C18.7734 56.025 22.266 56.025 25.7586 56.025 C28.3724 56.025 30.9862 56.025 33.6 56.025 L33.6 44.775 zM22.375 22.4 C22.375 23.8496 22.375 25.2992 22.375 26.74881 C22.375 27.91301 22.375 29.0772 22.375 30.2414 C22.375 33.734 22.375 37.2266 22.375 40.7192 C22.375 45.81269 22.375 50.90618 22.375 55.99966 L33.625 55.99966 C33.625 54.39878 33.625 52.79789 33.625 51.197 C33.625 47.7044 33.625 44.2118 33.625 40.7192 C33.625 37.2266 33.625 33.734 33.625 30.2414 C33.625 27.6276 33.625 25.0138 33.625 22.4 L22.375 22.4 zM22.375 0 C22.375 0.4832 22.375 0.9664 22.375 1.4496 C22.375 1.83767 22.375 2.22573 22.375 2.6138 C22.375 3.778 22.375 4.9422 22.375 6.1064 C22.375 7.80423 22.375 9.50206 22.375 11.19989 L33.625 11.19989 C33.625 10.66626 33.625 10.13263 33.625 9.599 C33.625 8.4348 33.625 7.2706 33.625 6.1064 C33.625 4.9422 33.625 3.778 33.625 2.6138 C33.625 2.22573 33.625 1.83767 33.625 1.4496 C33.625 0.9664 33.625 0.4832 33.625 0 L22.375 0 zM44.775 0 C44.775 2.416 44.775 4.83201 44.775 7.24801 C44.775 9.18834 44.775 11.12867 44.775 13.06901 C44.775 18.89001 44.775 24.71101 44.775 30.532 C44.775 39.02115 44.775 47.51029 44.775 55.99944 L56.025 55.99944 C56.025 53.33129 56.025 50.66315 56.025 47.995 C56.025 42.174 56.025 36.353 56.025 30.532 C56.025 24.71101 56.025 18.89001 56.025 13.06901 C56.025 8.71267 56.025 4.35634 56.025 0 L44.775 0 z" />
<glyph unicode="o" horiz-adv-x="61.65" d="M11.225 56 C11.225 54.5504 11.225 53.1008 11.225 51.65119 C11.225 50.48699 11.225 49.3228 11.225 48.1586 C11.225 44.666 11.225 41.1734 11.225 37.6808 C11.225 32.58731 11.225 27.49382 11.225 22.40034 L-0.025 22.40034 C-0.025 24.00122 -0.025 25.60211 -0.025 27.203 C-0.025 30.6956 -0.025 34.1882 -0.025 37.6808 C-0.025 41.1734 -0.025 44.666 -0.025 48.1586 C-0.025 50.7724 -0.025 53.3862 -0.025 56 L11.225 56 zM25.67005 33.625 C26.08728 34.04223 26.5045 34.45945 26.92173 34.87668 C27.69786 35.65281 28.47399 36.42895 29.25013 37.20508 C31.57853 39.53348 33.90693 41.86188 36.23533 44.19028 C39.63098 47.58594 43.02664 50.98159 46.4223 54.37725 C49.07395 51.7256 51.7256 49.07395 54.37725 46.4223 C53.30999 45.35504 52.24273 44.28778 51.17548 43.22052 C48.84708 40.89213 46.51868 38.56373 44.19028 36.23533 C41.86188 33.90693 39.53348 31.57853 37.20508 29.25013 C35.46254 27.50759 34.03313 25.38163 31.97748 24.02252 C28.71345 21.8645 27.62567 22.375 23.9975 22.375 C21.087 22.375 18.1765 22.375 15.266 22.375 C12.3555 22.375 9.445 22.375 6.5345 22.375 C5.56434 22.375 4.59417 22.375 3.624 22.375 C2.416 22.375 1.208 22.375 0 22.375 L0 33.625 C1.208 33.625 2.416 33.625 3.624 33.625 C4.59417 33.625 5.56434 33.625 6.5345 33.625 C9.445 33.625 12.3555 33.625 15.266 33.625 C18.1765 33.625 21.087 33.625 23.9975 33.625 C24.55502 33.625 25.11253 33.625 25.67005 33.625 zM-0.025 0 C-0.025 0.4832 -0.025 0.9664 -0.025 1.4496 C-0.025 1.83767 -0.025 2.22573 -0.025 2.6138 C-0.025 3.778 -0.025 4.9422 -0.025 6.1064 C-0.025 7.80423 -0.025 9.50206 -0.025 11.19989 L11.225 11.19989 C11.225 10.66626 11.225 10.13263 11.225 9.599 C11.225 8.4348 11.225 7.2706 11.225 6.1064 C11.225 4.9422 11.225 3.778 11.225 2.6138 C11.225 2.22573 11.225 1.83767 11.225 1.4496 C11.225 0.9664 11.225 0.4832 11.225 0 L-0.025 0 z" />
<glyph unicode="p" horiz-adv-x="67.275" d="M11.25 14.47005 C11.25 13.9398 11.25 13.40955 11.25 12.8793 C11.25 11.133 11.25 9.3867 11.25 7.6404 C11.25 5.09366 11.25 2.54691 11.25 0.00017 L0 0.00017 C0 0.80061 0 1.60106 0 2.4015 C0 4.1478 0 5.8941 0 7.6404 C0 9.3867 0 11.133 0 12.8793 C0 14.96285 0 17.0464 0 19.12995 C0.54921 19.67916 1.09842 20.22838 1.64764 20.77759 C3.34547 22.47542 5.04329 24.17325 6.74112 25.87107 C7.90532 27.03527 9.06952 28.19947 10.23372 29.36367 C11.10499 30.23494 11.77736 31.36677 12.84752 31.97748 C14.09396 32.68877 15.43565 33.26612 16.82517 33.625 C17.60018 33.82517 18.42606 33.625 19.2265 33.625 C20.9728 33.625 22.7191 33.625 24.4654 33.625 C26.2117 33.625 27.958 33.625 29.7043 33.625 C31.0112 33.625 32.3181 33.625 33.625 33.625 C33.625 29.875 33.625 26.125 33.625 22.375 C32.9002 22.375 32.1754 22.375 31.4506 22.375 C30.8685 22.375 30.2864 22.375 29.7043 22.375 C27.958 22.375 26.2117 22.375 24.4654 22.375 C22.69525 22.375 20.9251 22.375 19.15495 22.375 C18.83286 22.05291 18.51077 21.73082 18.18867 21.40872 C17.02447 20.24452 15.86027 19.08032 14.69607 17.91612 C13.91994 17.13999 13.14381 16.36386 12.36768 15.58772 C11.99512 15.21517 11.62256 14.84261 11.25 14.47005 zM56.025 22.375 C55.5418 22.375 55.0586 22.375 54.5754 22.375 C54.18733 22.375 53.79927 22.375 53.4112 22.375 C52.247 22.375 51.0828 22.375 49.9186 22.375 C48.22077 22.375 46.52294 22.375 44.82511 22.375 L44.82511 33.625 C45.35874 33.625 45.89237 33.625 46.426 33.625 C47.5902 33.625 48.7544 33.625 49.9186 33.625 C51.0828 33.625 52.247 33.625 53.4112 33.625 C54.28247 33.625 55.15373 33.625 56.025 33.625 L56.025 22.375 zM11.225 56.025 C13.1578 56.025 15.0906 56.025 17.02341 56.025 C18.57567 56.025 20.12794 56.025 21.68021 56.025 C26.33701 56.025 30.9938 56.025 35.6506 56.025 C42.44192 56.025 49.23324 56.025 56.02455 56.025 L56.02455 44.775 C53.89003 44.775 51.75552 44.775 49.621 44.775 C44.9642 44.775 40.3074 44.775 35.6506 44.775 C30.9938 44.775 26.33701 44.775 21.68021 44.775 C18.19514 44.775 14.71007 44.775 11.225 44.775 L11.225 56.025 z" />
<glyph unicode="q" horiz-adv-x="67.25" d="M11.2 -0.025 C10.7168 -0.025 10.2336 -0.025 9.7504 -0.025 C9.36233 -0.025 8.97427 -0.025 8.5862 -0.025 C7.422 -0.025 6.2578 -0.025 5.0936 -0.025 C3.39577 -0.025 1.69794 -0.025 0.00011 -0.025 L0.00011 11.225 C0.53374 11.225 1.06737 11.225 1.601 11.225 C2.7652 11.225 3.9294 11.225 5.0936 11.225 C6.2578 11.225 7.422 11.225 8.5862 11.225 C9.45747 11.225 10.32873 11.225 11.2 11.225 L11.2 -0.025 zM33.6 -0.025 C33.1168 -0.025 32.6336 -0.025 32.1504 -0.025 C31.76233 -0.025 31.37427 -0.025 30.9862 -0.025 C29.822 -0.025 28.6578 -0.025 27.4936 -0.025 C25.79577 -0.025 24.09794 -0.025 22.40011 -0.025 L22.40011 11.225 C22.93374 11.225 23.46737 11.225 24.001 11.225 C25.1652 11.225 26.3294 11.225 27.4936 11.225 C28.6578 11.225 29.822 11.225 30.9862 11.225 C31.85747 11.225 32.72873 11.225 33.6 11.225 L33.6 -0.025 zM56 -0.025 C55.5168 -0.025 55.0336 -0.025 54.5504 -0.025 C54.16233 -0.025 53.77427 -0.025 53.3862 -0.025 C52.222 -0.025 51.0578 -0.025 49.8936 -0.025 C48.19577 -0.025 46.49794 -0.025 44.80011 -0.025 L44.80011 11.225 C45.33374 11.225 45.86737 11.225 46.401 11.225 C47.5652 11.225 48.7294 11.225 49.8936 11.225 C51.0578 11.225 52.222 11.225 53.3862 11.225 C54.25747 11.225 55.12873 11.225 56 11.225 L56 -0.025 zM11.225 56 C11.225 54.5504 11.225 53.1008 11.225 51.65119 C11.225 50.48699 11.225 49.3228 11.225 48.1586 C11.225 44.666 11.225 41.1734 11.225 37.6808 C11.225 32.58731 11.225 27.49382 11.225 22.40034 L-0.025 22.40034 C-0.025 24.00122 -0.025 25.60211 -0.025 27.203 C-0.025 30.6956 -0.025 34.1882 -0.025 37.6808 C-0.025 41.1734 -0.025 44.666 -0.025 48.1586 C-0.025 50.7724 -0.025 53.3862 -0.025 56 L11.225 56 zM25.67005 33.625 C26.08728 34.04223 26.5045 34.45945 26.92173 34.87668 C27.69786 35.65281 28.47399 36.42895 29.25013 37.20508 C31.57853 39.53348 33.90693 41.86188 36.23533 44.19028 C39.63098 47.58594 43.02664 50.98159 46.4223 54.37725 C49.07395 51.7256 51.7256 49.07395 54.37725 46.4223 C53.30999 45.35504 52.24273 44.28778 51.17548 43.22052 C48.84708 40.89213 46.51868 38.56373 44.19028 36.23533 C41.86188 33.90693 39.53348 31.57853 37.20508 29.25013 C35.46254 27.50759 34.03313 25.38163 31.97748 24.02252 C28.71345 21.8645 27.62567 22.375 23.9975 22.375 C21.087 22.375 18.1765 22.375 15.266 22.375 C12.3555 22.375 9.445 22.375 6.5345 22.375 C5.56434 22.375 4.59417 22.375 3.624 22.375 C2.416 22.375 1.208 22.375 0 22.375 L0 33.625 C1.208 33.625 2.416 33.625 3.624 33.625 C4.59417 33.625 5.56434 33.625 6.5345 33.625 C9.445 33.625 12.3555 33.625 15.266 33.625 C18.1765 33.625 21.087 33.625 23.9975 33.625 C24.55502 33.625 25.11253 33.625 25.67005 33.625 z" />
<glyph unicode="r" horiz-adv-x="67.275" d="M44.8 0 C44.8 1.4496 44.8 2.8992 44.8 4.34881 C44.8 5.51301 44.8 6.6772 44.8 7.8414 C44.8 11.334 44.8 14.8266 44.8 18.3192 C44.8 23.41269 44.8 28.50618 44.8 33.59966 L56.05 33.59966 C56.05 31.99878 56.05 30.39789 56.05 28.797 C56.05 25.3044 56.05 21.8118 56.05 18.3192 C56.05 14.8266 56.05 11.334 56.05 7.8414 C56.05 5.2276 56.05 2.6138 56.05 0 L44.8 0 zM30.35495 33.625 C31.75647 33.625 33.15799 33.625 34.5595 33.625 C37.47 33.625 40.3805 33.625 43.291 33.625 C47.53557 33.625 51.78015 33.625 56.02472 33.625 L56.02472 22.375 C54.69065 22.375 53.35657 22.375 52.0225 22.375 C49.112 22.375 46.2015 22.375 43.291 22.375 C40.3805 22.375 37.47 22.375 34.5595 22.375 C32.38134 22.375 30.15373 21.91358 28.025 22.375 C24.0074 23.24586 23.63758 24.43247 20.84552 27.22452 C18.51713 29.55292 16.18873 31.88132 13.86033 34.20972 C11.53193 36.53812 9.20353 38.86652 6.87513 41.19492 C5.13259 42.93746 3.39006 44.67999 1.64752 46.42252 C4.29917 49.07417 6.95083 51.72583 9.60248 54.37748 C10.56888 53.41107 11.53528 52.44467 12.50168 51.47827 C13.27781 50.70214 14.05395 49.92601 14.83008 49.14987 C17.15848 46.82147 19.48688 44.49307 21.81528 42.16467 C24.14368 39.83627 26.47208 37.50787 28.80048 35.17948 C29.31863 34.66132 29.83679 34.14316 30.35495 33.625 zM56.05 56 C56.05 55.5168 56.05 55.0336 56.05 54.5504 C56.05 54.16233 56.05 53.77427 56.05 53.3862 C56.05 52.222 56.05 51.0578 56.05 49.8936 C56.05 48.19577 56.05 46.49794 56.05 44.80011 L44.8 44.80011 C44.8 45.33374 44.8 45.86737 44.8 46.401 C44.8 47.5652 44.8 48.7294 44.8 49.8936 C44.8 51.0578 44.8 52.222 44.8 53.3862 C44.8 54.25747 44.8 55.12873 44.8 56 L56.05 56 zM11.25 11.2 C11.25 10.7168 11.25 10.2336 11.25 9.7504 C11.25 9.36233 11.25 8.97427 11.25 8.5862 C11.25 7.422 11.25 6.2578 11.25 5.0936 C11.25 3.39577 11.25 1.69794 11.25 0.00011 L-0 0.00011 C-0 0.53374 -0 1.06737 -0 1.601 C-0 2.7652 -0 3.9294 -0 5.0936 C-0 6.2578 -0 7.422 -0 8.5862 C-0 9.45747 -0 10.32873 -0 11.2 L11.25 11.2 z" />
<glyph unicode="s" horiz-adv-x="67.3" d="M56.05 11.2 C56.05 10.7168 56.05 10.2336 56.05 9.7504 C56.05 9.36233 56.05 8.97427 56.05 8.5862 C56.05 7.422 56.05 6.2578 56.05 5.0936 C56.05 3.39577 56.05 1.69794 56.05 0.00011 L44.8 0.00011 C44.8 0.53374 44.8 1.06737 44.8 1.601 C44.8 2.7652 44.8 3.9294 44.8 5.0936 C44.8 6.2578 44.8 7.422 44.8 8.5862 C44.8 9.45747 44.8 10.32873 44.8 11.2 L56.05 11.2 zM36.89505 44.775 C36.49736 44.775 35.83455 44.775 35.3043 44.775 C33.558 44.775 31.8117 44.775 30.0654 44.775 C27.51866 44.775 24.97191 44.775 22.42517 44.775 L22.42517 56.025 C23.22561 56.025 24.02606 56.025 24.8265 56.025 C26.5728 56.025 28.3191 56.025 30.0654 56.025 C31.8117 56.025 33.558 56.025 35.3043 56.025 C37.38785 56.025 39.4714 56.025 41.55495 56.025 C42.10416 55.47579 42.65338 54.92658 43.20259 54.37736 C44.90042 52.67953 46.59825 50.98171 48.29607 49.28388 C49.46027 48.11968 50.62447 46.95548 51.78867 45.79128 C52.65994 44.92001 53.79177 44.24764 54.40248 43.17748 C55.11377 41.93104 55.69112 40.58935 56.05 39.19983 C56.25017 38.42482 56.05 37.59894 56.05 36.7985 C56.05 35.0522 56.05 33.3059 56.05 31.5596 C56.05 29.8133 56.05 28.067 56.05 26.3207 C56.05 25.0138 56.05 23.7069 56.05 22.4 L44.8 22.4 C44.8 23.1248 44.8 23.8496 44.8 24.5744 C44.8 25.1565 44.8 25.7386 44.8 26.3207 C44.8 28.067 44.8 29.8133 44.8 31.5596 C44.8 33.32975 44.8 35.0999 44.8 36.87005 C44.55843 37.11162 44.15582 37.51423 43.83372 37.83633 C42.66952 39.00053 41.50532 40.16473 40.34112 41.32893 C39.56499 42.10506 38.78886 42.88119 38.01272 43.65732 C37.64017 44.02988 37.26761 44.40244 36.89505 44.775 zM0 44.8 C0 45.2832 0 45.7664 0 46.2496 C0 46.63767 0 47.02573 0 47.4138 C0 48.578 0 49.7422 0 50.9064 C0 52.60423 0 54.30206 0 55.99989 L11.25 55.99989 C11.25 55.46626 11.25 54.93263 11.25 54.399 C11.25 53.2348 11.25 52.0706 11.25 50.9064 C11.25 49.7422 11.25 48.578 11.25 47.4138 C11.25 47.18226 11.25 44.93095 11.25 44.8 L0 44.8 zM19.15495 11.225 C19.6852 11.225 20.21545 11.225 20.7457 11.225 C22.492 11.225 24.2383 11.225 25.9846 11.225 C28.53134 11.225 31.07809 11.225 33.62483 11.225 L33.62483 -0.025 C32.82439 -0.025 32.02394 -0.025 31.2235 -0.025 C29.4772 -0.025 27.7309 -0.025 25.9846 -0.025 C24.2383 -0.025 22.492 -0.025 20.7457 -0.025 C18.66215 -0.025 16.5786 -0.025 14.49505 -0.025 C13.94584 0.52421 13.39662 1.07342 12.84741 1.62264 C11.14958 3.32047 9.45175 5.01829 7.75393 6.71612 C6.58973 7.88032 5.42553 9.04452 4.26133 10.20872 C3.39006 11.07999 2.25823 11.75236 1.64752 12.82252 C0.93623 14.06896 0.35888 15.41065 0 16.80017 C-0.20017 17.57518 0 18.40106 0 19.2015 C0 20.9478 0 22.6941 0 24.4404 C0 26.1867 0 27.933 0 29.6793 C0 30.9862 0 32.2931 0 33.6 C3.75 33.6 7.5 33.6 11.25 33.6 C11.25 32.8752 11.25 32.1504 11.25 31.4256 C11.25 30.8435 11.25 30.2614 11.25 29.6793 C11.25 27.933 11.25 26.1867 11.25 24.4404 C11.25 22.67025 11.25 20.9001 11.25 19.12995 C11.57209 18.80786 11.89418 18.48577 12.21628 18.16367 C13.38048 16.99947 14.54468 15.83527 15.70888 14.67107 C16.48501 13.89494 17.26114 13.11881 18.03728 12.34268 C18.40983 11.97012 18.78239 11.59756 19.15495 11.225 z" />
<glyph unicode="t" horiz-adv-x="67.25" d="M11.2 -0.025 C10.7168 -0.025 10.2336 -0.025 9.7504 -0.025 C9.36233 -0.025 8.97427 -0.025 8.5862 -0.025 C7.422 -0.025 6.2578 -0.025 5.0936 -0.025 C3.39577 -0.025 1.69794 -0.025 0.00011 -0.025 L0.00011 11.225 C0.53374 11.225 1.06737 11.225 1.601 11.225 C2.7652 11.225 3.9294 11.225 5.0936 11.225 C6.2578 11.225 7.422 11.225 8.5862 11.225 C9.45747 11.225 10.32873 11.225 11.2 11.225 L11.2 -0.025 zM56 -0.025 C54.5504 -0.025 53.1008 -0.025 51.65119 -0.025 C50.48699 -0.025 49.3228 -0.025 48.1586 -0.025 C44.666 -0.025 41.1734 -0.025 37.6808 -0.025 C32.58731 -0.025 27.49382 -0.025 22.40034 -0.025 L22.40034 11.225 C24.00122 11.225 25.60211 11.225 27.203 11.225 C30.6956 11.225 34.1882 11.225 37.6808 11.225 C41.1734 11.225 44.666 11.225 48.1586 11.225 C49.3228 11.225 50.48699 11.225 51.65119 11.225 C53.1008 11.225 54.5504 11.225 56 11.225 L56 -0.025 zM33.625 56 C33.625 53.584 33.625 51.16799 33.625 48.75199 C33.625 46.81166 33.625 44.87133 33.625 42.93099 C33.625 37.10999 33.625 31.28899 33.625 25.468 C33.625 16.97885 33.625 8.48971 33.625 0.00056 L22.375 0.00056 C22.375 2.66871 22.375 5.33685 22.375 8.005 C22.375 13.826 22.375 19.647 22.375 25.468 C22.375 31.28899 22.375 37.10999 22.375 42.93099 C22.375 47.28733 22.375 51.64366 22.375 56 L33.625 56 z" />
<glyph unicode="u" horiz-adv-x="67.25" d="M-0.025 0 C-0.025 1.4496 -0.025 2.8992 -0.025 4.34881 C-0.025 5.51301 -0.025 6.6772 -0.025 7.8414 C-0.025 11.334 -0.025 14.8266 -0.025 18.3192 C-0.025 23.41269 -0.025 28.50618 -0.025 33.59966 L11.225 33.59966 C11.225 31.99878 11.225 30.39789 11.225 28.797 C11.225 25.3044 11.225 21.8118 11.225 18.3192 C11.225 14.8266 11.225 11.334 11.225 7.8414 C11.225 5.2276 11.225 2.6138 11.225 0 L-0.025 0 zM0 11.225 C0.9664 11.225 1.9328 11.225 2.8992 11.225 C3.67534 11.225 4.45147 11.225 5.2276 11.225 C7.556 11.225 9.8844 11.225 12.2128 11.225 C15.60846 11.225 19.00412 11.225 22.39978 11.225 L22.39978 -0.025 C21.33252 -0.025 20.26526 -0.025 19.198 -0.025 C16.8696 -0.025 14.5412 -0.025 12.2128 -0.025 C9.8844 -0.025 7.556 -0.025 5.2276 -0.025 C3.48507 -0.025 1.74253 -0.025 0 -0.025 L0 11.225 zM33.6 22.375 C33.1168 22.375 32.6336 22.375 32.1504 22.375 C31.76233 22.375 31.37427 22.375 30.9862 22.375 C29.822 22.375 28.6578 22.375 27.4936 22.375 C25.79577 22.375 24.09794 22.375 22.40011 22.375 L22.40011 33.625 C22.93374 33.625 23.46737 33.625 24.001 33.625 C25.1652 33.625 26.3294 33.625 27.4936 33.625 C28.6578 33.625 29.822 33.625 30.9862 33.625 C31.85747 33.625 32.72873 33.625 33.6 33.625 L33.6 22.375 zM56 -0.025 C55.0336 -0.025 54.0672 -0.025 53.1008 -0.025 C52.32466 -0.025 51.54853 -0.025 50.7724 -0.025 C48.444 -0.025 46.1156 -0.025 43.7872 -0.025 C40.39154 -0.025 36.99588 -0.025 33.60022 -0.025 L33.60022 11.225 C34.66748 11.225 35.73474 11.225 36.802 11.225 C39.1304 11.225 41.4588 11.225 43.7872 11.225 C46.1156 11.225 48.444 11.225 50.7724 11.225 C52.51493 11.225 54.25747 11.225 56 11.225 L56 -0.025 zM56.025 56 C56.025 53.584 56.025 51.16799 56.025 48.75199 C56.025 46.81166 56.025 44.87133 56.025 42.93099 C56.025 37.10999 56.025 31.28899 56.025 25.468 C56.025 16.97885 56.025 8.48971 56.025 0.00056 L44.775 0.00056 C44.775 2.66871 44.775 5.33685 44.775 8.005 C44.775 13.826 44.775 19.647 44.775 25.468 C44.775 31.28899 44.775 37.10999 44.775 42.93099 C44.775 47.28733 44.775 51.64366 44.775 56 L56.025 56 z" />
<glyph unicode="v" horiz-adv-x="61.65" d="M25.67005 11.225 C26.08728 11.64223 26.5045 12.05945 26.92173 12.47668 C27.69786 13.25281 28.47399 14.02895 29.25013 14.80508 C31.57853 17.13348 33.90693 19.46188 36.23533 21.79028 C39.63098 25.18594 43.02664 28.58159 46.4223 31.97725 C49.07395 29.3256 51.7256 26.67395 54.37725 24.0223 C53.30999 22.95504 52.24273 21.88778 51.17548 20.82052 C48.84708 18.49213 46.51868 16.16373 44.19028 13.83533 C41.86188 11.50693 39.53348 9.17853 37.20508 6.85013 C35.46254 5.10759 34.03313 2.98163 31.97748 1.62252 C28.71345 -0.5355 27.62567 -0.025 23.9975 -0.025 C21.087 -0.025 18.1765 -0.025 15.266 -0.025 C12.3555 -0.025 9.445 -0.025 6.5345 -0.025 C4.35634 -0.025 2.17817 -0.025 0 -0.025 L0 11.225 C1.208 11.225 2.416 11.225 3.624 11.225 C4.59417 11.225 5.56434 11.225 6.5345 11.225 C9.445 11.225 12.3555 11.225 15.266 11.225 C18.1765 11.225 21.087 11.225 23.9975 11.225 C24.55502 11.225 25.11253 11.225 25.67005 11.225 zM11.225 56 C11.225 54.5504 11.225 53.1008 11.225 51.65119 C11.225 50.48699 11.225 49.3228 11.225 48.1586 C11.225 44.666 11.225 41.1734 11.225 37.6808 C11.225 32.58731 11.225 27.49382 11.225 22.40034 L-0.025 22.40034 C-0.025 24.00122 -0.025 25.60211 -0.025 27.203 C-0.025 30.6956 -0.025 34.1882 -0.025 37.6808 C-0.025 41.1734 -0.025 44.666 -0.025 48.1586 C-0.025 50.7724 -0.025 53.3862 -0.025 56 L11.225 56 z" />
<glyph unicode="w" horiz-adv-x="67.25" d="M25.67005 11.225 C26.08728 11.64223 26.5045 12.05945 26.92173 12.47668 C27.69786 13.25281 28.47399 14.02895 29.25013 14.80508 C31.57853 17.13348 33.90693 19.46188 36.23533 21.79028 C39.63098 25.18594 43.02664 28.58159 46.4223 31.97725 C49.07395 29.3256 51.7256 26.67395 54.37725 24.0223 C53.30999 22.95504 52.24273 21.88778 51.17548 20.82052 C48.84708 18.49213 46.51868 16.16373 44.19028 13.83533 C41.86188 11.50693 39.53348 9.17853 37.20508 6.85013 C35.46254 5.10759 34.03313 2.98163 31.97748 1.62252 C28.71345 -0.5355 27.62567 -0.025 23.9975 -0.025 C21.087 -0.025 18.1765 -0.025 15.266 -0.025 C12.3555 -0.025 9.445 -0.025 6.5345 -0.025 C4.35634 -0.025 2.17817 -0.025 0 -0.025 L0 11.225 C1.208 11.225 2.416 11.225 3.624 11.225 C4.59417 11.225 5.56434 11.225 6.5345 11.225 C9.445 11.225 12.3555 11.225 15.266 11.225 C18.1765 11.225 21.087 11.225 23.9975 11.225 C24.55502 11.225 25.11253 11.225 25.67005 11.225 zM11.2 22.375 C10.7168 22.375 10.2336 22.375 9.7504 22.375 C9.36233 22.375 8.97427 22.375 8.5862 22.375 C7.422 22.375 6.2578 22.375 5.0936 22.375 C3.39577 22.375 1.69794 22.375 0.00011 22.375 L0.00011 33.625 C0.53374 33.625 1.06737 33.625 1.601 33.625 C2.7652 33.625 3.9294 33.625 5.0936 33.625 C6.2578 33.625 7.422 33.625 8.5862 33.625 C9.45747 33.625 10.32873 33.625 11.2 33.625 L11.2 22.375 zM56 44.775 C53.584 44.775 51.16799 44.775 48.75199 44.775 C46.81166 44.775 44.87133 44.775 42.93099 44.775 C37.10999 44.775 31.28899 44.775 25.468 44.775 C16.97885 44.775 8.48971 44.775 0.00056 44.775 L0.00056 56.025 C2.66871 56.025 5.33685 56.025 8.005 56.025 C13.826 56.025 19.647 56.025 25.468 56.025 C31.28899 56.025 37.10999 56.025 42.93099 56.025 C47.28733 56.025 51.64366 56.025 56 56.025 L56 44.775 z" />
<glyph unicode="x" horiz-adv-x="67.3" d="M11.25 33.6 C11.25 32.1504 11.25 30.7008 11.25 29.25119 C11.25 28.08699 11.25 26.9228 11.25 25.7586 C11.25 22.266 11.25 18.7734 11.25 15.2808 C11.25 10.18731 11.25 5.09382 11.25 0.00034 L0 0.00034 C0 1.60122 0 3.20211 0 4.803 C0 8.2956 0 11.7882 0 15.2808 C0 18.7734 0 22.266 0 25.7586 C0 28.3724 0 30.9862 0 33.6 L11.25 33.6 zM22.4 7.72356 C21.87046 7.98833 20.98788 8.42962 20.28182 8.78265 C17.95342 9.94685 15.62502 11.11105 13.29662 12.27525 C9.90096 13.97308 6.50531 15.67091 3.10965 17.36874 C4.7867 20.72284 6.46375 24.07694 8.1408 27.43104 C9.20806 26.89741 10.27532 26.36378 11.34258 25.83015 C13.67098 24.66595 15.99938 23.50175 18.32777 22.33755 C20.65617 21.17335 22.98457 20.00915 25.31297 18.84495 C26.08911 18.45689 26.86524 18.06882 27.64137 17.68075 C28.60777 17.19755 29.80598 17.02348 30.54058 16.23115 C31.88098 14.7854 32.81309 12.98496 33.65 11.19989 C33.87653 10.71673 33.65 10.13263 33.65 9.599 C33.65 8.4348 33.65 7.2706 33.65 6.1064 C33.65 4.9422 33.65 3.778 33.65 2.6138 C33.65 2.22573 33.65 1.83767 33.65 1.4496 C33.65 0.9664 33.65 0.4832 33.65 0 L22.4 0 C22.4 0.4832 22.4 0.9664 22.4 1.4496 C22.4 1.83767 22.4 2.22573 22.4 2.6138 C22.4 3.778 22.4 4.9422 22.4 6.1064 C22.4 6.49447 22.4 6.88253 22.4 7.2706 C22.4 7.42159 22.4 7.57257 22.4 7.72356 zM44.8 22.4 C44.8 23.8496 44.8 25.2992 44.8 26.74881 C44.8 27.91301 44.8 29.0772 44.8 30.2414 C44.8 33.734 44.8 37.2266 44.8 40.7192 C44.8 45.81269 44.8 50.90618 44.8 55.99966 L56.05 55.99966 C56.05 54.39878 56.05 52.79789 56.05 51.197 C56.05 47.7044 56.05 44.2118 56.05 40.7192 C56.05 37.2266 56.05 33.734 56.05 30.2414 C56.05 27.6276 56.05 25.0138 56.05 22.4 L44.8 22.4 zM33.65 48.27644 C34.17954 48.01167 35.06212 47.57038 35.76818 47.21735 C38.09658 46.05315 40.42498 44.88895 42.75338 43.72475 C46.14904 42.02692 49.54469 40.32909 52.94035 38.63126 L47.9092 28.56896 C46.84194 29.10259 45.77468 29.63622 44.70742 30.16985 C42.37902 31.33405 40.05062 32.49825 37.72223 33.66245 C35.39383 34.82665 33.06543 35.99085 30.73703 37.15505 C29.96089 37.54311 29.18476 37.93118 28.40863 38.31925 C27.44223 38.80245 26.24402 38.97652 25.50942 39.76885 C24.16902 41.2146 23.23691 43.01504 22.4 44.80011 C22.17347 45.28327 22.4 45.86737 22.4 46.401 C22.4 47.5652 22.4 48.7294 22.4 49.8936 C22.4 51.0578 22.4 52.222 22.4 53.3862 C22.4 54.25747 22.4 55.12873 22.4 56 C26.15 56 29.9 56 33.65 56 C33.65 55.5168 33.65 55.0336 33.65 54.5504 C33.65 54.16233 33.65 53.77427 33.65 53.3862 C33.65 52.222 33.65 51.0578 33.65 49.8936 C33.65 49.50553 33.65 49.11747 33.65 48.7294 C33.65 48.57841 33.65 48.42743 33.65 48.27644 z" />
<glyph unicode="y" horiz-adv-x="61.65" d="M-0.025 0 C-0.025 1.4496 -0.025 2.8992 -0.025 4.34881 C-0.025 5.51301 -0.025 6.6772 -0.025 7.8414 C-0.025 11.334 -0.025 14.8266 -0.025 18.3192 C-0.025 23.41269 -0.025 28.50618 -0.025 33.59966 L11.225 33.59966 C11.225 31.99878 11.225 30.39789 11.225 28.797 C11.225 25.3044 11.225 21.8118 11.225 18.3192 C11.225 14.8266 11.225 11.334 11.225 7.8414 C11.225 5.2276 11.225 2.6138 11.225 0 L-0.025 0 zM25.67005 33.625 C26.86341 34.81836 28.05677 36.01172 29.25013 37.20508 C31.57853 39.53348 33.90693 41.86188 36.23533 44.19028 C39.63098 47.58594 43.02664 50.98159 46.4223 54.37725 C49.07395 51.7256 51.7256 49.07395 54.37725 46.4223 C53.30999 45.35504 52.24273 44.28778 51.17548 43.22052 C48.84708 40.89213 46.51868 38.56373 44.19028 36.23533 C41.86188 33.90693 39.53348 31.57853 37.20508 29.25013 C35.46254 27.50759 34.03313 25.38163 31.97748 24.02252 C28.71345 21.8645 27.62567 22.375 23.9975 22.375 C21.087 22.375 18.1765 22.375 15.266 22.375 C12.3555 22.375 9.445 22.375 6.5345 22.375 C4.35634 22.375 2.17817 22.375 0 22.375 L0 33.625 C1.208 33.625 2.416 33.625 3.624 33.625 C4.59417 33.625 5.56434 33.625 6.5345 33.625 C9.445 33.625 12.3555 33.625 15.266 33.625 C18.1765 33.625 21.087 33.625 23.9975 33.625 C24.55502 33.625 25.11253 33.625 25.67005 33.625 zM11.225 56 C11.225 55.5168 11.225 55.0336 11.225 54.5504 C11.225 54.16233 11.225 53.77427 11.225 53.3862 C11.225 52.222 11.225 51.0578 11.225 49.8936 C11.225 48.19577 11.225 46.49794 11.225 44.80011 L-0.025 44.80011 C-0.025 45.33374 -0.025 45.86737 -0.025 46.401 C-0.025 47.5652 -0.025 48.7294 -0.025 49.8936 C-0.025 51.0578 -0.025 52.222 -0.025 53.3862 C-0.025 54.25747 -0.025 55.12873 -0.025 56 L11.225 56 z" />
<glyph unicode="z" horiz-adv-x="67.3" d="M56.05 11.2 C56.05 10.7168 56.05 10.2336 56.05 9.7504 C56.05 9.36233 56.05 8.97427 56.05 8.5862 C56.05 7.422 56.05 6.2578 56.05 5.0936 C56.05 3.39577 56.05 1.69794 56.05 0.00011 L44.8 0.00011 C44.8 0.53374 44.8 1.06737 44.8 1.601 C44.8 2.7652 44.8 3.9294 44.8 5.0936 C44.8 6.2578 44.8 7.422 44.8 8.5862 C44.8 9.45747 44.8 10.32873 44.8 11.2 L56.05 11.2 zM56.05 56 C56.05 54.5504 56.05 53.1008 56.05 51.65119 C56.05 50.48699 56.05 49.3228 56.05 48.1586 C56.05 44.666 56.05 41.1734 56.05 37.6808 C56.05 32.58731 56.05 27.49382 56.05 22.40034 L44.8 22.40034 C44.8 24.00122 44.8 25.60211 44.8 27.203 C44.8 30.6956 44.8 34.1882 44.8 37.6808 C44.8 41.1734 44.8 44.666 44.8 48.1586 C44.8 50.7724 44.8 53.3862 44.8 56 L56.05 56 zM11.25 56 C11.25 53.584 11.25 51.16799 11.25 48.75199 C11.25 46.81166 11.25 44.87133 11.25 42.93099 C11.25 37.10999 11.25 31.28899 11.25 25.468 C11.25 16.97885 11.25 8.48971 11.25 0.00056 L0 0.00056 C0 2.66871 0 5.33685 0 8.005 C0 13.826 0 19.647 0 25.468 C0 31.28899 0 37.10999 0 42.93099 C0 47.28733 0 51.64366 0 56 L11.25 56 zM24.04752 18.42252 C23.08112 19.38893 22.11472 20.35533 21.14832 21.32173 C20.37219 22.09786 19.59605 22.87399 18.81992 23.65013 C16.49152 25.97853 14.16312 28.30693 11.83472 30.63533 C8.43906 34.03098 5.04341 37.42664 1.64775 40.8223 L9.6027 48.77725 C10.66996 47.70999 11.73722 46.64273 12.80448 45.57548 C15.13287 43.24708 17.46127 40.91868 19.78967 38.59028 C22.11807 36.26188 24.44647 33.93348 26.77487 31.60508 C28.51741 29.86254 30.25994 28.12001 32.00248 26.37748 L24.04752 18.42252 zM22.4 0 C22.4 0.4832 22.4 0.9664 22.4 1.4496 C22.4 1.83767 22.4 2.22573 22.4 2.6138 C22.4 3.778 22.4 4.9422 22.4 6.1064 C22.4 7.80423 22.4 9.50206 22.4 11.19989 L33.65 11.19989 C33.65 10.66626 33.65 10.13263 33.65 9.599 C33.65 8.4348 33.65 7.2706 33.65 6.1064 C33.65 4.9422 33.65 3.778 33.65 2.6138 C33.65 2.22573 33.65 1.83767 33.65 1.4496 C33.65 0.9664 33.65 0.4832 33.65 0 L22.4 0 z" />
<glyph unicode="{" horiz-adv-x="33.65" d="M22.425 56 C22.425 53.584 22.425 51.16799 22.425 48.75199 C22.425 46.81166 22.425 44.87133 22.425 42.93099 C22.425 37.10999 22.425 31.28899 22.425 25.468 C22.425 16.97885 22.425 8.48971 22.425 0.00056 L11.175 0.00056 C11.175 2.66871 11.175 5.33685 11.175 8.005 C11.175 13.826 11.175 19.647 11.175 25.468 C11.175 31.28899 11.175 37.10999 11.175 42.93099 C11.175 47.28733 11.175 51.64366 11.175 56 L22.425 56 zM0 33.625 C0.9664 33.625 1.9328 33.625 2.8992 33.625 C3.67534 33.625 4.45147 33.625 5.2276 33.625 C7.556 33.625 9.8844 33.625 12.2128 33.625 C15.60846 33.625 19.00412 33.625 22.39978 33.625 L22.39978 22.375 C21.33252 22.375 20.26526 22.375 19.198 22.375 C16.8696 22.375 14.5412 22.375 12.2128 22.375 C9.8844 22.375 7.556 22.375 5.2276 22.375 C3.48507 22.375 1.74253 22.375 0 22.375 L0 33.625 z" />
<glyph unicode="|" horiz-adv-x="22.5" d="M11.25 56 C11.25 53.1008 11.25 50.20159 11.25 47.30239 C11.25 44.97399 11.25 42.64559 11.25 40.31719 C11.25 33.33199 11.25 26.34679 11.25 19.36159 C11.25 9.17462 11.25 -1.01235 11.25 -11.19933 L-0 -11.19933 C-0 -7.99755 -0 -4.79578 -0 -1.594 C-0 5.3912 -0 12.3764 -0 19.36159 C-0 26.34679 -0 33.33199 -0 40.31719 C-0 45.54479 -0 50.7724 -0 56 L11.25 56 z" />
<glyph unicode="}" horiz-adv-x="33.65" d="M-0.025 0 C-0.025 2.416 -0.025 4.83201 -0.025 7.24801 C-0.025 9.18834 -0.025 11.12867 -0.025 13.06901 C-0.025 18.89001 -0.025 24.71101 -0.025 30.532 C-0.025 39.02115 -0.025 47.51029 -0.025 55.99944 L11.225 55.99944 C11.225 53.33129 11.225 50.66315 11.225 47.995 C11.225 42.174 11.225 36.353 11.225 30.532 C11.225 24.71101 11.225 18.89001 11.225 13.06901 C11.225 8.71267 11.225 4.35634 11.225 0 L-0.025 0 zM-0 33.625 C0.9664 33.625 1.9328 33.625 2.8992 33.625 C3.67534 33.625 4.45147 33.625 5.2276 33.625 C7.556 33.625 9.8844 33.625 12.2128 33.625 C15.60846 33.625 19.00412 33.625 22.39978 33.625 L22.39978 22.375 C21.33252 22.375 20.26526 22.375 19.198 22.375 C16.8696 22.375 14.5412 22.375 12.2128 22.375 C9.8844 22.375 7.556 22.375 5.2276 22.375 C3.48507 22.375 1.74253 22.375 0 22.375 L0 33.625 z" />
<glyph unicode="~" horiz-adv-x="44.85" d="M8.87005 27.975 C7.94883 27.975 7.02762 27.975 6.1064 27.975 C4.9422 27.975 3.778 27.975 2.6138 27.975 C1.74253 27.975 0.87127 27.975 0 27.975 C0 31.725 0 35.475 0 39.225 C0.4832 39.225 0.9664 39.225 1.4496 39.225 C1.83767 39.225 2.22573 39.225 2.6138 39.225 C3.778 39.225 4.9422 39.225 6.1064 39.225 C7.2706 39.225 8.4348 39.225 9.599 39.225 C10.13263 39.225 10.68811 39.37615 11.19989 39.225 C12.57622 38.81852 13.93105 38.28877 15.17748 37.57748 C16.24764 36.96677 16.92001 35.83494 17.79128 34.96367 C18.95548 33.79947 20.11968 32.63527 21.28388 31.47107 C22.43257 30.32238 23.58126 29.17369 24.72995 28.025 C24.82457 28.025 24.91918 28.025 25.0138 28.025 C26.178 28.025 27.3422 28.025 28.5064 28.025 C30.20423 28.025 31.90206 28.025 33.59989 28.025 L33.59989 16.775 C33.06626 16.775 32.53263 16.775 31.999 16.775 C30.8348 16.775 29.6706 16.775 28.5064 16.775 C27.3422 16.775 26.178 16.775 25.0138 16.775 C22.26714 16.775 21.32053 16.73497 18.42241 18.42264 C17.77026 18.8024 17.35515 19.48989 16.82152 20.02352 C15.65732 21.18772 14.49313 22.35192 13.32893 23.51612 C12.16473 24.68032 11.00053 25.84452 9.83633 27.00872 C9.51423 27.33082 9.19214 27.65291 8.87005 27.975 z" />
<glyph unicode="" horiz-adv-x="39.25" d="M28 22.375 C26.792 22.375 25.584 22.375 24.376 22.375 C23.40583 22.375 22.43566 22.375 21.4655 22.375 C18.555 22.375 15.6445 22.375 12.734 22.375 C8.48943 22.375 4.24485 22.375 0.00028 22.375 L0.00028 33.625 C1.33435 33.625 2.66843 33.625 4.0025 33.625 C6.913 33.625 9.8235 33.625 12.734 33.625 C15.6445 33.625 18.555 33.625 21.4655 33.625 C23.64366 33.625 25.82183 33.625 28 33.625 L28 22.375 z" />
<glyph unicode="" horiz-adv-x="44.85" d="M33.6 22.375 C32.1504 22.375 30.7008 22.375 29.25119 22.375 C28.08699 22.375 26.9228 22.375 25.7586 22.375 C22.266 22.375 18.7734 22.375 15.2808 22.375 C10.18731 22.375 5.09382 22.375 0.00034 22.375 L0.00034 33.625 C1.60122 33.625 3.20211 33.625 4.803 33.625 C8.2956 33.625 11.7882 33.625 15.2808 33.625 C18.7734 33.625 22.266 33.625 25.7586 33.625 C28.3724 33.625 30.9862 33.625 33.6 33.625 L33.6 22.375 z" />
<glyph unicode="" horiz-adv-x="56.05" d="M44.8 22.375 C42.8672 22.375 40.9344 22.375 39.00159 22.375 C37.44933 22.375 35.89706 22.375 34.34479 22.375 C29.68799 22.375 25.0312 22.375 20.3744 22.375 C13.58308 22.375 6.79176 22.375 0.00045 22.375 L0.00045 33.625 C2.13497 33.625 4.26948 33.625 6.404 33.625 C11.0608 33.625 15.7176 33.625 20.3744 33.625 C25.0312 33.625 29.68799 33.625 34.34479 33.625 C37.82986 33.625 41.31493 33.625 44.8 33.625 L44.8 22.375 z" />
<glyph unicode="" horiz-adv-x="55.05" d="M43.8 22.375 C41.8672 22.375 39.9344 22.375 38.00159 22.375 C36.44933 22.375 34.89706 22.375 33.34479 22.375 C28.68799 22.375 24.0312 22.375 19.3744 22.375 C12.58308 22.375 5.79176 22.375 -0.99955 22.375 L-0.99955 33.625 C1.13497 33.625 3.26948 33.625 5.404 33.625 C10.0608 33.625 14.7176 33.625 19.3744 33.625 C24.0312 33.625 28.68799 33.625 33.34479 33.625 C36.82986 33.625 40.31493 33.625 43.8 33.625 L43.8 22.375 z" />
<glyph unicode="" horiz-adv-x="56.05" d="M44.8 22.375 C42.8672 22.375 40.9344 22.375 39.00159 22.375 C37.44933 22.375 35.89706 22.375 34.34479 22.375 C29.68799 22.375 25.0312 22.375 20.3744 22.375 C13.58308 22.375 6.79176 22.375 0.00045 22.375 L0.00045 33.625 C2.13497 33.625 4.26948 33.625 6.404 33.625 C11.0608 33.625 15.7176 33.625 20.3744 33.625 C25.0312 33.625 29.68799 33.625 34.34479 33.625 C37.82986 33.625 41.31493 33.625 44.8 33.625 L44.8 22.375 z" />
<glyph unicode="" horiz-adv-x="28.05" d="M16.8 44.775 C16.0752 44.775 15.3504 44.775 14.6256 44.775 C14.0435 44.775 13.4614 44.775 12.8793 44.775 C11.133 44.775 9.3867 44.775 7.6404 44.775 C5.09366 44.775 2.54691 44.775 0.00017 44.775 L0.00017 56.025 C0.80061 56.025 1.60106 56.025 2.4015 56.025 C4.1478 56.025 5.8941 56.025 7.6404 56.025 C9.3867 56.025 11.133 56.025 12.8793 56.025 C14.1862 56.025 15.4931 56.025 16.8 56.025 L16.8 44.775 z" />
<glyph unicode="" horiz-adv-x="28.05" d="M16.8 44.775 C16.0752 44.775 15.3504 44.775 14.6256 44.775 C14.0435 44.775 13.4614 44.775 12.8793 44.775 C11.133 44.775 9.3867 44.775 7.6404 44.775 C5.09366 44.775 2.54691 44.775 0.00017 44.775 L0.00017 56.025 C0.80061 56.025 1.60106 56.025 2.4015 56.025 C4.1478 56.025 5.8941 56.025 7.6404 56.025 C9.3867 56.025 11.133 56.025 12.8793 56.025 C14.1862 56.025 15.4931 56.025 16.8 56.025 L16.8 44.775 z" />
<glyph unicode="" horiz-adv-x="28.05" d="M16.7096 44.77573 C15.98963 44.7873 15.26966 44.79887 14.54969 44.81044 C13.97147 44.81974 13.39326 44.82903 12.81504 44.83833 C11.08038 44.86621 9.34573 44.89409 7.61107 44.92197 C5.08131 44.96264 2.55155 45.0033 0.02178 45.04396 L0.20259 56.29251 C0.9977 56.27973 1.7928 56.26695 2.58791 56.25417 C4.32257 56.22629 6.05722 56.1984 7.79188 56.17052 C9.52653 56.14264 11.26119 56.11476 12.99584 56.08687 C14.29403 56.06601 15.59222 56.04514 16.8904 56.02427 L16.7096 44.77573 zM11.2 22.375 C10.7168 22.375 10.2336 22.375 9.7504 22.375 C9.36233 22.375 8.97427 22.375 8.5862 22.375 C7.422 22.375 6.2578 22.375 5.0936 22.375 C3.39577 22.375 1.69794 22.375 0.00011 22.375 L0.00011 33.625 C0.53374 33.625 1.06737 33.625 1.601 33.625 C2.7652 33.625 3.9294 33.625 5.0936 33.625 C6.2578 33.625 7.422 33.625 8.5862 33.625 C9.45747 33.625 10.32873 33.625 11.2 33.625 L11.2 22.375 z" />
<glyph unicode="" horiz-adv-x="28.05" d="M16.8 44.775 C16.0752 44.775 15.3504 44.775 14.6256 44.775 C14.0435 44.775 13.4614 44.775 12.8793 44.775 C11.133 44.775 9.3867 44.775 7.6404 44.775 C5.09366 44.775 2.54691 44.775 0.00017 44.775 L0.00017 56.025 C0.80061 56.025 1.60106 56.025 2.4015 56.025 C4.1478 56.025 5.8941 56.025 7.6404 56.025 C9.3867 56.025 11.133 56.025 12.8793 56.025 C14.1862 56.025 15.4931 56.025 16.8 56.025 L16.8 44.775 zM16.8 22.375 C16.3168 22.375 15.8336 22.375 15.3504 22.375 C14.96233 22.375 14.57427 22.375 14.1862 22.375 C13.022 22.375 11.8578 22.375 10.6936 22.375 C8.99577 22.375 7.29794 22.375 5.60011 22.375 L5.60011 33.625 C6.13374 33.625 6.66737 33.625 7.201 33.625 C8.3652 33.625 9.5294 33.625 10.6936 33.625 C11.8578 33.625 13.022 33.625 14.1862 33.625 C15.05747 33.625 15.92873 33.625 16.8 33.625 L16.8 22.375 z" />
</font>
</svg>
